<svg width="16" height="16" viewBox="0 0 16 16" fill="none" xmlns="http://www.w3.org/2000/svg">
<mask id="mask0_326_5549" style="mask-type:alpha" maskUnits="userSpaceOnUse" x="0" y="0" width="16" height="16">
<rect width="16" height="16" fill="#D9D9D9"/>
</mask>
<g mask="url(#mask0_326_5549)">
<path d="M3.53915 13.6668C3.20671 13.6668 2.92271 13.5491 2.68715 13.3137C2.45171 13.0781 2.33398 12.7941 2.33398 12.4617V3.53866C2.33398 3.20622 2.45171 2.92222 2.68715 2.68666C2.92271 2.45122 3.20671 2.3335 3.53915 2.3335H12.4622C12.7946 2.3335 13.0786 2.45122 13.3142 2.68666C13.5496 2.92222 13.6673 3.20622 13.6673 3.53866V5.35283H12.6673V3.53866C12.6673 3.47877 12.6481 3.42961 12.6097 3.39116C12.5712 3.35272 12.522 3.3335 12.4622 3.3335H3.53915C3.47926 3.3335 3.4301 3.35272 3.39165 3.39116C3.35321 3.42961 3.33398 3.47877 3.33398 3.53866V12.4617C3.33398 12.5216 3.35321 12.5707 3.39165 12.6092C3.4301 12.6476 3.47926 12.6668 3.53915 12.6668H12.4622C12.522 12.6668 12.5712 12.6476 12.6097 12.6092C12.6481 12.5707 12.6673 12.5216 12.6673 12.4617V10.6475H13.6673V12.4617C13.6673 12.7941 13.5496 13.0781 13.3142 13.3137C13.0786 13.5491 12.7946 13.6668 12.4622 13.6668H3.53915ZM8.87248 11.0002C8.54004 11.0002 8.25604 10.8824 8.02048 10.647C7.78504 10.4114 7.66732 10.1274 7.66732 9.795V6.20533C7.66732 5.87289 7.78504 5.58889 8.02048 5.35333C8.25604 5.11789 8.54004 5.00016 8.87248 5.00016H13.1288C13.4613 5.00016 13.7453 5.11789 13.9808 5.35333C14.2163 5.58889 14.334 5.87289 14.334 6.20533V9.795C14.334 10.1274 14.2163 10.4114 13.9808 10.647C13.7453 10.8824 13.4613 11.0002 13.1288 11.0002H8.87248ZM13.1288 10.0002C13.1887 10.0002 13.2379 9.98094 13.2763 9.9425C13.3148 9.90405 13.334 9.85489 13.334 9.795V6.20533C13.334 6.14544 13.3148 6.09627 13.2763 6.05783C13.2379 6.01939 13.1887 6.00016 13.1288 6.00016H8.87248C8.8126 6.00016 8.76343 6.01939 8.72499 6.05783C8.68654 6.09627 8.66732 6.14544 8.66732 6.20533V9.795C8.66732 9.85489 8.68654 9.90405 8.72499 9.9425C8.76343 9.98094 8.8126 10.0002 8.87248 10.0002H13.1288ZM10.6673 9.00016C10.9451 9.00016 11.1812 8.90294 11.3757 8.7085C11.5701 8.51405 11.6673 8.27794 11.6673 8.00016C11.6673 7.72239 11.5701 7.48627 11.3757 7.29183C11.1812 7.09739 10.9451 7.00016 10.6673 7.00016C10.3895 7.00016 10.1534 7.09739 9.95898 7.29183C9.76454 7.48627 9.66732 7.72239 9.66732 8.00016C9.66732 8.27794 9.76454 8.51405 9.95898 8.7085C10.1534 8.90294 10.3895 9.00016 10.6673 9.00016Z" fill="#0B8DC0"/>
</g>
</svg>
