<svg width="24" height="24" viewBox="0 0 24 24" fill="none" xmlns="http://www.w3.org/2000/svg">
<mask id="mask0_326_5565" style="mask-type:alpha" maskUnits="userSpaceOnUse" x="0" y="0" width="24" height="24">
<rect width="24" height="24" fill="#D9D9D9"/>
</mask>
<g mask="url(#mask0_326_5565)">
<path d="M4.3655 21.5C4.12033 21.5 3.91475 21.4138 3.74875 21.2413C3.58292 21.0689 3.5 20.8602 3.5 20.6152V16.5385C3.5 16.0413 3.677 15.6158 4.031 15.2618C4.385 14.9078 4.81058 14.7308 5.30775 14.7308H18.6923C19.1894 14.7308 19.615 14.9078 19.969 15.2618C20.323 15.6158 20.5 16.0413 20.5 16.5385V20.6152C20.5 20.8602 20.4138 21.0689 20.2413 21.2413C20.0689 21.4138 19.8602 21.5 19.6152 21.5H4.3655ZM5.5 13.2308V9.84625C5.5 9.34908 5.677 8.9235 6.031 8.5695C6.385 8.2155 6.81058 8.0385 7.30775 8.0385H11.25V6.56925C10.9565 6.37558 10.7164 6.14833 10.5298 5.8875C10.3433 5.62667 10.25 5.31592 10.25 4.95525C10.25 4.72992 10.2936 4.51233 10.3808 4.3025C10.4679 4.0925 10.5987 3.90067 10.773 3.727L12 2.5L13.2258 3.72575C13.4009 3.90092 13.5321 4.09333 13.6193 4.303C13.7064 4.5125 13.75 4.72992 13.75 4.95525C13.75 5.31592 13.6568 5.62667 13.4703 5.8875C13.2836 6.14833 13.0435 6.37558 12.75 6.56925V8.0385H16.6923C17.1894 8.0385 17.615 8.2155 17.969 8.5695C18.323 8.9235 18.5 9.34908 18.5 9.84625V13.2308H5.5Z" fill="#FEA800"/>
</g>
</svg>
