<svg width="24" height="24" viewBox="0 0 24 24" fill="none" xmlns="http://www.w3.org/2000/svg">
<mask id="mask0_326_5568" style="mask-type:alpha" maskUnits="userSpaceOnUse" x="0" y="0" width="24" height="24">
<rect width="24" height="24" fill="#D9D9D9"/>
</mask>
<g mask="url(#mask0_326_5568)">
<path d="M13.9311 10.7836L18.8257 7.95773C19.2279 7.72552 19.7422 7.86332 19.9744 8.26551L20.0766 8.44256C20.7378 9.58785 20.7624 10.993 20.1417 12.1607C19.3854 13.5833 17.6577 14.1788 16.1856 13.5242L14.0248 12.5634C13.278 12.2313 13.2233 11.1923 13.9311 10.7836Z" fill="#FEA800" stroke="white" stroke-width="0.5"/>
<path d="M12.2305 13.7293V19.3811C12.2305 19.8455 11.854 20.222 11.3896 20.222H11.1851C9.86268 20.222 8.6335 19.5407 7.9326 18.4193C7.07869 17.053 7.42688 15.259 8.72986 14.3114L10.6423 12.9205C11.3033 12.4398 12.2305 12.912 12.2305 13.7293Z" fill="#FEA800" stroke="white" stroke-width="0.5"/>
<path d="M13.9311 12.7473L18.8257 15.5732C19.2279 15.8054 19.3657 16.3196 19.1335 16.7218L19.0313 16.8989C18.3701 18.0442 17.1655 18.768 15.8438 18.8143C14.2337 18.8707 12.8541 17.6722 12.685 16.0699L12.4367 13.7183C12.3508 12.9055 13.2233 12.3386 13.9311 12.7473Z" fill="#FEA800" stroke="white" stroke-width="0.5"/>
<path d="M10.5298 12.7474L5.63521 15.5733C5.23302 15.8055 4.71874 15.6677 4.48654 15.2655L4.38432 15.0885C3.72309 13.9432 3.6985 12.538 4.31925 11.3703C5.0755 9.94769 6.80321 9.35224 8.27538 10.0068L10.4361 10.9676C11.1829 11.2997 11.2376 12.3388 10.5298 12.7474Z" fill="#FEA800" stroke="white" stroke-width="0.5"/>
<path d="M10.5293 10.7835L5.63472 7.9576C5.23253 7.72539 5.09473 7.21112 5.32694 6.80893L5.42915 6.63188C6.09039 5.48659 7.29498 4.76273 8.61663 4.71645C10.2268 4.66007 11.6063 5.85859 11.7755 7.46082L12.0238 9.81247C12.1096 10.6252 11.2371 11.1921 10.5293 10.7835Z" fill="#FEA800" stroke="white" stroke-width="0.5"/>
<path d="M12.2305 9.80174V4.14994C12.2305 3.68553 12.6069 3.30906 13.0714 3.30906H13.2758C14.5983 3.30906 15.8274 3.99033 16.5283 5.11177C17.3822 6.47802 17.0341 8.27199 15.7311 9.21962L13.8186 10.6105C13.1577 11.0912 12.2305 10.619 12.2305 9.80174Z" fill="#FEA800" stroke="white" stroke-width="0.5"/>
</g>
</svg>
