<svg width="24" height="24" viewBox="0 0 24 24" fill="none" xmlns="http://www.w3.org/2000/svg">
<mask id="mask0_326_5586" style="mask-type:alpha" maskUnits="userSpaceOnUse" x="0" y="0" width="24" height="24">
<rect width="24" height="24" fill="#D9D9D9"/>
</mask>
<g mask="url(#mask0_326_5586)">
<path d="M12 21.5C10.6167 21.5 9.31667 21.2375 8.1 20.7125C6.88333 20.1875 5.825 19.475 4.925 18.575C4.025 17.675 3.3125 16.6167 2.7875 15.4C2.2625 14.1833 2 12.8833 2 11.5C2 10.1167 2.2625 8.81667 2.7875 7.6C3.3125 6.38333 4.025 5.325 4.925 4.425C5.825 3.525 6.88333 2.8125 8.1 2.2875C9.31667 1.7625 10.6167 1.5 12 1.5C13.3833 1.5 14.6833 1.7625 15.9 2.2875C17.1167 2.8125 18.175 3.525 19.075 4.425C19.975 5.325 20.6875 6.38333 21.2125 7.6C21.7375 8.81667 22 10.1167 22 11.5C22 12.8833 21.7375 14.1833 21.2125 15.4C20.6875 16.6167 19.975 17.675 19.075 18.575C18.175 19.475 17.1167 20.1875 15.9 20.7125C14.6833 21.2375 13.3833 21.5 12 21.5ZM17 9L18.35 8.55L18.75 7.2C18.2167 6.4 17.575 5.7125 16.825 5.1375C16.075 4.5625 15.25 4.13333 14.35 3.85L13 4.8V6.2L17 9ZM7 9L11 6.2V4.8L9.65 3.85C8.75 4.13333 7.925 4.5625 7.175 5.1375C6.425 5.7125 5.78333 6.4 5.25 7.2L5.65 8.55L7 9ZM5.95 16.7L7.1 16.6L7.85 15.25L6.4 10.9L5 10.4L4 11.15C4 12.2333 4.15 13.2208 4.45 14.1125C4.75 15.0042 5.25 15.8667 5.95 16.7ZM12 19.5C12.4333 19.5 12.8583 19.4667 13.275 19.4C13.6917 19.3333 14.1 19.2333 14.5 19.1L15.2 17.6L14.55 16.5H9.45L8.8 17.6L9.5 19.1C9.9 19.2333 10.3083 19.3333 10.725 19.4C11.1417 19.4667 11.5667 19.5 12 19.5ZM9.75 14.5H14.25L15.65 10.5L12 7.95L8.4 10.5L9.75 14.5ZM18.05 16.7C18.75 15.8667 19.25 15.0042 19.55 14.1125C19.85 13.2208 20 12.2333 20 11.15L19 10.45L17.6 10.9L16.15 15.25L16.9 16.6L18.05 16.7Z" fill="#FEA800"/>
<path d="M5.95 16.7L7.1 16.6L7.85 15.25L6.4 10.9L5 10.4L4 11.15C4 12.2333 4.15 13.2208 4.45 14.1125C4.75 15.0042 5.25 15.8667 5.95 16.7Z" fill="white"/>
<path d="M9.75 14.5H14.25L15.65 10.5L12 7.95L8.4 10.5L9.75 14.5Z" fill="white"/>
<path d="M12 19.5C12.4333 19.5 12.8583 19.4667 13.275 19.4C13.6917 19.3333 14.1 19.2333 14.5 19.1L15.2 17.6L14.55 16.5H9.45L8.8 17.6L9.5 19.1C9.9 19.2333 10.3083 19.3333 10.725 19.4C11.1417 19.4667 11.5667 19.5 12 19.5Z" fill="white"/>
<path d="M7 9L11 6.2V4.8L9.65 3.85C8.75 4.13333 7.925 4.5625 7.175 5.1375C6.425 5.7125 5.78333 6.4 5.25 7.2L5.65 8.55L7 9Z" fill="white"/>
<path d="M17 9L18.35 8.55L18.75 7.2C18.2167 6.4 17.575 5.7125 16.825 5.1375C16.075 4.5625 15.25 4.13333 14.35 3.85L13 4.8V6.2L17 9Z" fill="white"/>
<path d="M18.05 16.7C18.75 15.8667 19.25 15.0042 19.55 14.1125C19.85 13.2208 20 12.2333 20 11.15L19 10.45L17.6 10.9L16.15 15.25L16.9 16.6L18.05 16.7Z" fill="white"/>
</g>
</svg>
