<svg width="24" height="24" viewBox="0 0 24 24" fill="none" xmlns="http://www.w3.org/2000/svg">
<path d="M1 4.125V7.5H23V4.125C23 1.725 21.1667 1.04167 20.25 1H3.875C1.675 1 1.04167 3.08333 1 4.125Z" fill="#FEA800"/>
<path d="M1 20.125V9.875H23V20.125C23 22.125 21.0833 22.875 20.125 23H3.875C1.875 23 1.125 21.0833 1 20.125Z" fill="#FEA800"/>
<path d="M7.625 14.5C8.24632 14.5 8.75 15.0037 8.75 15.625L8.75 18.625C8.75 19.2463 8.24632 19.75 7.625 19.75C7.00368 19.75 6.5 19.2463 6.5 18.625L6.5 15.625C6.5 15.0037 7.00368 14.5 7.625 14.5Z" fill="white"/>
<path d="M11.875 12.25C12.4963 12.25 13 12.7537 13 13.375L13 18.625C13 19.2463 12.4963 19.75 11.875 19.75C11.2537 19.75 10.75 19.2463 10.75 18.625L10.75 13.375C10.75 12.7537 11.2537 12.25 11.875 12.25Z" fill="white"/>
<path d="M16.375 14.5C16.9963 14.5 17.5 15.0037 17.5 15.625L17.5 18.625C17.5 19.2463 16.9963 19.75 16.375 19.75C15.7537 19.75 15.25 19.2463 15.25 18.625L15.25 15.625C15.25 15.0037 15.7537 14.5 16.375 14.5Z" fill="white"/>
<path d="M19.75 4.125C19.75 4.74632 19.2463 5.25 18.625 5.25L15.625 5.25C15.0037 5.25 14.5 4.74632 14.5 4.125C14.5 3.50368 15.0037 3 15.625 3L18.625 3C19.2463 3 19.75 3.50368 19.75 4.125Z" fill="white"/>
</svg>
