<svg width="24" height="24" viewBox="0 0 24 24" fill="none" xmlns="http://www.w3.org/2000/svg">
<g opacity="0.3">
<g clip-path="url(#clip0_326_5613)">
<path d="M1.10269 9.907C2.64574 13.7646 1.74563 16.3656 1.10269 17.1838C2.78601 18.5165 4.84341 17.5638 5.66169 16.9208C16.0071 19.814 17.6729 11.1344 17.4099 7.89052C17.1468 4.64662 12.2372 -1.05211 6.10005 1.75342C1.19037 3.99784 0.722778 8.12432 1.10269 9.907Z" fill="#573353"/>
<path d="M18.2866 22.0059C13.7977 23.6892 10.3376 21.9474 9.16861 20.8661C15.29 20.252 19.79 17.1838 21.0921 9.29329C22.8456 11.3974 23.3716 13.6769 22.4072 17.0085C21.6357 19.6738 22.2611 21.8013 22.6702 22.5319C20.8466 23.584 18.988 22.6196 18.2866 22.0059Z" fill="#573353"/>
<path d="M1.10269 9.907C2.64574 13.7646 1.74563 16.3656 1.10269 17.1838C2.78601 18.5165 4.84341 17.5638 5.66169 16.9208C16.0071 19.814 17.6729 11.1344 17.4099 7.89052C17.1468 4.64662 12.2372 -1.05211 6.10005 1.75342C1.19037 3.99784 0.722778 8.12432 1.10269 9.907Z" stroke="#573353" stroke-linecap="round"/>
<path d="M18.2866 22.0059C13.7977 23.6892 10.3376 21.9474 9.16861 20.8661C15.29 20.252 19.79 17.1838 21.0921 9.29329C22.8456 11.3974 23.3716 13.6769 22.4072 17.0085C21.6357 19.6738 22.2611 21.8013 22.6702 22.5319C20.8466 23.584 18.988 22.6196 18.2866 22.0059Z" stroke="#573353" stroke-linecap="round"/>
<circle cx="5.22333" cy="9.38095" r="0.61371" fill="white"/>
<circle cx="9.25629" cy="9.38095" r="0.61371" fill="white"/>
<circle cx="13.2895" cy="9.3808" r="0.61371" fill="white"/>
</g>
</g>
<defs>
<clipPath id="clip0_326_5613">
<rect width="24" height="24" fill="white"/>
</clipPath>
</defs>
</svg>
