<svg width="24" height="24" viewBox="0 0 24 24" fill="none" xmlns="http://www.w3.org/2000/svg">
<g opacity="0.3">
<path fill-rule="evenodd" clip-rule="evenodd" d="M7.49997 3.30008C7.49997 3.15865 7.49997 3.08794 7.45604 3.04401C7.4121 3.00008 7.34139 3.00008 7.19997 3.00008H7C5.11438 3.00008 4.17157 3.00008 3.58579 3.58586C3 4.17165 3 5.11446 3 7.00008V19C3 20.8857 3 21.8285 3.58579 22.4142C4.17157 23 5.11438 23 7 23H17.6666C19.5522 23 20.4951 23 21.0808 22.4142C21.6666 21.8285 21.6666 20.8857 21.6666 19V7.00008C21.6666 5.11446 21.6666 4.17165 21.0808 3.58586C20.4951 3.00008 19.5522 3.00008 17.6666 3.00008H17.4666C17.3252 3.00008 17.2545 3.00008 17.2106 3.04401C17.1666 3.08794 17.1666 3.15865 17.1666 3.30008V4.99995C17.1666 5.82837 16.4951 6.49995 15.6666 6.49995C14.8382 6.49995 14.1666 5.82837 14.1666 4.99995V3.30008C14.1666 3.15865 14.1666 3.08794 14.1227 3.04401C14.0788 3.00008 14.008 3.00008 13.8666 3.00008H10.8C10.6586 3.00008 10.5878 3.00008 10.5439 3.04401C10.5 3.08794 10.5 3.15865 10.5 3.30008V4.99995C10.5 5.82837 9.8284 6.49995 8.99997 6.49995C8.17154 6.49995 7.49997 5.82837 7.49997 4.99995V3.30008Z" fill="#573353"/>
<path d="M9 1V4.99999" stroke="#573353" stroke-linecap="round"/>
<path d="M15.667 1V4.99999" stroke="#573353" stroke-linecap="round"/>
<path d="M9 10.3333L15.6667 10.3333" stroke="white" stroke-linecap="round"/>
<path d="M9 14.3332L15.6667 14.3332" stroke="white" stroke-linecap="round"/>
<path d="M9 18.3334L15.6667 18.3334" stroke="white" stroke-linecap="round"/>
</g>
</svg>
