<svg width="24" height="24" viewBox="0 0 24 24" fill="none" xmlns="http://www.w3.org/2000/svg">
<g opacity="0.3">
<mask id="mask0_326_5621" style="mask-type:alpha" maskUnits="userSpaceOnUse" x="0" y="0" width="24" height="24">
<rect width="24" height="24" fill="#D9D9D9"/>
</mask>
<g mask="url(#mask0_326_5621)">
<path d="M13.9423 9.74624V8.43074C14.4859 8.17824 15.0548 7.98883 15.649 7.86249C16.2433 7.73616 16.8603 7.67299 17.5 7.67299C17.9013 7.67299 18.2911 7.70158 18.6693 7.75874C19.0474 7.81574 19.4269 7.89108 19.8078 7.98474V9.23849C19.4334 9.10766 19.0613 9.01274 18.6913 8.95374C18.3214 8.89474 17.9243 8.86524 17.5 8.86524C16.8603 8.86524 16.2408 8.94124 15.6413 9.09324C15.0419 9.24524 14.4756 9.46291 13.9423 9.74624ZM13.9423 15.227V13.8922C14.4731 13.6397 15.0404 13.4503 15.6443 13.324C16.2481 13.1978 16.8667 13.1347 17.5 13.1347C17.9013 13.1347 18.2911 13.1632 18.6693 13.2202C19.0474 13.2772 19.4269 13.3526 19.8078 13.4462V14.7C19.4334 14.5692 19.0613 14.4742 18.6913 14.4152C18.3214 14.3564 17.9243 14.327 17.5 14.327C16.8603 14.327 16.2408 14.4036 15.6413 14.5567C15.0419 14.7099 14.4756 14.9333 13.9423 15.227ZM13.9423 12.4962V11.1615C14.4859 10.909 15.0548 10.7196 15.649 10.5932C16.2433 10.4669 16.8603 10.4037 17.5 10.4037C17.9013 10.4037 18.2911 10.4323 18.6693 10.4895C19.0474 10.5465 19.4269 10.6218 19.8078 10.7155V11.9692C19.4334 11.8384 19.0613 11.7435 18.6913 11.6845C18.3214 11.6257 17.9243 11.5962 17.5 11.5962C16.8603 11.5962 16.2408 11.6754 15.6413 11.8337C15.0419 11.9921 14.4756 12.2129 13.9423 12.4962ZM12.75 17.1847C13.5218 16.7834 14.2994 16.4888 15.0828 16.301C15.8661 16.1132 16.6718 16.0192 17.5 16.0192C18.1 16.0192 18.6635 16.0628 19.1905 16.15C19.7173 16.2372 20.2179 16.3615 20.6923 16.523C20.7693 16.5552 20.8398 16.5504 20.9038 16.5087C20.9679 16.4671 21 16.4013 21 16.3115V6.85374C21 6.79608 20.984 6.74483 20.952 6.69999C20.9198 6.65516 20.8653 6.61666 20.7885 6.58449C20.2385 6.37049 19.7029 6.21633 19.1818 6.12199C18.6606 6.02783 18.1 5.98074 17.5 5.98074C16.6718 5.98074 15.8487 6.09516 15.0307 6.32399C14.2127 6.55283 13.4525 6.89608 12.75 7.35374V17.1847ZM12 19.3845C11.1937 18.7897 10.3238 18.3301 9.3905 18.0057C8.45717 17.6814 7.49367 17.5192 6.5 17.5192C5.88983 17.5192 5.2905 17.5868 4.702 17.722C4.1135 17.8573 3.54617 18.0564 3 18.3192C2.64367 18.4832 2.30458 18.4572 1.98275 18.2412C1.66092 18.0252 1.5 17.7192 1.5 17.323V6.46549C1.5 6.24999 1.5555 6.04774 1.6665 5.85874C1.77733 5.66958 1.93725 5.53333 2.14625 5.44999C2.83342 5.13083 3.54142 4.88949 4.27025 4.72599C4.99908 4.56249 5.74233 4.48074 6.5 4.48074C7.473 4.48074 8.42367 4.61374 9.352 4.87974C10.2802 5.14591 11.1628 5.53858 12 6.05774C12.8372 5.53858 13.7198 5.14591 14.648 4.87974C15.5763 4.61374 16.527 4.48074 17.5 4.48074C18.2577 4.48074 19.0009 4.56249 19.7297 4.72599C20.4586 4.88949 21.1666 5.13083 21.8538 5.44999C22.0628 5.53333 22.2227 5.66958 22.3335 5.85874C22.4445 6.04774 22.5 6.24999 22.5 6.46549V17.323C22.5 17.7192 22.3327 18.0221 21.998 18.2317C21.6633 18.4412 21.3114 18.464 20.9423 18.3C20.4026 18.0435 19.8433 17.8492 19.2645 17.7172C18.6857 17.5852 18.0975 17.5192 17.5 17.5192C16.5063 17.5192 15.5428 17.6814 14.6095 18.0057C13.6762 18.3301 12.8063 18.7897 12 19.3845Z" fill="#573353"/>
</g>
</g>
</svg>
