<svg width="32" height="32" viewBox="0 0 32 32" fill="none" xmlns="http://www.w3.org/2000/svg">
<rect width="32" height="32" rx="8" fill="#FFF3E9"/>
<mask id="mask0_326_5509" style="mask-type:alpha" maskUnits="userSpaceOnUse" x="4" y="4" width="24" height="24">
<rect x="4" y="4" width="24" height="24" fill="#D9D9D9"/>
</mask>
<g mask="url(#mask0_326_5509)">
<path d="M16 8V6.5H25.5V8H16ZM16 11.6923V10.1923H25.5V11.6923H16ZM16 15.3845V13.8845H25.5V15.3845H16ZM22.4402 25.5C20.5557 25.5 18.6625 25.0618 16.7605 24.1855C14.8587 23.3092 13.1097 22.073 11.5135 20.477C9.92383 18.8808 8.69083 17.1333 7.8145 15.2345C6.93817 13.3358 6.5 11.4443 6.5 9.55975C6.5 9.25975 6.6 9.00808 6.8 8.80475C7 8.60158 7.25 8.5 7.55 8.5H10.8115C11.064 8.5 11.2868 8.58242 11.4798 8.74725C11.6728 8.91192 11.7955 9.11542 11.848 9.35775L12.4213 12.3C12.4609 12.573 12.4526 12.8076 12.3963 13.0038C12.3398 13.1999 12.2384 13.3647 12.0923 13.498L9.78275 15.7463C10.1544 16.4269 10.5791 17.0708 11.0567 17.678C11.5342 18.285 12.0512 18.8648 12.6077 19.4173C13.1564 19.9661 13.7397 20.4757 14.3577 20.9462C14.9757 21.4167 15.6431 21.8546 16.3598 22.2598L18.6038 19.9962C18.7603 19.8334 18.9498 19.7193 19.1723 19.6538C19.3946 19.5884 19.6257 19.5724 19.8655 19.6058L22.6423 20.1712C22.8948 20.2379 23.1008 20.3667 23.2605 20.5577C23.4202 20.7487 23.5 20.9654 23.5 21.2078V24.45C23.5 24.75 23.3984 25 23.1952 25.2C22.9919 25.4 22.7402 25.5 22.4402 25.5Z" fill="#FEA800"/>
</g>
</svg>
