<svg width="32" height="32" viewBox="0 0 32 32" fill="none" xmlns="http://www.w3.org/2000/svg">
<rect width="32" height="32" rx="4" fill="#C7A9FD"/>
<mask id="mask0_326_5539" style="mask-type:alpha" maskUnits="userSpaceOnUse" x="4" y="4" width="24" height="24">
<rect x="4" y="4" width="24" height="24" fill="#D9D9D9"/>
</mask>
<g mask="url(#mask0_326_5539)">
<path d="M10 23.6153C9.55585 23.6153 9.1756 23.4571 8.85927 23.1408C8.54293 22.8244 8.38477 22.4442 8.38477 22C8.38477 21.5558 8.54293 21.1756 8.85927 20.8593C9.1756 20.5429 9.55585 20.3848 10 20.3848C10.4442 20.3848 10.8244 20.5429 11.1408 20.8593C11.4571 21.1756 11.6153 21.5558 11.6153 22C11.6153 22.4442 11.4571 22.8244 11.1408 23.1408C10.8244 23.4571 10.4442 23.6153 10 23.6153ZM10 17.6153C9.55585 17.6153 9.1756 17.4571 8.85927 17.1408C8.54293 16.8244 8.38477 16.4442 8.38477 16C8.38477 15.5558 8.54293 15.1756 8.85927 14.8593C9.1756 14.5429 9.55585 14.3848 10 14.3848C10.4442 14.3848 10.8244 14.5429 11.1408 14.8593C11.4571 15.1756 11.6153 15.5558 11.6153 16C11.6153 16.4442 11.4571 16.8244 11.1408 17.1408C10.8244 17.4571 10.4442 17.6153 10 17.6153ZM10 11.6153C9.55585 11.6153 9.1756 11.4571 8.85927 11.1408C8.54293 10.8244 8.38477 10.4442 8.38477 10C8.38477 9.55585 8.54293 9.1756 8.85927 8.85927C9.1756 8.54293 9.55585 8.38477 10 8.38477C10.4442 8.38477 10.8244 8.54293 11.1408 8.85927C11.4571 9.1756 11.6153 9.55585 11.6153 10C11.6153 10.4442 11.4571 10.8244 11.1408 11.1408C10.8244 11.4571 10.4442 11.6153 10 11.6153ZM16 11.6153C15.5558 11.6153 15.1756 11.4571 14.8593 11.1408C14.5429 10.8244 14.3848 10.4442 14.3848 10C14.3848 9.55585 14.5429 9.1756 14.8593 8.85927C15.1756 8.54293 15.5558 8.38477 16 8.38477C16.4442 8.38477 16.8244 8.54293 17.1408 8.85927C17.4571 9.1756 17.6153 9.55585 17.6153 10C17.6153 10.4442 17.4571 10.8244 17.1408 11.1408C16.8244 11.4571 16.4442 11.6153 16 11.6153ZM22 11.6153C21.5558 11.6153 21.1756 11.4571 20.8593 11.1408C20.5429 10.8244 20.3848 10.4442 20.3848 10C20.3848 9.55585 20.5429 9.1756 20.8593 8.85927C21.1756 8.54293 21.5558 8.38477 22 8.38477C22.4442 8.38477 22.8244 8.54293 23.1408 8.85927C23.4571 9.1756 23.6153 9.55585 23.6153 10C23.6153 10.4442 23.4571 10.8244 23.1408 11.1408C22.8244 11.4571 22.4442 11.6153 22 11.6153ZM16 17.6153C15.5558 17.6153 15.1756 17.4571 14.8593 17.1408C14.5429 16.8244 14.3848 16.4442 14.3848 16C14.3848 15.5558 14.5429 15.1756 14.8593 14.8593C15.1756 14.5429 15.5558 14.3848 16 14.3848C16.4442 14.3848 16.8244 14.5429 17.1408 14.8593C17.4571 15.1756 17.6153 15.5558 17.6153 16C17.6153 16.4442 17.4571 16.8244 17.1408 17.1408C16.8244 17.4571 16.4442 17.6153 16 17.6153ZM17.1155 23.6153V20.973L22.5443 15.5693C22.6686 15.4449 22.8028 15.3574 22.947 15.3068C23.0912 15.2561 23.2353 15.2308 23.3795 15.2308C23.5367 15.2308 23.6888 15.2603 23.8358 15.3193C23.9828 15.3783 24.1163 15.4668 24.2365 15.5848L25.1615 16.5193C25.2692 16.6436 25.3525 16.7782 25.4115 16.923C25.4705 17.068 25.5 17.2129 25.5 17.3578C25.5 17.5026 25.4731 17.65 25.4193 17.8C25.3654 17.95 25.2795 18.0872 25.1615 18.2115L19.7578 23.6153H17.1155ZM18.3078 22.423H19.2578L22.5038 19.1615L22.0443 18.6865L21.5788 18.2173L18.3078 21.473V22.423ZM22.0443 18.6865L21.5788 18.2173L22.5038 19.1615L22.0443 18.6865Z" fill="white"/>
</g>
</svg>
