<svg width="32" height="32" viewBox="0 0 32 32" fill="none" xmlns="http://www.w3.org/2000/svg">
<rect width="32" height="32" rx="4" fill="#94C5EA"/>
<mask id="mask0_326_5544" style="mask-type:alpha" maskUnits="userSpaceOnUse" x="4" y="4" width="24" height="24">
<rect x="4" y="4" width="24" height="24" fill="#D9D9D9"/>
</mask>
<g mask="url(#mask0_326_5544)">
<path d="M18.9079 23.5C16.8131 23.5 15.0387 22.773 13.5847 21.319C12.1309 19.8652 11.4039 18.0907 11.4039 15.9957C11.4039 13.9166 12.1309 12.1475 13.5847 10.6885C15.0387 9.2295 16.8131 8.5 18.9079 8.5C20.9873 8.5 22.7564 9.2295 24.2152 10.6885C25.6742 12.1475 26.4037 13.9166 26.4037 15.9957C26.4037 18.0907 25.6742 19.8652 24.2152 21.319C22.7564 22.773 20.9873 23.5 18.9079 23.5ZM18.9037 22C20.5704 22 21.987 21.4167 23.1537 20.25C24.3204 19.0833 24.9037 17.6667 24.9037 16C24.9037 14.3333 24.3204 12.9167 23.1537 11.75C21.987 10.5833 20.5704 10 18.9037 10C17.237 10 15.8204 10.5833 14.6537 11.75C13.487 12.9167 12.9037 14.3333 12.9037 16C12.9037 17.6667 13.487 19.0833 14.6537 20.25C15.8204 21.4167 17.237 22 18.9037 22ZM21.2749 19.4653L22.3442 18.3963L19.6537 15.7058V12.1538H18.1537V16.3192L21.2749 19.4653ZM6.59619 12.75V11.25H10.4039V12.75H6.59619ZM5.59619 16.75V15.25H10.4039V16.75H5.59619ZM6.59619 20.75V19.25H10.4039V20.75H6.59619Z" fill="white"/>
</g>
</svg>
