<svg width="40" height="40" viewBox="0 0 40 40" fill="none" xmlns="http://www.w3.org/2000/svg">
<circle cx="20" cy="20" r="20" fill="#573353" fill-opacity="0.1"/>
<mask id="mask0_326_5499" style="mask-type:alpha" maskUnits="userSpaceOnUse" x="8" y="8" width="24" height="24">
<rect x="8" y="8" width="24" height="24" fill="#D9D9D9"/>
</mask>
<g mask="url(#mask0_326_5499)">
<path d="M27.0539 28.6624L20.9302 22.5384C20.4427 22.9409 19.882 23.2559 19.2483 23.4834C18.6145 23.7109 17.9589 23.8247 17.2815 23.8247C15.615 23.8247 14.2047 23.2477 13.0504 22.0938C11.8962 20.9399 11.3191 19.5299 11.3191 17.8637C11.3191 16.1978 11.896 14.7873 13.05 13.6322C14.2039 12.4773 15.6139 11.8999 17.28 11.8999C18.946 11.8999 20.3565 12.477 21.5115 13.6313C22.6664 14.7855 23.2438 16.1958 23.2438 17.8623C23.2438 18.5586 23.127 19.2236 22.8933 19.8574C22.6595 20.4911 22.3476 21.0423 21.9576 21.511L28.0813 27.6347L27.0539 28.6624ZM17.2815 22.3624C18.5378 22.3624 19.6018 21.9264 20.4736 21.0544C21.3456 20.1826 21.7816 19.1186 21.7816 17.8623C21.7816 16.606 21.3456 15.5419 20.4736 14.6701C19.6018 13.7981 18.5378 13.3622 17.2815 13.3622C16.0252 13.3622 14.9611 13.7981 14.0893 14.6701C13.2173 15.5419 12.7813 16.606 12.7813 17.8623C12.7813 19.1186 13.2173 20.1826 14.0893 21.0544C14.9611 21.9264 16.0252 22.3624 17.2815 22.3624Z" fill="#573353"/>
</g>
</svg>
