<svg width="32" height="32" viewBox="0 0 32 32" fill="none" xmlns="http://www.w3.org/2000/svg">
<rect width="32" height="32" rx="4" fill="#FEA800"/>
<mask id="mask0_326_5534" style="mask-type:alpha" maskUnits="userSpaceOnUse" x="4" y="4" width="24" height="24">
<rect x="4" y="4" width="24" height="24" fill="#D9D9D9"/>
</mask>
<g mask="url(#mask0_326_5534)">
<path d="M6.47119 23.3078V21.0845C6.47119 20.5538 6.60486 20.0901 6.87219 19.6933C7.13936 19.2964 7.49411 18.9858 7.93644 18.7615C8.78644 18.3282 9.68386 17.9776 10.6287 17.7098C11.5737 17.4418 12.6879 17.3078 13.9712 17.3078C14.4712 17.3078 14.9362 17.3279 15.3662 17.3683C15.7964 17.4086 16.198 17.4692 16.5712 17.55L15.2442 18.877C15.0609 18.8437 14.8624 18.8238 14.6489 18.8173C14.4354 18.8109 14.2095 18.8078 13.9712 18.8078C12.7879 18.8078 11.7509 18.9398 10.8604 19.2038C9.97011 19.4679 9.22494 19.7667 8.62494 20.1C8.39794 20.2218 8.23227 20.3642 8.12794 20.527C8.02344 20.6898 7.97119 20.8757 7.97119 21.0845V21.8078H14.0287L15.5287 23.3078H6.47119ZM19.4249 24.0538L16.3212 20.95L17.3749 19.8963L19.4249 21.9463L24.4749 16.8963L25.5287 17.95L19.4249 24.0538ZM13.9712 15.6923C13.0087 15.6923 12.1847 15.3496 11.4992 14.6643C10.8139 13.9788 10.4712 13.1548 10.4712 12.1923C10.4712 11.2298 10.8139 10.4058 11.4992 9.72051C12.1847 9.03501 13.0087 8.69226 13.9712 8.69226C14.9337 8.69226 15.7576 9.03501 16.4429 9.72051C17.1283 10.4058 17.4709 11.2298 17.4709 12.1923C17.4709 13.1548 17.1283 13.9788 16.4429 14.6643C15.7576 15.3496 14.9337 15.6923 13.9712 15.6923ZM13.9712 14.1923C14.5212 14.1923 14.992 13.9964 15.3837 13.6048C15.7754 13.2131 15.9712 12.7423 15.9712 12.1923C15.9712 11.6423 15.7754 11.1714 15.3837 10.7798C14.992 10.3881 14.5212 10.1923 13.9712 10.1923C13.4212 10.1923 12.9504 10.3881 12.5587 10.7798C12.167 11.1714 11.9712 11.6423 11.9712 12.1923C11.9712 12.7423 12.167 13.2131 12.5587 13.6048C12.9504 13.9964 13.4212 14.1923 13.9712 14.1923Z" fill="white"/>
</g>
</svg>
