<svg width="32" height="32" viewBox="0 0 32 32" fill="none" xmlns="http://www.w3.org/2000/svg">
<rect width="32" height="32" rx="8" fill="#FFF3E9"/>
<mask id="mask0_326_5504" style="mask-type:alpha" maskUnits="userSpaceOnUse" x="4" y="4" width="24" height="24">
<rect x="4" y="4" width="24" height="24" fill="#D9D9D9"/>
</mask>
<g mask="url(#mask0_326_5504)">
<path d="M8.3655 25.5C8.12033 25.5 7.91475 25.4138 7.74875 25.2413C7.58292 25.0689 7.5 24.8602 7.5 24.6152V20.5385C7.5 20.0413 7.677 19.6158 8.031 19.2618C8.385 18.9078 8.81058 18.7308 9.30775 18.7308H22.6923C23.1894 18.7308 23.615 18.9078 23.969 19.2618C24.323 19.6158 24.5 20.0413 24.5 20.5385V24.6152C24.5 24.8602 24.4138 25.0689 24.2413 25.2413C24.0689 25.4138 23.8602 25.5 23.6152 25.5H8.3655ZM9.5 17.2308V13.8462C9.5 13.3491 9.677 12.9235 10.031 12.5695C10.385 12.2155 10.8106 12.0385 11.3077 12.0385H15.25V10.5693C14.9565 10.3756 14.7164 10.1483 14.5298 9.8875C14.3433 9.62667 14.25 9.31592 14.25 8.95525C14.25 8.72992 14.2936 8.51233 14.3808 8.3025C14.4679 8.0925 14.5987 7.90067 14.773 7.727L16 6.5L17.2258 7.72575C17.4009 7.90092 17.5321 8.09333 17.6193 8.303C17.7064 8.5125 17.75 8.72992 17.75 8.95525C17.75 9.31592 17.6568 9.62667 17.4703 9.8875C17.2836 10.1483 17.0435 10.3756 16.75 10.5693V12.0385H20.6923C21.1894 12.0385 21.615 12.2155 21.969 12.5695C22.323 12.9235 22.5 13.3491 22.5 13.8462V17.2308H9.5Z" fill="#FEA800"/>
</g>
</svg>
