<svg width="72" height="72" viewBox="0 0 72 72" fill="none" xmlns="http://www.w3.org/2000/svg">
<path d="M36.5203 0.0222331C36.2249 0.0373807 35.7326 0.0373807 35.4221 0.0222331C35.1116 0.0146593 35.3464 -0.000488281 35.9523 -0.000488281C36.5582 -0.000488281 36.8157 0.0146593 36.5203 0.0222331Z" fill="#CAE7E8" fill-opacity="0.3"/>
<path d="M32.3562 0.241936C33.0227 0.173758 33.7573 0.113156 33.9846 0.0980051C34.2118 0.0828545 35.0146 0.0677039 35.7644 0.0601285C36.5142 0.0525532 37.62 0.0828545 38.2259 0.120731C38.8318 0.166183 39.6497 0.234361 40.0436 0.279813C40.4374 0.325265 41.3387 0.454045 42.0506 0.57525C42.7626 0.696455 43.8987 0.938865 44.5879 1.10552C45.2771 1.27975 46.3677 1.59034 47.0115 1.80245C47.6553 2.00699 48.6929 2.38575 49.3215 2.63574C49.9425 2.88572 51.0029 3.35539 51.6694 3.68113C52.3359 4.00687 53.2902 4.50684 53.79 4.7947C54.2899 5.08256 55.1079 5.59011 55.6077 5.91585C56.1076 6.24916 56.9786 6.86276 57.5391 7.28698C58.0995 7.7112 58.9554 8.39298 59.4325 8.80204C59.9097 9.21869 60.7807 10.0292 61.3638 10.6125C61.947 11.1958 62.7574 12.067 63.174 12.5443C63.583 13.0215 64.2646 13.8775 64.6887 14.4381C65.1129 14.9987 65.7263 15.8698 66.0596 16.3698C66.3853 16.8698 66.8927 17.6879 67.1805 18.1879C67.4683 18.6878 67.9682 19.6423 68.2939 20.309C68.6195 20.9756 69.0891 22.0285 69.339 22.6573C69.589 23.2785 69.9601 24.3239 70.1722 24.9678C70.3842 25.6117 70.672 26.6192 70.8235 27.2025C70.9674 27.7858 71.1719 28.7176 71.2779 29.263C71.384 29.816 71.543 30.7932 71.6263 31.4219C71.7021 32.0583 71.8081 33.1794 71.8611 33.9066C71.9141 34.7172 71.9293 35.8762 71.899 36.8989C71.8763 37.8155 71.8081 39.0276 71.7475 39.5881C71.6869 40.1487 71.5809 40.9668 71.5127 41.4062C71.4521 41.8456 71.2931 42.7092 71.1643 43.3379C71.0356 43.9591 70.7478 45.103 70.5281 45.8756C70.3085 46.6483 69.9449 47.7543 69.7329 48.3376C69.5132 48.9209 69.1648 49.7921 68.9528 50.2693C68.7483 50.7466 68.3923 51.5193 68.1575 51.9738C67.9303 52.4283 67.5213 53.201 67.2487 53.6782C66.9836 54.1555 66.4686 54.9963 66.1126 55.5342C65.7642 56.072 65.1432 56.9659 64.7342 57.5038C64.3252 58.0416 63.7647 58.7613 63.4845 59.0946C63.2118 59.4279 62.5681 60.14 62.0606 60.6778C61.5532 61.2232 60.7276 62.0338 60.2278 62.4883C59.7279 62.9428 58.8948 63.6625 58.3722 64.0791C57.8496 64.4882 57.0013 65.1321 56.4787 65.4957C55.9561 65.8593 55.0018 66.4729 54.3581 66.8593C53.7143 67.2532 52.5404 67.8895 51.7451 68.2759C50.9499 68.6622 49.7911 69.1849 49.17 69.4273C48.5414 69.6697 47.5038 70.0409 46.86 70.253C46.2162 70.4651 45.1938 70.753 44.5879 70.9045C43.982 71.0484 43.0277 71.253 42.4672 71.359C41.9067 71.4651 41.0509 71.5938 40.5738 71.662C40.0966 71.7226 39.1726 71.8135 38.5288 71.8666C37.7866 71.9196 36.5748 71.9423 35.2342 71.912C34.0527 71.8893 32.644 71.8135 32.0532 71.7454C31.47 71.6772 30.5006 71.5408 29.8947 71.4348C29.2888 71.3287 28.3042 71.1242 27.6983 70.9802C27.0924 70.8363 26.1381 70.5788 25.5776 70.4121C25.0172 70.2379 24.0932 69.9273 23.5327 69.7227C22.9722 69.5106 22.0179 69.1243 21.412 68.8516C20.8061 68.5864 19.8897 68.1395 19.3671 67.8668C18.8445 67.5865 18.0796 67.1623 17.663 66.9123C17.2465 66.6623 16.4285 66.132 15.8453 65.7381C15.2621 65.3442 14.429 64.7458 13.9973 64.4049C13.5656 64.0716 12.7931 63.4277 12.2932 62.9883C11.7857 62.5489 10.8617 61.6626 10.2407 61.0187C9.61206 60.3748 8.86226 59.5642 8.56688 59.2082C8.2715 58.8522 7.76406 58.2234 7.43838 57.8068C7.11271 57.3901 6.49923 56.519 6.06752 55.8751C5.64339 55.2312 5.06021 54.307 4.78755 53.8297C4.50732 53.3525 3.99988 52.3828 3.65148 51.6708C3.31066 50.9587 2.84866 49.936 2.62902 49.3982C2.40938 48.8603 2.05341 47.868 1.83377 47.2013C1.61413 46.5347 1.27331 45.3605 1.08396 44.5878C0.89462 43.8152 0.652258 42.694 0.553799 42.088C0.447765 41.482 0.303863 40.4744 0.228125 39.8533C0.122092 38.9594 0.0917969 38.1261 0.0917969 35.9899C0.0917969 33.8385 0.122092 33.0355 0.228125 32.1643C0.303863 31.5583 0.432618 30.6568 0.51593 30.1569C0.599241 29.6569 0.773439 28.7706 0.902193 28.1873C1.02337 27.604 1.26574 26.6646 1.43236 26.1041C1.59141 25.5435 1.81862 24.8238 1.92466 24.5133C2.03069 24.2027 2.31092 23.43 2.56086 22.8088C2.80322 22.1801 3.30309 21.0589 3.6742 20.309C4.04532 19.559 4.5149 18.6575 4.71181 18.3015C4.91631 17.9455 5.34044 17.2485 5.65854 16.7486C5.97664 16.2486 6.54467 15.4153 6.92336 14.8926C7.30205 14.3699 7.97612 13.5063 8.43055 12.9609C8.8774 12.4155 9.8317 11.3928 10.5436 10.6807C11.248 9.96864 12.1872 9.08233 12.6264 8.71114C13.0657 8.33995 13.8307 7.72635 14.3305 7.34758C14.8304 6.96882 15.6484 6.38552 16.1483 6.0522C16.6481 5.71889 17.5191 5.18104 18.0796 4.8553C18.64 4.52957 19.5034 4.06747 19.9957 3.82506C20.4805 3.57508 21.3515 3.18116 21.9195 2.93117C22.4951 2.68876 23.4418 2.31757 24.025 2.10546C24.6082 1.90093 25.5776 1.59034 26.1835 1.41611C26.7894 1.24945 27.6529 1.02219 28.1149 0.923715C28.5769 0.81766 29.4403 0.651003 30.0462 0.544949C30.6521 0.44647 31.6897 0.310114 32.3562 0.241936Z" fill="#CAE7E8"/>
<path d="M35.9991 45.5009L36.0748 27.6335L34.5227 26.3843L34.447 26.5357L34.2956 28.0877L32.8193 28.9205L30.7373 29.2234L27.0654 28.9205L25.854 28.0877L22.8635 24.9836L22.2578 26.6871L22.8256 37.2864L35.9991 45.5009Z" fill="#125C73"/>
<path d="M35.6598 45.3116L36.114 28.4574L37.3632 26.3843L37.7039 26.6871L37.8591 29.0658L39.3071 30.1814L41.3492 30.587L44.9507 30.1814L46.1388 29.0658L49.072 24.908L49.666 27.1897L49.2496 39.1413L35.6598 45.3116Z" fill="#114959"/>
<path d="M17.1477 60.6095C17.1401 61.0262 17.125 60.7232 17.125 59.9278C17.125 59.1324 17.1401 58.7915 17.1477 59.1702C17.1629 59.549 17.1629 60.1929 17.1477 60.6095Z" fill="#AEB1B5"/>
<path d="M15.7083 60.8747C15.7007 61.4353 15.6855 61.0111 15.6855 59.9278C15.6855 58.8445 15.7007 58.3824 15.7083 58.9051C15.7234 59.4278 15.7234 60.3141 15.7083 60.8747Z" fill="#6D808D"/>
<path d="M17.8513 57.481C18.0407 57.3446 18.3966 57.1628 18.6466 57.0871C19.0858 56.9507 19.7523 56.9431 55.0387 56.9355V62.92H37.263C24.5769 62.92 19.3509 62.8973 19.0253 62.8367C18.7753 62.7913 18.4345 62.6852 18.2679 62.5943C18.1013 62.511 17.8665 62.3746 17.7529 62.2837C17.6317 62.1928 17.4499 61.9883 17.3514 61.8216C17.1773 61.5262 17.1697 61.4656 17.1697 59.9278C17.1697 58.4203 17.1848 58.3218 17.3439 58.0415C17.4348 57.8749 17.662 57.6249 17.8513 57.481Z" fill="#EFE2D4"/>
<path d="M54.8124 61.5522L54.8198 61.3898C54.8198 61.2762 54.835 61.261 54.8653 61.3292C54.888 61.3898 54.8804 61.4882 54.8577 61.5412C54.8556 61.545 54.842 61.5487 54.8124 61.5522L54.8122 61.5564L54.7665 61.5564C54.0455 61.6115 48.4761 61.6222 18.1172 61.5943L54.7665 61.5564C54.7849 61.555 54.8 61.5536 54.8124 61.5522Z" fill="#E8D9CC"/>
<path d="M36.4831 61.5565C18.2076 61.5565 18.1545 61.5565 18.1545 61.405C18.1545 61.2535 18.2076 61.2535 36.4831 61.2535C54.7587 61.2535 54.8117 61.2535 54.8117 61.405C54.8117 61.5565 54.7587 61.5565 36.4831 61.5565Z" fill="#E2D4C7"/>
<path d="M36.4831 60.5717C18.2076 60.5717 18.1545 60.5717 18.1545 60.4202C18.1545 60.2687 18.2076 60.2687 36.4831 60.2687C54.7587 60.2687 54.8117 60.2687 54.8117 60.4202C54.8117 60.5717 54.7587 60.5717 36.4831 60.5717Z" fill="#E2D4C7"/>
<path d="M36.4991 60.2459L36.4685 60.2459L18.1172 60.2307H54.8501L54.8728 60.3973C54.888 60.5337 54.8804 60.5412 54.8501 60.4201C54.8123 60.2687 54.7441 60.2686 36.4991 60.2459Z" fill="#E8D9CC"/>
<path d="M36.4831 59.5868C18.2076 59.5868 18.1545 59.5868 18.1545 59.4353C18.1545 59.2838 18.2076 59.2838 36.4831 59.2838C54.7587 59.2838 54.8117 59.2838 54.8117 59.4353C54.8117 59.5868 54.7587 59.5868 36.4831 59.5868Z" fill="#E2D4C7"/>
<path d="M36.4991 59.2612L36.4685 59.2611L18.1172 59.246H54.8501L54.8728 59.4126C54.888 59.5489 54.8804 59.5565 54.8501 59.4353C54.8123 59.2839 54.7441 59.2838 36.4991 59.2612Z" fill="#E8D9CC"/>
<path d="M36.4831 58.602C18.2076 58.602 18.1545 58.602 18.1545 58.4505C18.1545 58.2991 18.2076 58.2991 36.4831 58.2991C54.7587 58.2991 54.8117 58.2991 54.8117 58.4505C54.8117 58.602 54.7587 58.602 36.4831 58.602Z" fill="#E2D4C7"/>
<path d="M54.8122 58.299L36.4685 58.2763L18.1172 58.2611L54.888 58.2233L54.8804 58.4278C54.8728 58.602 54.8653 58.6095 54.8122 58.299Z" fill="#E8D9CC"/>
<path d="M47.0484 56.9127C41.9663 56.9279 33.6124 56.9279 28.4926 56.9127C23.3727 56.9052 27.5231 56.8976 37.7326 56.8976C47.9421 56.8976 52.1304 56.9052 47.0484 56.9127Z" fill="#465764"/>
<path d="M16.6844 56.0416C16.8889 55.8598 17.207 55.6704 17.3963 55.6098C17.6841 55.5265 20.9333 55.5038 56.2499 55.4962V56.8598L18.8732 56.8976L18.4566 57.0643C18.2294 57.1552 17.8734 57.3749 17.6765 57.5567C17.4645 57.7461 17.26 58.0112 17.1994 58.1855C17.1085 58.4279 17.0933 58.8142 17.1085 60.049L17.1085 60.0515C17.1312 61.6019 17.1313 61.6097 17.3433 61.9201C17.4569 62.0943 17.7068 62.3443 17.9037 62.4655C18.1082 62.5943 18.4339 62.7458 18.646 62.8064C18.9716 62.9049 21.4559 62.92 56.2499 62.92V64.3593L17.5856 64.3215L17.1691 64.1169C16.9419 64.0109 16.6162 63.7685 16.4571 63.5867C16.2905 63.4124 16.0709 63.0715 15.9648 62.8443C15.768 62.4278 15.7679 62.4201 15.7452 60.082L15.7452 60.0793C15.7301 58.0718 15.7452 57.6703 15.8512 57.3143C15.9194 57.087 16.0482 56.7764 16.1466 56.6325C16.2375 56.4886 16.4799 56.2234 16.6844 56.0416Z" fill="#1A364A"/>
<path d="M55.2659 55.4735C54.7054 55.4887 53.7966 55.4887 53.2588 55.4735C52.7211 55.466 53.1755 55.4508 54.2813 55.4508C55.3871 55.4508 55.8264 55.466 55.2659 55.4735Z" fill="#6D808D"/>
<path d="M44.6245 55.4734C40.4211 55.4885 33.5517 55.4885 29.3633 55.4734C25.175 55.4658 28.6211 55.4583 37.0129 55.4583C45.4047 55.4583 48.828 55.4658 44.6245 55.4734Z" fill="#6D4944"/>
<path d="M20.8049 55.4735C20.3277 55.4887 19.5097 55.4887 18.9871 55.4735C18.4645 55.466 18.8584 55.4508 19.8581 55.4508C20.8579 55.4508 21.282 55.466 20.8049 55.4735Z" fill="#6D808D"/>
<path d="M52.2374 54.0569L37.7563 54.0342L23.2676 54.019H52.2752L52.2828 55.3826L52.2374 54.0569Z" fill="#DAB89A"/>
<path d="M19.7222 52.0494C19.7146 52.6327 19.6995 52.1706 19.6995 51.0267C19.6995 49.8829 19.7146 49.4056 19.7222 49.9662C19.7373 50.5268 19.7373 51.4661 19.7222 52.0494Z" fill="#C78669"/>
<path d="M22.1387 47.9327C22.3053 47.8419 22.5779 47.7182 22.7445 47.6604C22.9793 47.5779 24.1303 47.5532 32.2481 47.5449L32.3314 47.7347C32.3768 47.8337 32.4904 47.9987 32.5813 48.1059C32.6797 48.2215 32.8311 48.2957 32.9675 48.2957C33.1038 48.2957 33.2552 48.2215 33.3537 48.1059C33.4445 47.9987 33.5581 47.8337 33.6868 47.5449H38.3061L38.4045 47.8089C38.45 47.9492 38.5636 48.1142 38.6469 48.1802C38.7302 48.238 38.9119 48.2875 39.0482 48.2875C39.2299 48.2875 39.336 48.2215 39.4798 48.0234C39.5783 47.8749 39.6616 47.7099 39.654 47.6522C39.6464 47.5779 40.9943 47.5532 51.2324 47.5449L51.2551 53.9802L22.7445 53.939L22.3659 53.7492C22.1539 53.642 21.8585 53.4192 21.6995 53.2542C21.5405 53.0892 21.3512 52.8334 21.283 52.7014C21.1846 52.5034 21.1543 52.1486 21.1316 51.0513C21.1089 50.218 21.1316 49.4838 21.1846 49.2362C21.2376 48.964 21.3663 48.7 21.5481 48.4607C21.7071 48.2627 21.9721 48.0234 22.1387 47.9327Z" fill="#EFE2D4"/>
<path d="M36.6339 52.6932C22.221 52.6932 22.168 52.6932 22.168 52.5417C22.168 52.3903 22.221 52.3903 36.6339 52.3903C51.0469 52.3903 51.0999 52.3903 51.0999 52.5417C51.0999 52.6932 51.0469 52.6932 36.6339 52.6932Z" fill="#E2D4C7"/>
<path d="M36.6499 52.3676L36.6193 52.3676L22.1306 52.3524H51.1383L51.161 52.519C51.1761 52.6554 51.1686 52.6629 51.1383 52.5418C51.1004 52.3904 51.0323 52.3903 36.6499 52.3676Z" fill="#E8D9CC"/>
<path d="M36.6339 51.7085C22.221 51.7085 22.168 51.7085 22.168 51.557C22.168 51.4055 22.221 51.4055 36.6339 51.4055C51.0469 51.4055 51.0999 51.4055 51.0999 51.557C51.0999 51.7085 51.0469 51.7085 36.6339 51.7085Z" fill="#E2D4C7"/>
<path d="M51.1004 51.4056L36.6193 51.3829L22.1306 51.3677L51.1761 51.3298L51.1686 51.5343C51.161 51.7085 51.1534 51.7161 51.1004 51.4056Z" fill="#E8D9CC"/>
<path d="M36.6339 50.7237C22.221 50.7237 22.168 50.7237 22.168 50.5723C22.168 50.4208 22.221 50.4208 36.6339 50.4208C51.0469 50.4208 51.0999 50.4208 51.0999 50.5723C51.0999 50.7237 51.0469 50.7237 36.6339 50.7237Z" fill="#E2D4C7"/>
<path d="M51.1004 50.4207L36.6193 50.3979L22.1306 50.3828L51.1761 50.3449L51.1686 50.5494C51.161 50.7237 51.1534 50.7312 51.1004 50.4207Z" fill="#E8D9CC"/>
<path d="M36.6431 49.6782C51.0474 49.6556 51.1004 49.6555 51.108 49.504H51.1004C51.1004 49.4207 51.1231 49.3525 51.1383 49.3525C51.161 49.3525 51.1761 49.4434 51.1837 49.7313L22.1306 49.701L36.6193 49.6783L36.6431 49.6782Z" fill="#E8D9CC"/>
<path d="M36.6339 49.6631C22.221 49.6631 22.168 49.6631 22.168 49.5116C22.168 49.3601 22.221 49.3601 36.6339 49.3601C51.0469 49.3601 51.0999 49.3601 51.0999 49.5116C51.0999 49.6631 51.0469 49.6631 36.6339 49.6631Z" fill="#E2D4C7"/>
<path d="M49.3585 48.0497C47.7529 48.0648 45.1475 48.0648 43.5645 48.0497C41.9816 48.0421 43.2919 48.0345 46.4805 48.0345C49.669 48.0345 50.9642 48.0421 49.3585 48.0497Z" fill="#C78669"/>
<path d="M36.6344 48.0497C36.2405 48.0648 35.6271 48.0648 35.2711 48.0497C34.9151 48.0421 35.2408 48.027 35.9906 48.027C36.7404 48.027 37.0282 48.0421 36.6344 48.0497Z" fill="#C78669"/>
<path d="M29.2499 48.0497C28.1214 48.0648 26.3037 48.0648 25.1979 48.0497C24.0921 48.0421 25.0161 48.0345 27.2428 48.0345C29.4695 48.0345 30.3784 48.0421 29.2499 48.0497Z" fill="#C78669"/>
<path d="M52.2903 47.6558C52.2752 47.8679 52.2676 47.7088 52.2676 47.3149C52.2676 46.921 52.2752 46.7467 52.2903 46.9361C52.3054 47.1255 52.3054 47.4437 52.2903 47.6558Z" fill="#DAB89A"/>
<path d="M41.1265 47.5043C41.1871 47.3831 41.2629 47.1331 41.2932 46.9589L41.3462 46.6332H52.2373V47.9967H46.5039C40.9978 48.0043 40.7706 47.9967 40.8842 47.868C40.9523 47.7922 41.0584 47.6331 41.1265 47.5043Z" fill="#AF2017"/>
<path d="M35.0058 47.671C35.1118 47.4968 35.2178 47.1862 35.2405 46.9892L35.2936 46.6256L35.9828 46.6483C36.5281 46.6635 36.672 46.6938 36.6871 46.7847C36.6947 46.8453 36.7174 47.0195 36.7402 47.1635C36.7629 47.3074 36.8689 47.5574 37.1643 47.9967H34.8164L35.0058 47.671Z" fill="#AF2017"/>
<path d="M20.7287 47.118C20.8726 46.9968 21.1452 46.8453 21.3346 46.7695C21.6451 46.6559 22.1071 46.6408 30.6125 46.6332L30.6731 46.9892C30.7034 47.1938 30.8094 47.4968 31.1048 47.9967L22.8115 48.0346L22.3571 48.2467C22.1071 48.3604 21.7739 48.5876 21.6073 48.7391C21.4482 48.8906 21.2664 49.133 21.2134 49.2694C21.1377 49.4512 21.1074 49.9057 21.1074 51.0496C21.1074 52.4813 21.1225 52.6025 21.2816 52.9131C21.3725 53.0949 21.5694 53.3449 21.7133 53.4585C21.8572 53.5722 22.1526 53.7464 22.7357 54.0191L52.2357 54.057V55.4205H21.5997L21.115 55.1781C20.8271 55.0266 20.5242 54.7994 20.3803 54.6251C20.244 54.4585 20.0546 54.1555 19.9562 53.9434C19.7895 53.5797 19.782 53.4813 19.7592 51.2541C19.7365 49.3376 19.7517 48.8679 19.8501 48.4891C19.9183 48.2391 20.0849 47.8755 20.2212 47.6861C20.35 47.4892 20.5848 47.2392 20.7287 47.118Z" fill="#AF2017"/>
<path d="M49.5102 46.6105C47.9879 46.6256 45.5188 46.6256 44.0192 46.6105C42.5196 46.6029 43.7617 46.5953 46.7837 46.5953C49.8056 46.5953 51.0326 46.6029 49.5102 46.6105Z" fill="#C78669"/>
<path d="M36.4078 46.6105C36.2185 46.6256 35.8777 46.6256 35.6505 46.6105C35.4232 46.5953 35.5747 46.5878 35.9913 46.5878C36.4078 46.5878 36.5972 46.5953 36.4078 46.6105Z" fill="#C78669"/>
<path d="M28.4549 46.6105C27.2279 46.6256 25.2285 46.6256 24.0242 46.6105C22.82 46.6029 23.8197 46.5953 26.2585 46.5953C28.6973 46.5953 29.6819 46.6029 28.4549 46.6105Z" fill="#C78669"/>
<path d="M35.2711 46.315C35.2711 46.1787 35.2408 45.9514 35.2029 45.8226L35.1348 45.5726H36.7859L36.7556 45.7847C36.7328 45.8984 36.7025 46.1181 36.6344 46.5574H35.2711V46.315Z" fill="#CAE7E8"/>
<path d="M36.4403 45.3812C36.4946 45.1621 36.6484 44.8609 36.775 44.7148C36.9469 44.514 37.0826 44.4409 37.3178 44.4409C37.544 44.4409 37.6797 44.5048 37.8335 44.6965C37.9511 44.8335 38.0777 45.0434 38.1139 45.1713C38.1772 45.3904 38.1863 45.3904 38.3762 44.9978C38.4848 44.7787 38.6567 44.5505 38.7652 44.5048C38.8919 44.4409 39.0457 44.4409 39.2085 44.4957C39.3713 44.5505 39.5432 44.7239 39.6789 44.9704C39.8689 45.3264 39.896 45.3356 39.9503 45.153C39.9865 45.0343 40.1041 44.8335 40.2217 44.6965C40.3755 44.5048 40.5112 44.4409 40.7464 44.4409C40.9906 44.4409 41.1173 44.5048 41.2892 44.7148C41.4158 44.8609 41.5606 45.1621 41.6148 45.3721C41.6691 45.5912 41.7144 46.0294 41.7144 46.358C41.7234 46.7597 41.6601 47.0884 41.5425 47.3623C41.443 47.5905 41.3073 47.8187 41.2349 47.8826C41.1625 47.9465 40.9726 48.0196 40.8097 48.047C40.5745 48.0835 40.475 48.047 40.2488 47.8187C40.0136 47.5814 39.9684 47.5631 39.9232 47.7C39.896 47.7913 39.8056 48.0196 39.7242 48.2204C39.6337 48.4121 39.507 48.6312 39.4347 48.7043C39.3623 48.7773 39.1723 48.8321 39.0276 48.8321C38.8828 48.8321 38.6838 48.759 38.5934 48.6677C38.5029 48.5764 38.3491 48.3026 38.0596 47.5905L37.7973 47.8461C37.5892 48.047 37.4807 48.0835 37.2364 48.047C37.0826 48.0196 36.8926 47.9465 36.8203 47.8826C36.7479 47.8187 36.6122 47.5905 36.5127 47.3623C36.386 47.0793 36.3318 46.7689 36.3408 46.358C36.3408 46.0294 36.386 45.5912 36.4403 45.3812Z" fill="#DD740E"/>
<path d="M30.3837 45.3812C30.438 45.1621 30.5917 44.8609 30.7184 44.7148C30.8903 44.514 31.026 44.4409 31.2612 44.4409C31.4873 44.4409 31.623 44.5048 31.7768 44.6965C31.8944 44.8335 32.0211 45.0434 32.0573 45.1713C32.1206 45.3904 32.1296 45.3904 32.3196 44.9978C32.4282 44.7787 32.6 44.5505 32.7086 44.5048C32.8352 44.4409 32.989 44.4409 33.1519 44.4957C33.3147 44.5505 33.4866 44.7239 33.6223 44.9704C33.8123 45.3264 33.8394 45.3356 33.8937 45.153C33.9299 45.0343 34.0475 44.8335 34.1651 44.6965C34.3189 44.5048 34.4545 44.4409 34.6898 44.4409C34.934 44.4409 35.0607 44.5048 35.2325 44.7148C35.3592 44.8609 35.5039 45.1621 35.5582 45.3721C35.6125 45.5912 35.6577 46.0294 35.6577 46.358C35.6668 46.7597 35.6034 47.0884 35.4858 47.3623C35.3863 47.5905 35.2506 47.8187 35.1783 47.8826C35.1059 47.9465 34.9159 48.0196 34.7531 48.047C34.5179 48.0835 34.4184 48.047 34.1922 47.8187C33.957 47.5814 33.9118 47.5631 33.8665 47.7C33.8394 47.7913 33.7489 48.0196 33.6675 48.2204C33.577 48.4121 33.4504 48.6312 33.378 48.7043C33.3057 48.7773 33.1157 48.8321 32.9709 48.8321C32.8262 48.8321 32.6272 48.759 32.5367 48.6677C32.4463 48.5764 32.2925 48.3026 32.003 47.5905L31.7406 47.8461C31.5326 48.047 31.424 48.0835 31.1798 48.047C31.026 48.0196 30.836 47.9465 30.7636 47.8826C30.6913 47.8187 30.5556 47.5905 30.4561 47.3623C30.3294 47.0793 30.2751 46.7689 30.2842 46.358C30.2842 46.0294 30.3294 45.5912 30.3837 45.3812Z" fill="#DD740E"/>
<path d="M35.2554 41.6259C35.2478 41.4744 35.2705 41.3305 35.3084 41.3002C35.3462 41.2775 35.4068 41.2623 35.4523 41.2775C35.4977 41.2926 35.5886 41.4138 35.6492 41.5426C35.7098 41.679 35.831 41.8077 35.9143 41.8305C36.0052 41.8532 36.1188 41.8153 36.2021 41.732C36.2778 41.6562 36.3384 41.535 36.3308 41.4593C36.3308 41.3835 36.3839 41.3305 36.4823 41.3305C36.5732 41.3305 36.6489 41.3987 36.6792 41.4971C36.702 41.5956 36.6641 41.8229 36.5808 42.0123C36.4747 42.2547 36.3763 42.3759 36.2097 42.4365C36.0885 42.4819 35.9067 42.4971 35.8007 42.4668C35.6946 42.4441 35.5356 42.3001 35.4371 42.1638C35.3462 42.0198 35.2629 41.7774 35.2554 41.6259Z" fill="#FDCD16"/>
<path d="M35.2554 35.5126C35.2478 35.3914 35.2705 35.2702 35.3084 35.2475C35.3462 35.2172 35.4144 35.1945 35.475 35.1945C35.528 35.1945 35.5962 35.2854 35.6265 35.399C35.6643 35.505 35.7552 35.6414 35.8385 35.6944C35.9446 35.7626 36.0355 35.7702 36.1188 35.7247C36.1945 35.6793 36.2854 35.5429 36.3308 35.4217C36.3763 35.3005 36.4596 35.1945 36.5202 35.1945C36.5808 35.1945 36.6489 35.2702 36.6717 35.3687C36.6868 35.4596 36.6717 35.6641 36.6338 35.8232C36.5883 35.9823 36.4672 36.1717 36.3536 36.255C36.2324 36.3459 36.0582 36.4141 35.9521 36.4141C35.8461 36.4065 35.6871 36.3383 35.5962 36.255C35.4977 36.1717 35.3917 36.0202 35.3462 35.9141C35.3008 35.8081 35.2629 35.6263 35.2554 35.5126Z" fill="#FDCD16"/>
<path d="M22.3956 25.9526C22.4789 25.5132 22.6531 24.6875 22.7895 24.1194C22.9258 23.5436 23.0621 23.1194 23.0924 23.1724C23.1227 23.2179 23.153 23.3315 23.153 23.4149C23.153 23.4982 23.206 23.786 23.2742 24.0588C23.3423 24.3315 23.5393 24.8617 23.7135 25.2329C23.8952 25.6117 24.2436 26.1723 24.4936 26.4829C24.7511 26.7934 25.1373 27.2025 25.357 27.3767C25.5842 27.5586 25.9856 27.8388 26.2583 27.9979C26.5309 28.1646 27.0762 28.407 27.4701 28.5433C28.1669 28.7858 28.2199 28.7933 29.4392 28.7933C30.6511 28.7933 30.7116 28.7858 31.4084 28.5433C31.8023 28.407 32.393 28.1343 32.7263 27.9373C33.052 27.7404 33.5745 27.3464 34.438 26.5207L34.8469 27.1646C35.0666 27.5207 35.4074 28.0964 35.9527 29.0963V32.4068C35.9527 34.596 35.93 35.7096 35.877 35.6869C35.8315 35.6641 35.7482 35.5278 35.6876 35.3839C35.627 35.2399 35.521 35.1187 35.4604 35.1187C35.3998 35.1187 35.3089 35.1945 35.2635 35.2854C35.2181 35.3839 35.2029 35.5732 35.2256 35.702C35.2484 35.8384 35.3544 36.0581 35.4604 36.1793C35.5665 36.3005 35.7179 36.4217 35.8012 36.4444C35.9527 36.4823 35.9527 36.5429 35.9527 39.1336C35.9527 40.5881 35.93 41.785 35.8997 41.785C35.8618 41.785 35.7785 41.6714 35.7104 41.5199C35.6195 41.3456 35.521 41.2547 35.4226 41.2547C35.3165 41.2547 35.2559 41.3229 35.2256 41.4593C35.1953 41.5805 35.2181 41.8001 35.2635 41.9517C35.3089 42.1107 35.4377 42.3077 35.5589 42.391C35.6725 42.4819 35.8088 42.5501 35.8618 42.5425C35.93 42.5425 35.9527 42.8834 35.9527 45.459V45.4665C35.965 45.5375 35.8104 45.5766 35.7347 45.6144C35.3409 45.6675 35.1499 45.5499 34.9151 45.2621C34.7106 45.0197 34.6122 44.9666 34.4001 44.9666C34.1804 44.9666 34.0896 45.0197 33.8775 45.2848C33.6276 45.5878 33.6124 45.603 33.5745 45.4363C33.5518 45.3454 33.4382 45.2015 33.3246 45.1181C33.2034 45.0272 33.0292 44.9666 32.9232 44.9666C32.8096 44.9742 32.6354 45.0803 32.2416 45.4969L32.0143 45.2318C31.8401 45.0272 31.7265 44.9666 31.5448 44.9666C31.3857 44.9666 31.2267 45.0348 30.9161 45.3378L30.1966 45.1863C29.8028 45.103 29.1211 44.9136 28.6819 44.7697C28.2426 44.6257 27.5458 44.3227 27.1292 44.1106C26.7127 43.8985 26.0992 43.5197 25.766 43.2698C25.4327 43.0198 24.9253 42.5728 24.6375 42.285C24.3572 41.9895 23.8952 41.4062 23.615 40.9896C23.3423 40.5729 22.6591 39.9063 22.3864 39.323L22.9923 38.414C23.318 37.914 23.9466 37.0277 24.3783 36.4444C24.81 35.8611 25.2947 35.1793 25.4462 34.9293C25.5977 34.6794 26.1977 34.3688 26.3264 34.0582C26.4476 33.7476 26.6066 33.2022 26.6824 32.8461C26.7733 32.3765 26.796 31.9977 26.7657 31.4447C26.743 31.028 26.6748 30.4826 26.6066 30.2326C26.5309 29.9827 26.3491 29.5206 26.1977 29.21C26.0083 28.8388 25.7281 28.4524 25.3494 28.0509C24.9025 27.5813 24.6526 27.3843 24.1755 27.1495C23.6604 26.8995 23.4711 26.8465 22.9031 26.801C22.5395 26.7707 22.2441 26.748 22.2441 26.748C22.2441 26.748 22.3123 26.392 22.3956 25.9526Z" fill="#125C73"/>
<path d="M40.4979 15.5516C40.7705 15.4228 41.1946 15.2562 41.4446 15.1804C41.6945 15.1123 42.1868 15.0517 42.5428 15.0441C43.0199 15.0441 43.4592 15.1047 44.262 15.2865C45.1296 15.4779 46.9481 15.8833 47.2813 15.9742C38.6807 12.2796 35.832 18.756 35.7356 22.4852C35.7659 22.4852 36.3398 22.3315 36.4004 22.074C36.4534 21.8088 36.5822 21.377 36.6882 21.1043C36.7867 20.8316 37.0215 20.3923 37.2032 20.1195C37.3774 19.8468 37.7258 19.4378 37.9682 19.1954C38.2181 18.9605 38.6044 18.6499 38.8316 18.506C39.0588 18.3696 39.4678 18.1575 39.7405 18.0515C40.0131 17.9454 40.4373 17.8242 40.6872 17.7788C40.9371 17.7333 41.4143 17.6954 41.7475 17.6954C42.0808 17.6954 42.6261 17.7636 42.9593 17.8394C43.2926 17.9227 43.8682 17.9909 44.2469 18.006L44.9285 18.0136C45.2315 17.15 45.383 16.7637 45.4663 16.597C45.6177 16.3016 45.6177 16.2864 45.4814 16.0289C45.4057 15.8849 45.3451 15.7107 45.3451 15.6501C45.3451 15.5668 45.0649 15.4683 44.262 15.2865C43.4592 15.1047 43.0199 15.0441 42.5428 15.0441C42.1868 15.0517 41.6945 15.1123 41.4446 15.1804C41.1946 15.2562 40.7705 15.4228 40.4979 15.5516C40.2252 15.688 39.7708 15.9834 39.4754 16.2183C39.18 16.4455 38.7483 16.8697 38.5059 17.15C38.2636 17.4303 37.9076 17.8924 37.7183 18.1878C37.5213 18.4757 37.1881 19.0893 36.9609 19.5514C36.7412 20.0059 36.4989 20.6422 36.4156 20.9528C36.3398 21.2634 36.2565 21.7482 36.2262 22.0285C36.2035 22.3164 35.6977 22.4852 35.7356 22.4852C35.832 18.756 38.6807 12.2796 47.2813 15.9742C47.6144 16.065 47.3696 16.0485 47.2055 16.0289C47.7507 16.1804 47.7355 17.5313 47.6598 18.1878L44.9285 18.0136L45.9942 18.2833L47.1677 19.5514L47.9626 21.6902L48.9469 23.2423V23.9615L48.1519 26.2707L46.562 27.6334L44.8207 28.8448L41.9059 29.1476C41.3885 29.0214 40.2312 28.7615 39.7405 28.7312C39.1271 28.6934 36.7955 26.0814 36.2414 25.4379C35.7981 24.923 35.5509 23.2355 35.7356 22.4852C35.6977 22.4852 36.2035 22.3164 36.2262 22.0285C36.2565 21.7482 36.3398 21.2634 36.4156 20.9528C36.4989 20.6422 36.7412 20.0059 36.9609 19.5514C37.1881 19.0893 37.5213 18.4757 37.7183 18.1878C37.9076 17.8924 38.2636 17.4303 38.5059 17.15C38.7483 16.8697 39.18 16.4455 39.4754 16.2183C39.7708 15.9834 40.2252 15.688 40.4979 15.5516Z" fill="#DD740E"/>
<path d="M23.0152 26.8301C17.4127 26.1487 15.3685 37.4673 20.7818 43.2212C21.3622 41.6313 23.053 37.9442 25.1729 35.9152C27.8227 33.379 27.0658 27.4736 23.0152 26.8301Z" fill="#DD740E"/>
<path d="M30.0302 41.6184C30.0226 41.4441 30.0529 41.3305 30.1211 41.3078C30.1741 41.2926 30.265 41.3154 30.3255 41.3608C30.3786 41.4063 30.4392 41.5199 30.4619 41.6108C30.4846 41.7093 30.5755 41.8078 30.6739 41.8305C30.7951 41.8684 30.8784 41.8305 30.9769 41.7017C31.0526 41.6032 31.1132 41.4744 31.1056 41.4214C31.1056 41.376 31.1587 41.3154 31.2193 41.2926C31.2874 41.2699 31.3632 41.3229 31.4086 41.4063C31.454 41.4896 31.4616 41.6714 31.4389 41.8002C31.4086 41.9365 31.3329 42.1259 31.2647 42.2244C31.1965 42.3229 31.0602 42.4214 30.9542 42.4592C30.8481 42.4895 30.6815 42.4971 30.5755 42.4668C30.4694 42.4441 30.3104 42.3002 30.2119 42.1638C30.1211 42.0199 30.0377 41.7699 30.0302 41.6184Z" fill="#FDCD16"/>
<path d="M33.2339 38.7701C33.1884 38.6034 33.1884 38.4216 33.2263 38.3231C33.2642 38.2246 33.3399 38.1716 33.3929 38.1943C33.446 38.2095 33.5444 38.3383 33.605 38.4746C33.6732 38.6261 33.7792 38.7246 33.8928 38.7322C34.0216 38.7473 34.0973 38.6867 34.2109 38.4519C34.3245 38.2246 34.3927 38.164 34.4836 38.2019C34.582 38.2549 34.6047 38.3383 34.5669 38.6413C34.5366 38.8988 34.4684 39.0731 34.3472 39.1867C34.2488 39.2776 34.1049 39.3534 34.0216 39.3609C33.9382 39.3685 33.8095 39.3761 33.7413 39.3685C33.6656 39.3685 33.5368 39.2928 33.4535 39.2094C33.3702 39.1261 33.2718 38.9291 33.2339 38.7701Z" fill="#FDCD16"/>
<path d="M29.0683 38.7701C29.0229 38.6034 29.0229 38.4216 29.0607 38.3231C29.0986 38.2246 29.1743 38.1716 29.2273 38.1943C29.2804 38.2095 29.3788 38.3383 29.4394 38.4746C29.5076 38.6261 29.6136 38.7246 29.7272 38.7322C29.856 38.7473 29.9317 38.6867 30.0453 38.4519C30.1589 38.2246 30.2271 38.164 30.318 38.2019C30.4164 38.2549 30.4392 38.3383 30.4013 38.6413C30.371 38.8988 30.3028 39.0731 30.1816 39.1867C30.0832 39.2776 29.9393 39.3534 29.856 39.3609C29.7727 39.3685 29.6439 39.3761 29.5757 39.3685C29.5 39.3685 29.3712 39.2928 29.2879 39.2094C29.2046 39.1261 29.1062 38.9291 29.0683 38.7701Z" fill="#FDCD16"/>
<path d="M30.0756 35.7248C30.0453 35.5808 30.0453 35.399 30.068 35.3233C30.0983 35.2551 30.1589 35.1945 30.2119 35.1945C30.265 35.1869 30.3634 35.293 30.424 35.4293C30.4846 35.5581 30.5906 35.6945 30.6512 35.7324C30.7194 35.7702 30.8178 35.7551 30.8936 35.702C30.9617 35.649 31.0602 35.5202 31.1056 35.399C31.1435 35.2854 31.2344 35.1945 31.295 35.1945C31.3556 35.1945 31.4313 35.2703 31.454 35.3612C31.4768 35.4596 31.4616 35.6642 31.4162 35.8157C31.3707 35.9748 31.242 36.1717 31.1284 36.255C31.0072 36.346 30.833 36.4141 30.727 36.4141C30.6209 36.4066 30.4467 36.3157 30.3331 36.202C30.2119 36.0808 30.0983 35.8687 30.0756 35.7248Z" fill="#FDCD16"/>
<path d="M33.2263 32.7098C33.1733 32.5507 33.1733 32.4068 33.2263 32.278C33.2642 32.172 33.3323 32.0886 33.3778 32.0886C33.4157 32.0886 33.5065 32.2098 33.5671 32.3538C33.6277 32.4977 33.711 32.634 33.7565 32.6568C33.8019 32.6795 33.8928 32.6795 33.961 32.6568C34.0367 32.6416 34.1579 32.5053 34.2261 32.3538C34.3321 32.1568 34.3927 32.1038 34.4836 32.1417C34.582 32.1871 34.6047 32.2856 34.582 32.5583C34.5593 32.8007 34.4911 32.9674 34.3624 33.1037C34.2261 33.2476 34.0973 33.3082 33.908 33.3082C33.7312 33.3032 33.5873 33.2451 33.4762 33.134C33.3778 33.0355 33.2718 32.8462 33.2263 32.7098Z" fill="#FDCD16"/>
<path d="M48.7144 23.9072C48.775 23.6345 48.828 23.3012 48.828 23.1724V23.1648C48.828 23.0361 48.6917 22.9016 48.7144 22.9016C48.7371 22.9016 49.0098 23.3769 49.131 23.9224C49.2597 24.4754 49.4339 25.3465 49.699 26.7858H49.2824C49.0552 26.7858 48.6614 26.8389 48.4115 26.907C48.1615 26.9676 47.7904 27.1116 47.5783 27.2252C47.3738 27.3388 47.2652 27.96 46.9774 28.2554C46.576 28.6494 46.4726 28.8672 46.215 29.3748C46.0106 29.7687 45.3819 30.1114 45.3062 30.4599C45.2002 30.9371 45.1774 31.2704 45.2077 32.0128C45.238 32.7779 45.2835 33.0809 45.4501 33.5657C45.5637 33.8991 45.7985 34.4445 45.9803 34.7778C46.1545 35.1111 46.6392 35.8459 47.0633 36.4065C47.4799 36.9671 48.1388 37.8837 49.2067 39.4366L48.934 39.982C48.7826 40.2851 48.4796 40.7926 48.2751 41.1032C48.0631 41.4138 47.6238 41.944 47.3057 42.2774C46.9876 42.6107 46.4574 43.0803 46.1317 43.3152C45.7985 43.55 45.2456 43.8985 44.8896 44.0803C44.5337 44.2697 43.9202 44.5424 43.5264 44.6863C43.1325 44.8302 42.413 45.0424 41.0649 45.3378L40.8604 45.1484C40.724 45.0348 40.5574 44.9666 40.4059 44.9666C40.2166 44.9742 40.0954 45.0424 39.9061 45.2545C39.6637 45.5196 39.6486 45.5272 39.5653 45.3832C39.5198 45.2999 39.4214 45.1711 39.3456 45.0954C39.2699 45.0272 39.1033 44.9666 38.9821 44.9666C38.8079 44.9666 38.6943 45.0424 38.4973 45.2848C38.2474 45.5878 38.2323 45.6029 38.1944 45.4363C38.1717 45.3454 38.0581 45.2014 37.9445 45.1181C37.8233 45.0272 37.6339 44.959 37.5203 44.9666C37.4067 44.9666 37.2325 45.0424 37.1416 45.1333C37.0432 45.2317 36.9371 45.3681 36.8917 45.4514C36.8311 45.5726 36.3781 45.8037 35.9526 45.4868V42.5804L36.1798 42.5198C36.3161 42.4895 36.4676 42.3683 36.5585 42.2168C36.6645 42.0501 36.7099 41.8683 36.6948 41.6335C36.6796 41.3607 36.6418 41.285 36.5206 41.2698C36.4146 41.2547 36.3388 41.3153 36.2555 41.4895C36.1949 41.6259 36.0965 41.7471 36.051 41.7622C35.9753 41.7774 35.9526 41.2168 35.9526 36.4822L36.157 36.4216C36.2631 36.3913 36.4373 36.2626 36.5357 36.1414C36.6872 35.952 36.7175 35.8459 36.6948 35.5353C36.6796 35.2172 36.6493 35.1566 36.5206 35.1566C36.4221 35.1566 36.3312 35.2475 36.2555 35.4065C36.1949 35.5429 36.0965 35.6641 36.051 35.6868C35.9753 35.7171 35.9238 34.8974 35.9238 29.0341L36.4916 27.9741C36.8552 27.3454 37.3386 26.801 37.5355 26.5207L38.0732 27.0282C38.361 27.3161 38.8003 27.6721 39.0427 27.8237C39.2774 27.9752 39.6864 28.1948 39.9515 28.316C40.209 28.4297 40.7165 28.5963 41.08 28.6872C41.6405 28.8236 41.9056 28.8387 42.7311 28.8084C43.2991 28.7857 43.905 28.7175 44.1701 28.6494C44.4201 28.5812 44.8821 28.3994 45.1926 28.2554C45.5031 28.1039 45.9651 27.8388 46.215 27.6646C46.465 27.4828 46.8891 27.104 47.1618 26.8161C47.4344 26.5283 47.798 26.0586 47.9646 25.7632C48.1312 25.4677 48.3433 25.0435 48.4342 24.8163C48.5251 24.589 48.6462 24.1799 48.7144 23.9072Z" fill="#114959"/>
<path d="M47.9194 27.1419C48.1087 27.0585 48.4647 26.9525 48.7146 26.8919C48.9646 26.8388 49.2751 26.7934 49.3963 26.7934C49.5175 26.7858 49.8129 26.8161 50.0401 26.8616C50.2673 26.907 50.646 27.0282 50.8732 27.1419C51.1307 27.2631 51.4942 27.5509 51.8199 27.8767C52.1153 28.1797 52.494 28.6645 52.6682 28.9827C52.8499 29.2933 53.1226 29.8766 53.2817 30.2705C53.4483 30.6644 53.6982 31.4143 53.8497 31.937C54.0012 32.4597 54.1678 33.0885 54.2208 33.3385C54.2662 33.5885 54.3117 34.2702 54.3117 34.8535C54.3041 35.6414 54.2662 36.1186 54.1375 36.7095C54.0466 37.1489 53.8497 37.8609 53.7058 38.3003C53.5543 38.7397 53.2059 39.573 52.9181 40.1563C52.6379 40.7396 52.1229 41.6334 51.7896 42.1486C51.4488 42.6561 51.1383 43.0728 51.1004 43.0728C51.0625 43.0728 51.0247 43.0273 51.0247 42.9818C51.0247 42.9288 50.8883 42.5652 50.7217 42.1864C50.5551 41.8001 50.2294 41.1335 49.9946 40.7093C49.7598 40.2775 49.2145 39.3987 48.7904 38.7548C48.3663 38.1109 47.6392 37.0731 47.1696 36.4444C46.6622 35.7626 46.1699 35.005 45.9426 34.5505C45.7381 34.1339 45.4958 33.5203 45.4125 33.187C45.2989 32.7627 45.2534 32.3385 45.2458 31.7477C45.2458 31.1871 45.2837 30.7553 45.367 30.422C45.4428 30.1493 45.617 29.6947 45.7533 29.3993C45.8896 29.1039 46.1623 28.6645 46.3516 28.4145C46.5334 28.1645 46.8894 27.8085 47.1317 27.6267C47.3817 27.4449 47.7301 27.2252 47.9194 27.1419Z" fill="#DD740E"/>
<path d="M40.4821 41.6638C40.4745 41.535 40.4972 41.4062 40.5351 41.3835C40.5729 41.3532 40.6335 41.3305 40.679 41.3305C40.7244 41.3305 40.8229 41.4441 40.891 41.5956C40.9971 41.7926 41.0728 41.8532 41.194 41.838C41.3076 41.8304 41.4061 41.732 41.4818 41.5805C41.5424 41.4441 41.656 41.3305 41.7242 41.3305C41.8075 41.3305 41.8756 41.4062 41.8984 41.5199C41.9211 41.6259 41.8756 41.8532 41.7999 42.0274C41.7014 42.2547 41.5954 42.3759 41.4364 42.4365C41.3152 42.4819 41.1334 42.4971 41.0274 42.4668C40.9213 42.444 40.7623 42.3001 40.6638 42.1638C40.5729 42.0198 40.4896 41.7926 40.4821 41.6638Z" fill="#FDCD16"/>
<path d="M42.2392 38.717C42.3831 38.717 42.4588 38.6488 42.5573 38.4367C42.6482 38.2397 42.7239 38.164 42.7996 38.1943C42.8678 38.2246 42.9132 38.3458 42.9208 38.52C42.9208 38.6867 42.8602 38.8988 42.7466 39.0579C42.6027 39.2776 42.5194 39.323 42.2771 39.3457C42.0423 39.3609 41.9362 39.323 41.7999 39.1942C41.7014 39.0957 41.5954 38.9139 41.5575 38.7927C41.5272 38.664 41.5121 38.4897 41.5272 38.3912C41.5424 38.2928 41.6106 38.2246 41.6939 38.2246C41.762 38.2246 41.8756 38.3382 41.9362 38.4746C42.0195 38.6488 42.1029 38.717 42.2392 38.717Z" fill="#FDCD16"/>
<path d="M38.0736 38.717C38.2175 38.717 38.2932 38.6488 38.3917 38.4367C38.4826 38.2397 38.5583 38.164 38.6341 38.1943C38.7022 38.2246 38.7477 38.3458 38.7552 38.52C38.7552 38.6867 38.6946 38.8988 38.581 39.0579C38.4371 39.2776 38.3538 39.323 38.1115 39.3457C37.8767 39.3609 37.7706 39.323 37.6343 39.1942C37.5359 39.0957 37.4298 38.9139 37.392 38.7927C37.3617 38.664 37.3465 38.4897 37.3617 38.3912C37.3768 38.2928 37.445 38.2246 37.5283 38.2246C37.5964 38.2246 37.7101 38.3382 37.7706 38.4746C37.854 38.6488 37.9373 38.717 38.0736 38.717Z" fill="#FDCD16"/>
<path d="M40.4821 35.5126C40.4745 35.3914 40.4972 35.2702 40.5351 35.2475C40.5729 35.2172 40.6411 35.1945 40.7017 35.1945C40.7547 35.1945 40.8229 35.2854 40.8608 35.399C40.891 35.505 40.9819 35.6414 41.0652 35.6944C41.1713 35.7626 41.2622 35.7702 41.353 35.7247C41.4212 35.6793 41.5197 35.5429 41.5575 35.4217C41.5954 35.2929 41.6863 35.1945 41.7469 35.1945C41.8075 35.1945 41.8756 35.2702 41.8984 35.3611C41.9135 35.4596 41.8984 35.6641 41.8605 35.8156C41.815 35.9823 41.6939 36.1717 41.5803 36.255C41.4591 36.3459 41.3076 36.4141 41.2394 36.4065C41.1637 36.4065 41.0198 36.3611 40.9138 36.308C40.8077 36.2626 40.6714 36.1035 40.6108 35.9671C40.5502 35.8384 40.4896 35.6263 40.4821 35.5126Z" fill="#FDCD16"/>
<path d="M37.392 32.6946C37.3541 32.5431 37.3541 32.3613 37.392 32.2628C37.4298 32.1643 37.5056 32.1113 37.5586 32.134C37.6116 32.1492 37.7101 32.278 37.7706 32.4143C37.854 32.5886 37.9373 32.6567 38.0736 32.6567C38.2175 32.6567 38.2932 32.5886 38.3917 32.3689C38.4826 32.182 38.5659 32.1012 38.6416 32.1265C38.7174 32.1492 38.7552 32.2628 38.7552 32.4446C38.7552 32.6189 38.6946 32.8385 38.581 32.9976C38.4371 33.2173 38.3538 33.2628 38.1115 33.2855C37.8767 33.3006 37.7706 33.2628 37.6343 33.134C37.5359 33.0355 37.4298 32.8385 37.392 32.6946Z" fill="#FDCD16"/>
<path d="M21.2181 17.5288C20.6984 17.5213 20.6916 17.5212 21.0696 17.4683C21.2741 17.438 21.4634 17.4152 21.4861 17.4077C21.5089 17.4001 21.577 17.4304 21.6376 17.4683C21.7133 17.5213 21.5846 17.5364 21.221 17.5288L21.2181 17.5288Z" fill="#DDAF72"/>
<path d="M36.8242 16.1503C37.1953 16.0443 37.8164 15.9003 38.1875 15.8473C38.5586 15.7867 39.1647 15.9136 39.5964 15.8985L39.1422 16.2392L38.8393 16.5896C38.4985 16.9305 37.9906 17.6424 37.7558 17.9985C37.521 18.3545 37.1651 18.9833 36.953 19.3999C36.7485 19.8166 36.5061 20.3923 36.4152 20.6877C36.3244 20.9832 36.2259 21.5134 36.1956 21.8846C36.1577 22.3316 36.1123 22.5437 36.0517 22.5437C35.976 22.5437 35.9457 21.8998 35.9305 19.6423C35.9154 17.1122 35.9018 16.4663 36.0003 16.4663C36.0608 16.4587 36.4531 16.264 36.8242 16.1503Z" fill="#114959"/>
<path d="M34.2567 17.8234C34.06 17.5194 33.5986 16.9275 33.2279 16.5116L32.5547 15.5199L33.1145 15.5759C33.4246 15.6079 33.9995 15.7039 34.3928 15.7839C34.7862 15.8718 35.3157 16.0072 35.9587 16.2391V19.5271C35.9738 21.2068 36.0661 22.5609 36.0283 22.5609C35.998 22.5609 35.8452 22.3027 35.8074 21.9667C35.7771 21.6228 35.6788 21.0549 35.588 20.7029C35.4973 20.351 35.2401 19.6871 35.0131 19.2232C34.7862 18.7592 34.4458 18.1353 34.2567 17.8234Z" fill="#125C73"/>
<path d="M22.434 16.1577C22.2674 16.1729 22.0099 16.1729 21.866 16.1577C21.7221 16.1426 21.8584 16.1274 22.1689 16.1274C22.4794 16.1274 22.6006 16.1426 22.434 16.1577Z" fill="#DDAF72"/>
<path d="M24.6528 15.7949C25.2972 15.6801 26.4572 15.4351 27.2305 15.2514C28.2843 14.9987 28.7923 14.9145 29.2775 14.9145C29.6338 14.9145 30.1342 14.9604 30.392 15.0217C30.6573 15.0829 31.0819 15.2437 31.3396 15.3738C31.605 15.504 32.022 15.7566 32.2722 15.9404C32.5224 16.1164 32.9545 16.5069 33.235 16.8131C33.5231 17.1116 33.9173 17.6093 34.1145 17.9078C34.3192 18.214 34.8139 18.7616 35.011 19.1368C35.2081 19.5042 35.4884 20.1312 35.6173 20.514C35.7689 20.9733 35.6762 21.4523 35.7066 21.8734C35.7369 22.2791 36.0796 22.5339 36.0341 22.5033C36.0038 29.6702 26.144 32.6027 22.9989 23.6892C22.8361 23.2279 23.1058 22.9126 23.1592 22.8303C23.1289 22.3633 23.1517 21.8274 23.2123 21.4523C23.2578 21.1155 23.4018 20.5643 23.5307 20.2274C23.652 19.8906 23.8795 19.4083 24.0311 19.1557C24.1827 18.903 24.3874 18.6121 24.6376 18.3136L23.8492 18.26C23.417 18.2217 22.7953 18.1451 22.4769 18.0762C22.1509 18.0073 21.5747 17.8389 20.5209 17.4408H21.2032C21.5747 17.4408 21.8704 17.4179 21.8476 17.4026C21.8249 17.3796 21.3852 17.2724 20.8621 17.1652C20.3389 17.0504 19.7779 16.9049 19.6111 16.8284C19.4443 16.7595 19.2851 16.6676 19.2624 16.6293C19.232 16.5834 19.4671 16.5834 19.8689 16.637C20.2252 16.6829 20.6725 16.7442 20.8621 16.7748C21.0819 16.8131 21.1653 16.8054 21.0895 16.7518C21.0288 16.7136 20.4981 16.5528 19.9144 16.3997C19.3306 16.2466 18.8226 16.1011 18.7772 16.0781C18.7266 16.0526 18.7266 16.0144 18.7772 15.9633C18.8226 15.925 19.0198 15.925 19.3079 15.9863C19.558 16.0322 19.8082 16.0628 19.8689 16.0475C19.922 16.0322 19.6035 15.8179 18.3223 15.1289L18.7013 15.1748C18.906 15.1978 19.3685 15.3509 19.7248 15.5116C20.0812 15.6724 20.5209 15.8561 20.7104 15.9097C20.9379 15.9786 21.461 16.0169 22.2646 16.0092C23.2351 16.0092 23.7127 15.9633 24.6528 15.7949C29.0618 14.1254 34.6868 12.751 36.0341 22.5033C36.0796 22.5339 35.7369 22.2791 35.7066 21.8734C35.6762 21.4523 35.7689 20.9733 35.6173 20.514C35.4884 20.1312 35.2081 19.5042 35.011 19.1368C34.8139 18.7616 34.3192 18.214 34.1145 17.9078C33.9173 17.6093 33.5231 17.1116 33.235 16.8131C32.9545 16.5069 32.5224 16.1164 32.2722 15.9404C32.022 15.7566 31.605 15.504 31.3396 15.3738C31.0819 15.2437 30.6573 15.0829 30.392 15.0217C30.1342 14.9604 29.6338 14.9145 29.2775 14.9145C28.7923 14.9145 28.2843 14.9987 27.2305 15.2514C26.4572 15.4351 25.2972 15.6801 24.6528 15.7949C23.7127 15.9633 23.2351 16.0092 22.2646 16.0092C21.461 16.0169 20.9379 15.9786 20.7104 15.9097C20.5209 15.8561 20.0812 15.6724 19.7248 15.5116C19.3685 15.3509 18.906 15.1978 18.7013 15.1748L18.3223 15.1289C19.6035 15.8179 19.922 16.0322 19.8689 16.0475C19.8082 16.0628 19.558 16.0322 19.3079 15.9863C19.0198 15.925 18.8226 15.925 18.7772 15.9633C18.7266 16.0144 18.7266 16.0526 18.7772 16.0781C18.8226 16.1011 19.3306 16.2466 19.9144 16.3997C20.4981 16.5528 21.0288 16.7136 21.0895 16.7518C21.1653 16.8054 21.0819 16.8131 20.8621 16.7748C20.6725 16.7442 20.2252 16.6829 19.8689 16.637C19.4671 16.5834 19.232 16.5834 19.2624 16.6293C19.2851 16.6676 19.4443 16.7595 19.6111 16.8284C19.7779 16.9049 20.3389 17.0504 20.8621 17.1652C21.3852 17.2724 21.8249 17.3796 21.8476 17.4026C21.8704 17.4179 21.5747 17.4408 21.2032 17.4408H20.5209C21.5747 17.8389 22.1509 18.0073 22.4769 18.0762C22.7953 18.1451 23.417 18.2217 23.8492 18.26L24.6376 18.3136C24.3874 18.6121 24.1827 18.903 24.0311 19.1557C23.8795 19.4083 23.652 19.8906 23.5307 20.2274C23.4018 20.5643 23.2578 21.1155 23.2123 21.4523C23.1517 21.8274 23.1289 22.3633 23.1592 22.8303C23.182 23.2514 23.273 23.8485 23.3564 24.1547C23.4473 24.4533 23.6217 24.9203 23.7506 25.1806C23.8871 25.4485 24.1221 25.8542 24.2737 26.0839C24.4329 26.3136 24.7968 26.7346 25.0774 27.0102C25.3654 27.2858 25.8052 27.6456 26.0554 27.8064C26.3056 27.9672 26.7301 28.1968 27.003 28.304C27.276 28.4188 27.7688 28.572 28.1024 28.6485C28.4814 28.7404 28.9894 28.7863 29.467 28.7863C29.9674 28.7863 30.445 28.7251 30.8923 28.6179C31.2562 28.5337 31.6429 28.4035 31.7566 28.3346C31.9613 28.2198 31.9689 28.2198 31.7794 28.2581C31.6732 28.281 31.37 28.3423 31.097 28.3882C30.8165 28.4418 30.2858 28.4571 29.884 28.4342C29.3836 28.4112 28.9666 28.327 28.5193 28.1815C28.163 28.059 27.6399 27.8064 27.3442 27.6074C27.0485 27.4083 26.6922 27.1327 26.5482 26.9949C26.3965 26.8495 26.1539 26.5815 26.0099 26.3901C25.8582 26.1987 25.5398 25.7164 25.3048 25.3184C25.0698 24.9203 24.8044 24.4074 24.7286 24.1853C24.6452 23.971 24.5391 23.5346 24.4936 23.2284C24.4481 22.9298 24.4253 22.4016 24.4481 22.0648C24.4708 21.7126 24.5694 21.192 24.6907 20.8399C24.8044 20.503 25.0167 20.0207 25.1683 19.7681C25.32 19.5155 25.6611 19.0944 25.9189 18.8265C26.1842 18.5662 26.5785 18.2523 26.7908 18.1222C27.1471 17.9231 27.2684 17.8925 27.7991 17.8925C28.1327 17.8925 28.5724 17.8389 28.7847 17.77C28.9894 17.7011 29.5201 17.6322 29.9598 17.6093C30.5663 17.571 30.8999 17.5939 31.3624 17.7011C31.696 17.77 32.1736 17.9231 32.4238 18.038C32.674 18.1528 33.0834 18.3901 33.3336 18.5585C33.5838 18.7346 33.9325 19.0255 34.1069 19.2093C34.2737 19.3853 34.5618 19.7451 34.7286 19.9978C34.9029 20.2504 35.1455 20.7174 35.2668 21.0313C35.3881 21.3451 35.5095 21.7892 35.5474 22.0188C35.5777 22.2408 35.9962 22.4726 36.0341 22.5033C34.6868 12.751 29.0618 14.1254 24.6528 15.7949Z" fill="#DD740E"/>
<path d="M35.4325 22.9774C35.4325 25.8416 33.1106 28.1634 30.2464 28.1634C27.3822 28.1634 25.0603 25.8416 25.0603 22.9774C25.0603 20.1132 27.3822 17.7913 30.2464 17.7913C33.1106 17.7913 35.4325 20.1132 35.4325 22.9774Z" fill="white"/>
<path fill-rule="evenodd" clip-rule="evenodd" d="M30.2464 27.1792C32.567 27.1792 34.4483 25.298 34.4483 22.9774C34.4483 20.6567 32.567 18.7755 30.2464 18.7755C27.9258 18.7755 26.0445 20.6567 26.0445 22.9774C26.0445 25.298 27.9258 27.1792 30.2464 27.1792ZM30.2464 28.1634C33.1106 28.1634 35.4325 25.8416 35.4325 22.9774C35.4325 20.1132 33.1106 17.7913 30.2464 17.7913C27.3822 17.7913 25.0603 20.1132 25.0603 22.9774C25.0603 25.8416 27.3822 28.1634 30.2464 28.1634Z" fill="black"/>
<circle cx="30.0202" cy="23.3559" r="2.61197" fill="black"/>
<path d="M35.438 24.5285C35.4834 24.3315 35.597 24.1118 35.6803 24.0436C35.7712 23.9679 35.9621 23.8556 36 23.848C36.0303 23.848 35.953 25.0436 35.953 26.4223C35.953 28.8918 36.0152 29.2159 35.8864 28.9963C35.8107 28.8751 35.5137 28.2025 35.3092 27.8464C35.1123 27.4904 34.8396 27.0283 34.4609 26.445L34.726 26.0662C34.8699 25.8541 35.0668 25.5057 35.1653 25.286C35.2638 25.0739 35.3849 24.733 35.438 24.5285Z" fill="#FDCD16"/>
<circle cx="29.0721" cy="21.5009" r="0.984222" fill="white"/>
<circle cx="29.4902" cy="23.1287" r="0.492111" fill="white"/>
<path d="M36.9467 22.6744H35.0918V23.7344H36.9467V22.6744Z" fill="black"/>
<path d="M47.0167 22.9774C47.0167 25.8416 44.6948 28.1634 41.8306 28.1634C38.9664 28.1634 36.6445 25.8416 36.6445 22.9774C36.6445 20.1132 38.9664 17.7913 41.8306 17.7913C44.6948 17.7913 47.0167 20.1132 47.0167 22.9774Z" fill="white"/>
<path fill-rule="evenodd" clip-rule="evenodd" d="M41.8306 27.1792C44.1513 27.1792 46.0325 25.298 46.0325 22.9774C46.0325 20.6567 44.1513 18.7755 41.8306 18.7755C39.51 18.7755 37.6288 20.6567 37.6288 22.9774C37.6288 25.298 39.51 27.1792 41.8306 27.1792ZM41.8306 28.1634C44.6948 28.1634 47.0167 25.8416 47.0167 22.9774C47.0167 20.1132 44.6948 17.7913 41.8306 17.7913C38.9664 17.7913 36.6445 20.1132 36.6445 22.9774C36.6445 25.8416 38.9664 28.1634 41.8306 28.1634Z" fill="black"/>
<circle cx="41.3101" cy="23.3282" r="2.61197" transform="rotate(64.9476 41.3101 23.3282)" fill="black"/>
<circle cx="42.5896" cy="21.6855" r="0.984222" transform="rotate(64.9476 42.5896 21.6855)" fill="white"/>
<circle cx="41.2921" cy="22.752" r="0.492111" transform="rotate(64.9476 41.2921 22.752)" fill="white"/>
<path d="M46.5644 20.7635C46.4054 20.4302 46.1176 19.9606 45.9282 19.7257C45.5717 19.3585 44.7904 18.5938 44.5178 18.4727C44.9248 18.605 45.8419 18.9803 46.2539 19.4227C46.413 19.506 46.625 19.7333 46.7689 19.9757C46.9053 20.203 47.1022 20.6575 47.2158 20.9908C47.3824 21.4983 47.4127 21.7408 47.4203 22.468C47.4203 23.1043 47.3824 23.4603 47.2839 23.7937C47.2082 24.0436 47.0643 24.3997 46.9583 24.5891C46.8598 24.7785 46.7992 24.8618 46.8219 24.7785C46.8522 24.6951 46.9204 24.4073 46.981 24.1346C47.034 23.8618 47.087 23.3922 47.087 23.0892C47.087 22.7937 47.034 22.2786 46.9658 21.9529C46.8977 21.6347 46.7235 21.0968 46.5644 20.7635Z" fill="#FDFDFA"/>
<path d="M47.1617 20.6347C47.0784 20.415 46.8663 20.0135 46.6846 19.7408C46.6673 19.7146 46.6509 19.6894 46.6352 19.665C46.0888 18.909 43.8819 18.0317 42.8133 17.6777L46.1824 17.5262C46.6613 17.8857 47.6382 18.6681 47.7146 18.9227C47.7903 19.0211 47.9797 19.3696 48.1463 19.7029C48.3054 20.0362 48.5099 20.5665 48.5932 20.8771C48.6841 21.1877 48.7749 21.7558 48.7977 22.127C48.828 22.6118 48.8052 23.0209 48.7219 23.5285C48.6462 23.9224 48.4871 24.5057 48.366 24.8163C48.2372 25.1268 47.9797 25.6192 47.7903 25.9147C47.5934 26.2101 47.2678 26.6268 47.0557 26.854C46.8436 27.0737 46.4649 27.407 46.215 27.5812C45.9651 27.7631 45.5031 28.0282 45.1925 28.1797C44.882 28.3312 44.3518 28.5206 44.0186 28.6115C43.5642 28.7251 43.1855 28.7706 42.5038 28.7706C41.8373 28.7706 41.4435 28.7251 41.0269 28.6191C40.7164 28.5357 40.3074 28.3918 40.1181 28.3085C39.9287 28.2176 39.8454 28.1645 39.9287 28.1948C40.0121 28.2176 40.2999 28.2858 40.5725 28.3464C40.8452 28.3994 41.345 28.4524 41.6934 28.4524C42.0343 28.4524 42.5644 28.3994 42.8674 28.3312C43.1628 28.263 43.7384 28.0585 44.1322 27.8615C44.7305 27.5813 44.9577 27.4146 45.4652 26.907C45.8439 26.5283 46.2226 26.051 46.4574 25.6495C46.6694 25.2935 46.9269 24.8314 47.033 24.6269C47.139 24.4148 47.2829 24.0284 47.3511 23.7557C47.4344 23.4451 47.4874 22.9906 47.4798 22.5058C47.4798 22.0891 47.442 21.5892 47.3965 21.3846C47.3511 21.1877 47.245 20.8468 47.1617 20.6347Z" fill="#DD740E"/>
<path d="M26.16 19.0287C26.3569 18.8242 26.728 18.5212 26.9704 18.3621C27.3718 18.1045 27.4778 18.0742 28.3791 18.0742L27.9474 18.3091C27.705 18.4378 27.3112 18.703 27.0688 18.8924C26.8265 19.0893 26.4554 19.4681 26.2509 19.7408C26.0388 20.0135 25.751 20.468 25.6147 20.7635C25.4783 21.0589 25.3117 21.5134 25.2436 21.7861C25.1754 22.074 25.1224 22.6043 25.1224 23.0739C25.1224 23.536 25.1678 24.0587 25.236 24.3239C25.2966 24.5738 25.342 24.7859 25.3344 24.8011C25.3193 24.8087 25.236 24.6572 25.1451 24.4602C25.0542 24.2557 24.9255 23.8618 24.8573 23.5663C24.7588 23.1724 24.7361 22.8315 24.7664 22.2406C24.7967 21.6119 24.8497 21.3165 25.0239 20.8392C25.1451 20.5059 25.3723 20.0438 25.5162 19.8165C25.6677 19.5893 25.9555 19.2332 26.16 19.0287Z" fill="#FDFDFA"/>
<path d="M37.4682 23.589C37.4227 23.286 37.4151 22.93 37.4454 22.8088C37.4909 22.6194 37.506 22.6648 37.5591 23.1118C37.5893 23.4072 37.6651 23.8087 37.7332 24.0208C37.8014 24.2254 37.9832 24.6344 38.1347 24.9299C38.3164 25.2783 38.6042 25.6571 38.9829 26.0283C39.3465 26.3919 39.7403 26.7025 40.0811 26.8767C40.3765 27.0358 40.5583 27.157 40.4977 27.157C40.4371 27.1646 40.1493 27.0434 39.8539 26.907C39.5585 26.7631 39.1193 26.4676 38.8769 26.248C38.627 26.0207 38.2937 25.6344 38.1347 25.3844C37.9756 25.1344 37.7711 24.748 37.6954 24.5284C37.6121 24.3163 37.506 23.8845 37.4682 23.589Z" fill="#DD740E"/>
<path d="M34.1736 24.1344C34.2796 23.8239 34.3932 23.2936 34.4235 22.9603L34.4765 22.3542L34.4992 22.9603C34.5144 23.3542 34.4765 23.7405 34.4008 24.0587C34.325 24.3314 34.1736 24.7405 34.06 24.9677C33.9464 25.195 33.7116 25.5662 33.5374 25.7783C33.3707 25.998 32.9996 26.3389 32.7194 26.5358C32.4316 26.7328 32.0529 26.9525 31.8636 27.0206C31.6742 27.0888 31.4394 27.1646 31.3334 27.1949C31.2274 27.2252 31.3485 27.1494 31.5985 27.0282C31.8484 26.907 32.2574 26.6495 32.5073 26.4601C32.7573 26.2707 33.0829 25.9677 33.2344 25.7859C33.3859 25.6041 33.6131 25.2859 33.7419 25.0814C33.8706 24.8693 34.0675 24.445 34.1736 24.1344Z" fill="#DD740E"/>
<path d="M51.9713 15.7486C52.3045 15.5971 52.7135 15.4304 52.8801 15.3774C53.0467 15.3244 53.2891 15.2789 53.4103 15.2789C53.592 15.2789 53.4633 15.3698 52.8044 15.7031C52.3499 15.938 52.0091 16.1425 52.047 16.1577C52.0849 16.1728 52.3196 16.1501 52.562 16.1122C52.7968 16.0668 53.0392 16.0516 53.0922 16.0743C53.1528 16.1046 53.1603 16.1425 53.1073 16.1804C53.0695 16.2183 52.5696 16.3698 52.0091 16.5213C51.4487 16.6728 50.9336 16.8091 50.8731 16.8319C50.8125 16.847 50.7746 16.8773 50.7973 16.8925C50.82 16.9152 51.2442 16.8697 51.744 16.794C52.2439 16.7182 52.6605 16.6728 52.6756 16.6879C52.6832 16.6955 52.6756 16.741 52.6529 16.7864C52.6302 16.8319 52.3499 16.9455 52.0318 17.044C51.7062 17.1425 51.1154 17.2864 50.0021 17.5061L51.3654 17.5818L50.7973 17.7864C50.4868 17.9 50.0248 18.0439 49.7749 18.1121C49.5249 18.1727 49.0478 18.2636 48.7145 18.3015C48.3813 18.3469 47.9874 18.3772 47.8435 18.3772C47.5785 18.3772 47.5785 18.3772 47.4421 17.8697C47.3664 17.5818 47.1922 17.0667 47.0483 16.7107C46.9044 16.3546 46.7832 16.0213 46.7832 15.9683C46.7832 15.9228 46.8438 15.8774 46.912 15.8774C46.9877 15.8774 47.3512 15.9304 47.7299 15.991C48.1086 16.0592 48.8206 16.1274 49.3204 16.1501C49.8885 16.1804 50.4413 16.1652 50.7973 16.1122C51.123 16.0592 51.6229 15.9001 51.9713 15.7486Z" fill="#DD740E"/>
<path d="M36.0051 15.4987C35.9976 16.188 35.9824 15.6577 35.9824 14.3245C35.9824 12.9912 35.9976 12.4307 36.0051 13.0746C36.0203 13.7185 36.0203 14.8093 36.0051 15.4987Z" fill="#162831"/>
<path d="M35.8261 11.8746C35.8417 11.867 37.8799 11.4614 40.3616 10.9717L44.8737 10.0688L44.8892 12.6704C44.9048 14.1089 44.8892 15.2949 44.8737 15.3178C44.8503 15.3408 44.508 15.2719 44.1113 15.1648C43.5434 15.0118 43.2166 14.9735 42.5398 14.9735C41.8085 14.9811 41.5907 15.0118 41.0617 15.1954C40.7194 15.3102 40.2215 15.5397 39.9492 15.708C39.6847 15.8687 39.4399 16.0499 39.331 16.0499C39.2221 16.0499 38.6812 16.06 38.1989 16.1289C37.7243 16.1977 37.0475 16.3355 36.7052 16.4273C36.3629 16.5191 36.0776 16.5492 35.9998 16.5799C35.8753 16.6258 35.8105 16.5497 35.8105 14.2849C35.8105 12.9611 35.8183 11.8746 35.8261 11.8746Z" fill="#1A262C"/>
<path d="M27.1412 15.0993C27.1186 15.0993 27.1035 14.0882 27.1035 12.552C27.1035 11.0157 27.1261 9.76599 27.1563 9.76599C27.1864 9.76599 29.1226 10.1958 31.4657 10.7212C33.8163 11.2465 35.8128 11.6764 35.9183 11.6764C36.0313 11.6764 36.069 11.7003 36.0087 11.7401C35.9409 11.7799 35.9258 12.1223 35.956 16.5798L35.4813 16.3968C35.2252 16.2933 34.63 16.142 34.1704 16.0624C33.7033 15.9749 33.2238 16.2674 32.9526 16.2355C32.6909 16.0637 32.2632 15.7409 32.1537 15.6583L32.1513 15.6565C32.0458 15.5769 31.7595 15.4097 31.5109 15.2824C31.2623 15.147 30.8705 14.9719 30.6445 14.8923C30.3281 14.7729 30.0192 14.7411 29.326 14.7411C28.6405 14.749 28.2713 14.7888 27.8042 14.9242C27.4576 15.0197 27.1638 15.0993 27.1412 15.0993Z" fill="#142C39"/>
<path d="M19.714 8.38544C19.7897 8.37029 23.4554 7.63548 27.8482 6.74917C32.241 5.86286 35.8916 5.12805 35.9522 5.12805C36.0128 5.12805 39.7467 5.90073 52.4252 8.57482L46.6691 9.73384C46.7499 9.71758 44.6999 10.1505 40.9509 10.9004C38.3076 11.4307 36.0582 11.8625 35.9522 11.8625C35.8461 11.8625 33.8391 11.4534 31.4836 10.9535L31.0849 10.8688C28.7332 10.3697 25.3701 9.65588 23.3872 9.2263C21.2817 8.77935 19.6306 8.40059 19.714 8.38544Z" fill="#1A364A"/>
<path d="M62.0075 11.1807C61.9848 11.1807 61.6818 10.8929 61.3258 10.5368C60.9699 10.1808 60.7124 9.89294 60.7427 9.89294C60.7729 9.89294 61.0835 10.1808 61.4243 10.5368C61.7651 10.8929 62.0302 11.1807 62.0075 11.1807Z" fill="#CAE7E8" fill-opacity="0.3"/>
<path d="M71.9817 36.4822C71.9741 36.7928 71.959 36.5731 71.959 35.9898C71.959 35.4065 71.9666 35.149 71.9817 35.4217C71.9969 35.6944 71.9969 36.1717 71.9817 36.4822Z" fill="#CAE7E8" fill-opacity="0.3"/>
<path d="M0.0302952 36.255C0.0151476 36.4444 0 36.3232 0 35.9899C0 35.6565 0.0151476 35.505 0.0302952 35.649C0.0454428 35.7929 0.0454428 36.0656 0.0302952 36.255Z" fill="#CAE7E8" fill-opacity="0.8"/>
<path d="M11.4144 62.314C11.3917 62.314 10.9827 61.9201 10.5055 61.4428C10.0284 60.9656 9.66483 60.5717 9.69512 60.5717C9.72542 60.5717 10.1344 60.9656 10.604 61.4428C11.0736 61.9201 11.4371 62.314 11.4144 62.314Z" fill="#CAE7E8" fill-opacity="0.1"/>
<path d="M11.1108 61.9352C11.0881 61.9352 10.8306 61.7003 10.5428 61.4049C10.255 61.1095 10.0429 60.8746 10.0732 60.8746C10.1035 60.8746 10.361 61.117 10.6412 61.4049C10.9215 61.7003 11.1335 61.9352 11.1108 61.9352Z" fill="#CAE7E8" fill-opacity="0.9"/>
<path d="M36.2178 71.9877C36.0512 72.0028 35.8088 72.0028 35.6877 71.9877C35.5665 71.9725 35.6952 71.9574 35.9906 71.9574C36.286 71.9574 36.3845 71.9725 36.2178 71.9877Z" fill="#CAE7E8" fill-opacity="0.8"/>
<path d="M35.9531 29.0963V26.4676V26.4601C35.9531 25.0132 35.9758 23.8314 36.0061 23.8314C36.044 23.839 36.1349 23.892 36.2258 23.9678C36.3091 24.036 36.4454 24.3011 36.5136 24.5511C36.5893 24.8011 36.7559 25.2101 36.8771 25.4601C37.0059 25.7101 37.1877 26.0283 37.2861 26.157C37.3846 26.2934 37.4679 26.4298 37.4679 26.4601C37.4679 26.4979 37.3013 26.7782 37.0968 27.0888C36.8923 27.3994 36.559 27.9827 35.9531 29.0963Z" fill="#CDA20D"/>
<path d="M36.5671 8.479L46.9771 10.1068V14.8007C47.3557 14.9143 47.8099 15.7471 46.9771 16.3149C47.5449 17.337 48.4307 19.366 47.4314 19.3054C47.4314 19.2146 47.2547 18.4853 47.1664 18.1319V19.419C47.0907 19.3685 46.909 19.2524 46.7878 19.1919C46.6667 19.1313 46.6617 19.3433 46.6743 19.4569C46.5518 19.3466 46.3248 19.0795 46.3668 18.8701C46.3296 19.0282 46.2842 19.3318 46.3714 19.419C46.4623 19.5099 46.1317 19.4821 45.955 19.4569C45.1222 19.3054 45.7203 17.1629 46.4471 16.3149C45.955 16.0878 45.8869 14.9522 46.5229 14.8007L46.3336 10.2582L36.0911 8.71698L36.5671 8.479Z" fill="#FFCC00"/>
<path d="M36.5671 8.479L46.9771 10.1068V14.8007C47.3557 14.9143 47.8099 15.7471 46.9771 16.3149C47.5449 17.337 48.4307 19.366 47.4314 19.3054C47.4314 19.2146 47.2547 18.4853 47.1664 18.1319V19.419C47.0907 19.3685 46.909 19.2524 46.7878 19.1919C46.6667 19.1313 46.6617 19.3433 46.6743 19.4569C46.5518 19.3466 46.3248 19.0795 46.3668 18.8701C46.3296 19.0282 46.2842 19.3318 46.3714 19.419C46.4623 19.5099 46.1317 19.4821 45.955 19.4569C45.1222 19.3054 45.7203 17.1629 46.4471 16.3149C45.955 16.0878 45.8869 14.9522 46.5229 14.8007L46.3336 10.2582L36.0911 8.71698L36.5671 8.479Z" fill="#FFCC00"/>
</svg>
