<svg width="24" height="24" viewBox="0 0 24 24" fill="none" xmlns="http://www.w3.org/2000/svg">
<path fill-rule="evenodd" clip-rule="evenodd" d="M4.3 4C3.42479 4 2.58542 4.34768 1.96655 4.96655C1.34768 5.58542 1 6.42479 1 7.3V16.1C1 16.9752 1.34768 17.8146 1.96655 18.4335C2.58542 19.0523 3.42479 19.4 4.3 19.4H15.3C16.1752 19.4 17.0146 19.0523 17.6335 18.4335C18.2523 17.8146 18.6 16.9752 18.6 16.1V14.3554L21.1223 16.8777C21.2761 17.0315 21.4721 17.1362 21.6855 17.1786C21.8988 17.2211 22.12 17.1993 22.3209 17.116C22.5219 17.0328 22.6937 16.8919 22.8145 16.711C22.9354 16.5302 23 16.3175 23 16.1V7.3C23 7.08247 22.9354 6.86985 22.8145 6.689C22.6937 6.50814 22.5219 6.36719 22.3209 6.28395C22.12 6.20072 21.8988 6.17893 21.6855 6.22136C21.4721 6.26378 21.2761 6.36851 21.1223 6.5223L18.6 9.0446V7.3C18.6 6.42479 18.2523 5.58542 17.6335 4.96655C17.0146 4.34768 16.1752 4 15.3 4H4.3Z" fill="#FEA800"/>
</svg>
