<svg width="24" height="24" viewBox="0 0 24 24" fill="none" xmlns="http://www.w3.org/2000/svg">
<circle cx="12" cy="12" r="12" fill="#80A3DC"/>
<path d="M4.94742 17V8.36H8.34342C8.89142 8.36 9.35142 8.472 9.72342 8.696C10.0954 8.92 10.3754 9.21 10.5634 9.566C10.7514 9.918 10.8454 10.29 10.8454 10.682C10.8454 11.158 10.7274 11.566 10.4914 11.906C10.2594 12.246 9.94542 12.478 9.54942 12.602L9.53742 12.308C10.0894 12.444 10.5134 12.71 10.8094 13.106C11.1054 13.498 11.2534 13.956 11.2534 14.48C11.2534 14.988 11.1514 15.43 10.9474 15.806C10.7474 16.182 10.4534 16.476 10.0654 16.688C9.68142 16.896 9.21542 17 8.66742 17H4.94742ZM6.21942 15.806H8.47542C8.75942 15.806 9.01342 15.752 9.23742 15.644C9.46542 15.536 9.64342 15.382 9.77142 15.182C9.90342 14.978 9.96942 14.736 9.96942 14.456C9.96942 14.196 9.91142 13.962 9.79542 13.754C9.68342 13.542 9.51942 13.376 9.30342 13.256C9.09142 13.132 8.84142 13.07 8.55342 13.07H6.21942V15.806ZM6.21942 11.888H8.32542C8.55742 11.888 8.76542 11.842 8.94942 11.75C9.13742 11.654 9.28542 11.518 9.39342 11.342C9.50542 11.162 9.56142 10.946 9.56142 10.694C9.56142 10.358 9.44942 10.082 9.22542 9.866C9.00142 9.65 8.70142 9.542 8.32542 9.542H6.21942V11.888ZM12.4474 17V8.36H15.1534C15.2334 8.36 15.3814 8.362 15.5974 8.366C15.8174 8.37 16.0274 8.386 16.2274 8.414C16.9034 8.498 17.4714 8.74 17.9314 9.14C18.3954 9.54 18.7454 10.048 18.9814 10.664C19.2174 11.276 19.3354 11.948 19.3354 12.68C19.3354 13.416 19.2174 14.092 18.9814 14.708C18.7454 15.32 18.3954 15.826 17.9314 16.226C17.4714 16.622 16.9034 16.862 16.2274 16.946C16.0274 16.974 15.8174 16.99 15.5974 16.994C15.3814 16.998 15.2334 17 15.1534 17H12.4474ZM13.7314 15.806H15.1534C15.2894 15.806 15.4514 15.802 15.6394 15.794C15.8274 15.786 15.9934 15.77 16.1374 15.746C16.5774 15.662 16.9334 15.472 17.2054 15.176C17.4814 14.876 17.6834 14.508 17.8114 14.072C17.9394 13.636 18.0034 13.172 18.0034 12.68C18.0034 12.172 17.9374 11.702 17.8054 11.27C17.6734 10.834 17.4694 10.47 17.1934 10.178C16.9214 9.882 16.5694 9.694 16.1374 9.614C15.9934 9.586 15.8254 9.57 15.6334 9.566C15.4454 9.558 15.2854 9.554 15.1534 9.554H13.7314V15.806Z" fill="white"/>
</svg>
