<svg width="32" height="32" viewBox="0 0 32 32" fill="none" xmlns="http://www.w3.org/2000/svg">
<circle cx="16" cy="16" r="15.5" fill="#77C4FF" stroke="white"/>
<path d="M11.346 21V13.74L9.72 14.73V13.332L11.346 12.36H12.624V21H11.346ZM14.9025 21V12.36H17.6085C17.6885 12.36 17.8365 12.362 18.0525 12.366C18.2725 12.37 18.4825 12.386 18.6825 12.414C19.3585 12.498 19.9265 12.74 20.3865 13.14C20.8505 13.54 21.2005 14.048 21.4365 14.664C21.6725 15.276 21.7905 15.948 21.7905 16.68C21.7905 17.416 21.6725 18.092 21.4365 18.708C21.2005 19.32 20.8505 19.826 20.3865 20.226C19.9265 20.622 19.3585 20.862 18.6825 20.946C18.4825 20.974 18.2725 20.99 18.0525 20.994C17.8365 20.998 17.6885 21 17.6085 21H14.9025ZM16.1865 19.806H17.6085C17.7445 19.806 17.9065 19.802 18.0945 19.794C18.2825 19.786 18.4485 19.77 18.5925 19.746C19.0325 19.662 19.3885 19.472 19.6605 19.176C19.9365 18.876 20.1385 18.508 20.2665 18.072C20.3945 17.636 20.4585 17.172 20.4585 16.68C20.4585 16.172 20.3925 15.702 20.2605 15.27C20.1285 14.834 19.9245 14.47 19.6485 14.178C19.3765 13.882 19.0245 13.694 18.5925 13.614C18.4485 13.586 18.2805 13.57 18.0885 13.566C17.9005 13.558 17.7405 13.554 17.6085 13.554H16.1865V19.806Z" fill="white"/>
</svg>
