<svg width="24" height="24" viewBox="0 0 24 24" fill="none" xmlns="http://www.w3.org/2000/svg">
<circle cx="12" cy="12" r="12" fill="#FDCD16"/>
<path d="M7.22278 17V13.43L4.30078 8.36H5.76478L7.85878 11.99L9.95278 8.36H11.4168L8.49478 13.43V17H7.22278ZM15.3796 17.18C14.5156 17.18 13.7796 16.992 13.1716 16.616C12.5636 16.236 12.0976 15.708 11.7736 15.032C11.4536 14.356 11.2936 13.572 11.2936 12.68C11.2936 11.788 11.4536 11.004 11.7736 10.328C12.0976 9.652 12.5636 9.126 13.1716 8.75C13.7796 8.37 14.5156 8.18 15.3796 8.18C16.3756 8.18 17.1996 8.432 17.8516 8.936C18.5076 9.44 18.9636 10.118 19.2196 10.97L17.9476 11.312C17.7796 10.708 17.4796 10.234 17.0476 9.89C16.6196 9.546 16.0636 9.374 15.3796 9.374C14.7676 9.374 14.2576 9.512 13.8496 9.788C13.4416 10.064 13.1336 10.45 12.9256 10.946C12.7216 11.442 12.6196 12.02 12.6196 12.68C12.6156 13.34 12.7156 13.918 12.9196 14.414C13.1276 14.91 13.4356 15.296 13.8436 15.572C14.2556 15.848 14.7676 15.986 15.3796 15.986C16.0636 15.986 16.6196 15.814 17.0476 15.47C17.4796 15.122 17.7796 14.648 17.9476 14.048L19.2196 14.39C18.9636 15.242 18.5076 15.92 17.8516 16.424C17.1996 16.928 16.3756 17.18 15.3796 17.18Z" fill="white"/>
</svg>
