<svg width="32" height="32" viewBox="0 0 32 32" fill="none" xmlns="http://www.w3.org/2000/svg">
<circle cx="16" cy="16" r="15.5" fill="#B1AFE9" stroke="white"/>
<path d="M8.6 20.994L8.606 19.878L12.368 16.506C12.672 16.238 12.878 15.982 12.986 15.738C13.098 15.494 13.154 15.25 13.154 15.006C13.154 14.698 13.086 14.422 12.95 14.178C12.814 13.93 12.626 13.734 12.386 13.59C12.146 13.446 11.87 13.374 11.558 13.374C11.238 13.374 10.952 13.45 10.7 13.602C10.452 13.75 10.258 13.948 10.118 14.196C9.978 14.444 9.91 14.712 9.914 15H8.63C8.63 14.44 8.756 13.95 9.008 13.53C9.264 13.106 9.614 12.776 10.058 12.54C10.502 12.3 11.01 12.18 11.582 12.18C12.126 12.18 12.614 12.304 13.046 12.552C13.478 12.796 13.818 13.132 14.066 13.56C14.318 13.988 14.444 14.476 14.444 15.024C14.444 15.42 14.392 15.756 14.288 16.032C14.184 16.308 14.028 16.564 13.82 16.8C13.612 17.036 13.352 17.292 13.04 17.568L10.136 20.16L9.998 19.8H14.444V20.994H8.6ZM19.489 21.18C18.625 21.18 17.889 20.992 17.281 20.616C16.673 20.236 16.207 19.708 15.883 19.032C15.563 18.356 15.403 17.572 15.403 16.68C15.403 15.788 15.563 15.004 15.883 14.328C16.207 13.652 16.673 13.126 17.281 12.75C17.889 12.37 18.625 12.18 19.489 12.18C20.485 12.18 21.309 12.432 21.961 12.936C22.617 13.44 23.073 14.118 23.329 14.97L22.057 15.312C21.889 14.708 21.589 14.234 21.157 13.89C20.729 13.546 20.173 13.374 19.489 13.374C18.877 13.374 18.367 13.512 17.959 13.788C17.551 14.064 17.243 14.45 17.035 14.946C16.831 15.442 16.729 16.02 16.729 16.68C16.725 17.34 16.825 17.918 17.029 18.414C17.237 18.91 17.545 19.296 17.953 19.572C18.365 19.848 18.877 19.986 19.489 19.986C20.173 19.986 20.729 19.814 21.157 19.47C21.589 19.122 21.889 18.648 22.057 18.048L23.329 18.39C23.073 19.242 22.617 19.92 21.961 20.424C21.309 20.928 20.485 21.18 19.489 21.18Z" fill="white"/>
</svg>
