<svg width="32" height="32" viewBox="0 0 32 32" fill="none" xmlns="http://www.w3.org/2000/svg">
<circle cx="16" cy="16" r="15.5" fill="#77C4FF" stroke="white"/>
<path d="M11.258 20.662C10.83 20.662 10.428 20.582 10.052 20.422C9.676 20.258 9.35 20.026 9.074 19.726C8.802 19.426 8.604 19.072 8.48 18.664L9.692 18.328C9.808 18.7 10.01 18.986 10.298 19.186C10.586 19.382 10.906 19.478 11.258 19.474C11.574 19.47 11.852 19.396 12.092 19.252C12.332 19.108 12.52 18.914 12.656 18.67C12.792 18.422 12.86 18.138 12.86 17.818C12.86 17.338 12.71 16.942 12.41 16.63C12.114 16.318 11.726 16.162 11.246 16.162C11.11 16.162 10.97 16.182 10.826 16.222C10.686 16.262 10.554 16.314 10.43 16.378L9.842 15.388L12.89 12.694L13.022 13.054H8.822V11.86H14.018V13.054L11.486 15.49L11.474 15.082C12.018 15.082 12.49 15.204 12.89 15.448C13.29 15.688 13.598 16.016 13.814 16.432C14.034 16.844 14.144 17.306 14.144 17.818C14.144 18.37 14.014 18.86 13.754 19.288C13.498 19.716 13.152 20.052 12.716 20.296C12.284 20.54 11.798 20.662 11.258 20.662ZM15.7072 20.5V11.86H18.4132C18.4932 11.86 18.6412 11.862 18.8572 11.866C19.0772 11.87 19.2872 11.886 19.4872 11.914C20.1632 11.998 20.7312 12.24 21.1912 12.64C21.6552 13.04 22.0052 13.548 22.2412 14.164C22.4772 14.776 22.5952 15.448 22.5952 16.18C22.5952 16.916 22.4772 17.592 22.2412 18.208C22.0052 18.82 21.6552 19.326 21.1912 19.726C20.7312 20.122 20.1632 20.362 19.4872 20.446C19.2872 20.474 19.0772 20.49 18.8572 20.494C18.6412 20.498 18.4932 20.5 18.4132 20.5H15.7072ZM16.9912 19.306H18.4132C18.5492 19.306 18.7112 19.302 18.8992 19.294C19.0872 19.286 19.2532 19.27 19.3972 19.246C19.8372 19.162 20.1932 18.972 20.4652 18.676C20.7412 18.376 20.9432 18.008 21.0712 17.572C21.1992 17.136 21.2632 16.672 21.2632 16.18C21.2632 15.672 21.1972 15.202 21.0652 14.77C20.9332 14.334 20.7292 13.97 20.4532 13.678C20.1812 13.382 19.8292 13.194 19.3972 13.114C19.2532 13.086 19.0852 13.07 18.8932 13.066C18.7052 13.058 18.5452 13.054 18.4132 13.054H16.9912V19.306Z" fill="white"/>
</svg>
