<svg width="24" height="24" viewBox="0 0 24 24" fill="none" xmlns="http://www.w3.org/2000/svg">
<circle cx="12" cy="12" r="12" fill="#F67EAF"/>
<path d="M5.19547 17V8.36H8.68747C8.77147 8.36 8.87547 8.364 8.99947 8.372C9.12347 8.376 9.24147 8.388 9.35347 8.408C9.83347 8.484 10.2335 8.648 10.5535 8.9C10.8775 9.152 11.1195 9.47 11.2795 9.854C11.4395 10.238 11.5195 10.662 11.5195 11.126C11.5195 11.594 11.4395 12.02 11.2795 12.404C11.1195 12.788 10.8775 13.106 10.5535 13.358C10.2335 13.61 9.83347 13.774 9.35347 13.85C9.24147 13.866 9.12147 13.878 8.99347 13.886C8.86947 13.894 8.76747 13.898 8.68747 13.898H6.44947V17H5.19547ZM6.44947 12.71H8.63947C8.71947 12.71 8.80747 12.706 8.90347 12.698C9.00347 12.69 9.09747 12.676 9.18547 12.656C9.44147 12.596 9.64747 12.486 9.80347 12.326C9.95947 12.162 10.0715 11.974 10.1395 11.762C10.2075 11.55 10.2415 11.338 10.2415 11.126C10.2415 10.914 10.2075 10.704 10.1395 10.496C10.0715 10.284 9.95947 10.098 9.80347 9.938C9.64747 9.774 9.44147 9.662 9.18547 9.602C9.09747 9.578 9.00347 9.562 8.90347 9.554C8.80747 9.546 8.71947 9.542 8.63947 9.542H6.44947V12.71ZM16.3249 17.18C15.4609 17.18 14.7249 16.992 14.1169 16.616C13.5089 16.236 13.0429 15.708 12.7189 15.032C12.3989 14.356 12.2389 13.572 12.2389 12.68C12.2389 11.788 12.3989 11.004 12.7189 10.328C13.0429 9.652 13.5089 9.126 14.1169 8.75C14.7249 8.37 15.4609 8.18 16.3249 8.18C17.3209 8.18 18.1449 8.432 18.7969 8.936C19.4529 9.44 19.9089 10.118 20.1649 10.97L18.8929 11.312C18.7249 10.708 18.4249 10.234 17.9929 9.89C17.5649 9.546 17.0089 9.374 16.3249 9.374C15.7129 9.374 15.2029 9.512 14.7949 9.788C14.3869 10.064 14.0789 10.45 13.8709 10.946C13.6669 11.442 13.5649 12.02 13.5649 12.68C13.5609 13.34 13.6609 13.918 13.8649 14.414C14.0729 14.91 14.3809 15.296 14.7889 15.572C15.2009 15.848 15.7129 15.986 16.3249 15.986C17.0089 15.986 17.5649 15.814 17.9929 15.47C18.4249 15.122 18.7249 14.648 18.8929 14.048L20.1649 14.39C19.9089 15.242 19.4529 15.92 18.7969 16.424C18.1449 16.928 17.3209 17.18 16.3249 17.18Z" fill="white"/>
</svg>
