<svg width="24" height="24" viewBox="0 0 24 24" fill="none" xmlns="http://www.w3.org/2000/svg">
<circle cx="12" cy="12" r="12" fill="#CB9AFC"/>
<path d="M4.9357 17V8.36H8.4277C8.5117 8.36 8.6157 8.364 8.7397 8.372C8.8637 8.376 8.9817 8.388 9.0937 8.408C9.5737 8.484 9.9737 8.648 10.2937 8.9C10.6177 9.152 10.8597 9.47 11.0197 9.854C11.1797 10.238 11.2597 10.662 11.2597 11.126C11.2597 11.594 11.1797 12.02 11.0197 12.404C10.8597 12.788 10.6177 13.106 10.2937 13.358C9.9737 13.61 9.5737 13.774 9.0937 13.85C8.9817 13.866 8.8617 13.878 8.7337 13.886C8.6097 13.894 8.5077 13.898 8.4277 13.898H6.1897V17H4.9357ZM6.1897 12.71H8.3797C8.4597 12.71 8.5477 12.706 8.6437 12.698C8.7437 12.69 8.8377 12.676 8.9257 12.656C9.1817 12.596 9.3877 12.486 9.5437 12.326C9.6997 12.162 9.8117 11.974 9.8797 11.762C9.9477 11.55 9.9817 11.338 9.9817 11.126C9.9817 10.914 9.9477 10.704 9.8797 10.496C9.8117 10.284 9.6997 10.098 9.5437 9.938C9.3877 9.774 9.1817 9.662 8.9257 9.602C8.8377 9.578 8.7437 9.562 8.6437 9.554C8.5477 9.546 8.4597 9.542 8.3797 9.542H6.1897V12.71ZM12.4591 17V8.36H15.1651C15.2451 8.36 15.3931 8.362 15.6091 8.366C15.8291 8.37 16.0391 8.386 16.2391 8.414C16.9151 8.498 17.4831 8.74 17.9431 9.14C18.4071 9.54 18.7571 10.048 18.9931 10.664C19.2291 11.276 19.3471 11.948 19.3471 12.68C19.3471 13.416 19.2291 14.092 18.9931 14.708C18.7571 15.32 18.4071 15.826 17.9431 16.226C17.4831 16.622 16.9151 16.862 16.2391 16.946C16.0391 16.974 15.8291 16.99 15.6091 16.994C15.3931 16.998 15.2451 17 15.1651 17H12.4591ZM13.7431 15.806H15.1651C15.3011 15.806 15.4631 15.802 15.6511 15.794C15.8391 15.786 16.0051 15.77 16.1491 15.746C16.5891 15.662 16.9451 15.472 17.2171 15.176C17.4931 14.876 17.6951 14.508 17.8231 14.072C17.9511 13.636 18.0151 13.172 18.0151 12.68C18.0151 12.172 17.9491 11.702 17.8171 11.27C17.6851 10.834 17.4811 10.47 17.2051 10.178C16.9331 9.882 16.5811 9.694 16.1491 9.614C16.0051 9.586 15.8371 9.57 15.6451 9.566C15.4571 9.558 15.2971 9.554 15.1651 9.554H13.7431V15.806Z" fill="white"/>
</svg>
