<svg width="16" height="16" viewBox="0 0 16 16" fill="none" xmlns="http://www.w3.org/2000/svg">
<path d="M8.86612 2.09863L14.6221 12.068C14.7099 12.22 14.7561 12.3924 14.7561 12.568C14.7561 12.7435 14.7099 12.9159 14.6221 13.068C14.5344 13.22 14.4081 13.3462 14.2561 13.434C14.1041 13.5218 13.9317 13.568 13.7561 13.568H2.24412C2.06858 13.568 1.89614 13.5218 1.74412 13.434C1.59211 13.3462 1.46587 13.22 1.37811 13.068C1.29034 12.9159 1.24414 12.7435 1.24414 12.568C1.24414 12.3924 1.29035 12.22 1.37812 12.068L7.13412 2.09863C7.51878 1.43197 8.48078 1.43197 8.86612 2.09863ZM8.00012 9.99997C7.8233 9.99997 7.65374 10.0702 7.52871 10.1952C7.40369 10.3203 7.33345 10.4898 7.33345 10.6666C7.33345 10.8434 7.40369 11.013 7.52871 11.138C7.65374 11.2631 7.8233 11.3333 8.00012 11.3333C8.17693 11.3333 8.3465 11.2631 8.47152 11.138C8.59654 11.013 8.66678 10.8434 8.66678 10.6666C8.66678 10.4898 8.59654 10.3203 8.47152 10.1952C8.3465 10.0702 8.17693 9.99997 8.00012 9.99997ZM8.00012 5.3333C7.83683 5.33332 7.67922 5.39327 7.5572 5.50178C7.43518 5.61028 7.35722 5.7598 7.33812 5.92197L7.33345 5.99997V8.66663C7.33364 8.83655 7.3987 8.99999 7.51535 9.12355C7.63199 9.2471 7.79142 9.32146 7.96105 9.33141C8.13067 9.34137 8.2977 9.28618 8.428 9.17712C8.55831 9.06806 8.64205 8.91336 8.66212 8.74463L8.66678 8.66663V5.99997C8.66678 5.82316 8.59654 5.65359 8.47152 5.52856C8.3465 5.40354 8.17693 5.3333 8.00012 5.3333Z" fill="#FF6E7A"/>
</svg>
