<svg width="24" height="24" viewBox="0 0 24 24" fill="none" xmlns="http://www.w3.org/2000/svg">
<mask id="mask0_910_32519" style="mask-type:alpha" maskUnits="userSpaceOnUse" x="0" y="0" width="24" height="24">
<rect width="24" height="24" fill="#D9D9D9"/>
</mask>
<g mask="url(#mask0_910_32519)">
<path d="M2.47119 19.3079V17.0846C2.47119 16.554 2.60486 16.0902 2.87219 15.6934C3.13936 15.2965 3.49411 14.986 3.93644 14.7616C4.78644 14.3283 5.68386 13.9777 6.62869 13.7099C7.57369 13.4419 8.68786 13.3079 9.97119 13.3079C10.4712 13.3079 10.9362 13.3281 11.3662 13.3684C11.7964 13.4087 12.198 13.4693 12.5712 13.5501L11.2442 14.8771C11.0609 14.8438 10.8624 14.8239 10.6489 14.8174C10.4354 14.811 10.2095 14.8079 9.97119 14.8079C8.78786 14.8079 7.75094 14.9399 6.86044 15.2039C5.97011 15.468 5.22494 15.7668 4.62494 16.1001C4.39794 16.222 4.23227 16.3643 4.12794 16.5271C4.02344 16.69 3.97119 16.8758 3.97119 17.0846V17.8079H10.0287L11.5287 19.3079H2.47119ZM15.4249 20.0539L12.3212 16.9501L13.3749 15.8964L15.4249 17.9464L20.4749 12.8964L21.5287 13.9501L15.4249 20.0539ZM9.97119 11.6924C9.00869 11.6924 8.18469 11.3497 7.49919 10.6644C6.81386 9.97888 6.47119 9.15488 6.47119 8.19238C6.47119 7.22988 6.81386 6.40597 7.49919 5.72063C8.18469 5.03513 9.00869 4.69238 9.97119 4.69238C10.9337 4.69238 11.7576 5.03513 12.4429 5.72063C13.1283 6.40597 13.4709 7.22988 13.4709 8.19238C13.4709 9.15488 13.1283 9.97888 12.4429 10.6644C11.7576 11.3497 10.9337 11.6924 9.97119 11.6924ZM9.97119 10.1924C10.5212 10.1924 10.992 9.99655 11.3837 9.60488C11.7754 9.21322 11.9712 8.74238 11.9712 8.19238C11.9712 7.64238 11.7754 7.17155 11.3837 6.77988C10.992 6.38822 10.5212 6.19238 9.97119 6.19238C9.42119 6.19238 8.95036 6.38822 8.55869 6.77988C8.16702 7.17155 7.97119 7.64238 7.97119 8.19238C7.97119 8.74238 8.16702 9.21322 8.55869 9.60488C8.95036 9.99655 9.42119 10.1924 9.97119 10.1924Z" fill="white"/>
</g>
</svg>
