<svg width="24" height="24" viewBox="0 0 24 24" fill="none" xmlns="http://www.w3.org/2000/svg">
<g opacity="0.7">
<path fill-rule="evenodd" clip-rule="evenodd" d="M7.49997 3.3C7.49997 3.15858 7.49997 3.08787 7.45604 3.04393C7.4121 3 7.34139 3 7.19997 3H7C5.11438 3 4.17157 3 3.58579 3.58579C3 4.17157 3 5.11438 3 7V19C3 20.8856 3 21.8284 3.58579 22.4142C4.17157 23 5.11438 23 7 23H17.6666C19.5522 23 20.4951 23 21.0808 22.4142C21.6666 21.8284 21.6666 20.8856 21.6666 19V7C21.6666 5.11438 21.6666 4.17157 21.0808 3.58579C20.4951 3 19.5522 3 17.6666 3H17.4666C17.3252 3 17.2545 3 17.2106 3.04393C17.1666 3.08787 17.1666 3.15858 17.1666 3.3V4.99987C17.1666 5.8283 16.4951 6.49987 15.6666 6.49987C14.8382 6.49987 14.1666 5.8283 14.1666 4.99987V3.3C14.1666 3.15858 14.1666 3.08787 14.1227 3.04393C14.0788 3 14.008 3 13.8666 3H10.8C10.6586 3 10.5878 3 10.5439 3.04393C10.5 3.08787 10.5 3.15858 10.5 3.3V4.99987C10.5 5.8283 9.8284 6.49987 8.99997 6.49987C8.17154 6.49987 7.49997 5.8283 7.49997 4.99987V3.3Z" fill="white"/>
<path d="M9 1V4.99999" stroke="white" stroke-linecap="round"/>
<path d="M15.667 1V4.99999" stroke="white" stroke-linecap="round"/>
</g>
</svg>
