<svg width="64" height="64" viewBox="0 0 64 64" fill="none" xmlns="http://www.w3.org/2000/svg">
<circle cx="32" cy="32" r="32" fill="#FF3B30"/>
<path d="M23.4887 47C22.6027 47 21.8458 46.6863 21.218 46.0588C20.5905 45.431 20.2768 44.6741 20.2768 43.788V21.2367H18.5V18.5716H26.4955V17H37.1562V18.5716H45.1517V21.2367H43.3749V43.788C43.3749 44.6856 43.0639 45.4453 42.4421 46.0672C41.8202 46.6891 41.0605 47 40.1629 47H23.4887ZM40.7097 21.2367H22.9419V43.788C22.9419 43.9476 22.9932 44.0787 23.0956 44.1811C23.1981 44.2836 23.3291 44.3348 23.4887 44.3348H40.1629C40.2997 44.3348 40.425 44.2778 40.5387 44.1638C40.6527 44.0501 40.7097 43.9248 40.7097 43.788V21.2367ZM27.2133 40.7813H29.878V24.7903H27.2133V40.7813ZM33.7736 40.7813H36.4383V24.7903H33.7736V40.7813Z" fill="white"/>
</svg>
