<svg width="20" height="20" viewBox="0 0 20 20" fill="none" xmlns="http://www.w3.org/2000/svg">
<path d="M15.8333 5.33317H15.354L15.3338 5.81206L15.3316 5.86398L14.5546 16.7492L14.5546 16.7493C14.5336 17.0437 14.4019 17.3191 14.186 17.5203C13.9701 17.7214 13.6859 17.8332 13.3908 17.8332H6.60833C6.31324 17.8332 6.02911 17.7214 5.81317 17.5203C5.59723 17.3191 5.46552 17.0437 5.44457 16.7493L5.44456 16.7492L4.66784 5.86841L4.66647 5.81929L4.65297 5.33317H4.16667H3.33333C3.24493 5.33317 3.16014 5.29805 3.09763 5.23554C3.03512 5.17303 3 5.08824 3 4.99984C3 4.91143 3.03512 4.82665 3.09763 4.76414C3.16014 4.70162 3.24493 4.6665 3.33333 4.6665H16.6667C16.7551 4.6665 16.8399 4.70162 16.9024 4.76414C16.9649 4.82665 17 4.91143 17 4.99984C17 5.08824 16.9649 5.17303 16.9024 5.23554C16.8399 5.29805 16.7551 5.33317 16.6667 5.33317H15.8333ZM11.6667 2.1665C11.7551 2.1665 11.8399 2.20162 11.9024 2.26413C11.9649 2.32665 12 2.41143 12 2.49984C12 2.58824 11.9649 2.67303 11.9024 2.73554C11.8399 2.79805 11.7551 2.83317 11.6667 2.83317H8.33333C8.24493 2.83317 8.16014 2.79805 8.09763 2.73554C8.03512 2.67303 8 2.58824 8 2.49984C8 2.41143 8.03512 2.32665 8.09763 2.26413C8.16014 2.20162 8.24493 2.1665 8.33333 2.1665H11.6667Z" stroke="#162831"/>
</svg>
