<svg width="16" height="16" viewBox="0 0 16 16" fill="none" xmlns="http://www.w3.org/2000/svg">
<path d="M12.671 2.4216C12.4488 2.2933 12.1858 2.25532 11.9364 2.3155C11.687 2.37568 11.4703 2.52943 11.331 2.74494L9.22803 5.99994H11.9774L13.1174 3.77627C13.2344 3.54792 13.2592 3.28329 13.1867 3.03716C13.1141 2.79102 12.9496 2.58221 12.7274 2.45394L12.671 2.4216Z" fill="#5978F7"/>
<path fill-rule="evenodd" clip-rule="evenodd" d="M14.3332 7.33317H13.6665V8.33317C13.6665 10.2612 12.4072 11.8952 10.6665 12.4575V13.6665C10.6665 13.7549 10.6314 13.8397 10.5689 13.9022C10.5064 13.9647 10.4216 13.9998 10.3332 13.9998H5.6665C5.5781 13.9998 5.49331 13.9647 5.4308 13.9022C5.36829 13.8397 5.33317 13.7549 5.33317 13.6665V12.4575C3.5925 11.8952 2.33317 10.2612 2.33317 8.33317V7.33317H1.6665V6.6665H14.3332V7.33317ZM5.99984 12.6665V13.3332H9.99984V12.6665H5.99984Z" fill="#5978F7"/>
</svg>
