<svg width="64" height="64" viewBox="0 0 64 64" fill="none" xmlns="http://www.w3.org/2000/svg">
<circle cx="32" cy="32" r="32" fill="#80A3DC"/>
<path d="M15 42.6123V21.6123H23.025C24.32 21.6123 25.407 21.8845 26.2861 22.429C27.1651 22.9734 27.8268 23.6783 28.2711 24.5436C28.7153 25.3991 28.9374 26.3033 28.9374 27.2561C28.9374 28.413 28.6586 29.4047 28.1009 30.2311C27.5527 31.0574 26.8107 31.6213 25.8749 31.9227L25.8465 31.2081C27.151 31.5387 28.1529 32.1852 28.8524 33.1477C29.5518 34.1005 29.9016 35.2137 29.9016 36.4873C29.9016 37.722 29.6606 38.7963 29.1785 39.7102C28.7059 40.6241 28.0111 41.3387 27.0942 41.854C26.1868 42.3595 25.0856 42.6123 23.7907 42.6123H15ZM18.0058 39.7102H23.3369C24.0081 39.7102 24.6083 39.579 25.1376 39.3165C25.6764 39.054 26.097 38.6797 26.3995 38.1936C26.7114 37.6977 26.8674 37.1095 26.8674 36.429C26.8674 35.797 26.7303 35.2283 26.4562 34.7227C26.1915 34.2074 25.804 33.804 25.2936 33.5123C24.7926 33.2109 24.2018 33.0602 23.5213 33.0602H18.0058V39.7102ZM18.0058 30.1873H22.9825C23.5307 30.1873 24.0222 30.0755 24.457 29.8519C24.9013 29.6186 25.251 29.288 25.5063 28.8602C25.7709 28.4227 25.9033 27.8977 25.9033 27.2852C25.9033 26.4686 25.6386 25.7977 25.1093 25.2727C24.5799 24.7477 23.871 24.4852 22.9825 24.4852H18.0058V30.1873Z" fill="white"/>
<path d="M32.7231 42.6123V21.6123H39.1176C39.3066 21.6123 39.6564 21.6172 40.1668 21.6269C40.6867 21.6366 41.1829 21.6755 41.6555 21.7436C43.253 21.9477 44.5952 22.5359 45.6822 23.5081C46.7787 24.4804 47.6058 25.7151 48.1635 27.2123C48.7212 28.6998 49 30.3331 49 32.1123C49 33.9012 48.7212 35.5442 48.1635 37.0415C47.6058 38.529 46.7787 39.7588 45.6822 40.7311C44.5952 41.6936 43.253 42.2769 41.6555 42.4811C41.1829 42.5491 40.6867 42.588 40.1668 42.5977C39.6564 42.6074 39.3066 42.6123 39.1176 42.6123H32.7231ZM35.7573 39.7102H39.1176C39.439 39.7102 39.8218 39.7005 40.2661 39.6811C40.7103 39.6616 41.1026 39.6227 41.4429 39.5644C42.4826 39.3602 43.3239 38.8984 43.9666 38.179C44.6188 37.4498 45.0962 36.5554 45.3987 35.4956C45.7011 34.4359 45.8524 33.3081 45.8524 32.1123C45.8524 30.8776 45.6964 29.7352 45.3845 28.6852C45.0726 27.6255 44.5905 26.7408 43.9383 26.0311C43.2955 25.3116 42.4637 24.8547 41.4429 24.6602C41.1026 24.5922 40.7056 24.5533 40.2519 24.5436C39.8076 24.5241 39.4295 24.5144 39.1176 24.5144H35.7573V39.7102Z" fill="white"/>
</svg>
