<svg width="16" height="16" viewBox="0 0 16 16" fill="none" xmlns="http://www.w3.org/2000/svg">
<path d="M2.66659 13.3332C2.29992 13.3332 1.98325 13.2054 1.71659 12.9498C1.46103 12.6832 1.33325 12.3665 1.33325 11.9998V3.99984C1.33325 3.63317 1.46103 3.32206 1.71659 3.0665C1.98325 2.79984 2.29992 2.6665 2.66659 2.6665H13.3333C13.6999 2.6665 14.011 2.79984 14.2666 3.0665C14.5333 3.32206 14.6666 3.63317 14.6666 3.99984V11.9998C14.6666 12.3665 14.5333 12.6832 14.2666 12.9498C14.011 13.2054 13.6999 13.3332 13.3333 13.3332H2.66659ZM7.99992 8.6665L13.3333 5.33317V3.99984L7.99992 7.33317L2.66659 3.99984V5.33317L7.99992 8.6665Z" fill="#2C63E2"/>
</svg>
