<svg width="16" height="16" viewBox="0 0 16 16" fill="none" xmlns="http://www.w3.org/2000/svg">
<path d="M13.1125 4.34531C13.0799 4.24501 13.0164 4.1576 12.931 4.09557C12.8457 4.03355 12.743 4.0001 12.6375 4H11.5V2.25C11.5 1.97344 11.2766 1.75 11 1.75H5C4.72344 1.75 4.5 1.97344 4.5 2.25V4H3.3625C3.25696 3.99986 3.15411 4.03322 3.06875 4.09528C2.98338 4.15733 2.91992 4.24488 2.8875 4.34531L1.75 7.84375V13.75C1.75 14.0266 1.97344 14.25 2.25 14.25H13.75C14.0266 14.25 14.25 14.0266 14.25 13.75V7.84375L13.1125 4.34531ZM10.3125 9.8125C10.3125 9.88125 10.2563 9.9375 10.1875 9.9375H8.5V11.625C8.5 11.6938 8.44375 11.75 8.375 11.75H7.625C7.55625 11.75 7.5 11.6938 7.5 11.625V9.9375H5.8125C5.74375 9.9375 5.6875 9.88125 5.6875 9.8125V9.0625C5.6875 8.99375 5.74375 8.9375 5.8125 8.9375H7.5V7.25C7.5 7.18125 7.55625 7.125 7.625 7.125H8.375C8.44375 7.125 8.5 7.18125 8.5 7.25V8.9375H10.1875C10.2563 8.9375 10.3125 8.99375 10.3125 9.0625V9.8125ZM10.375 4H5.625V2.875H10.375V4Z" fill="#D30C1D"/>
</svg>
