<svg width="17" height="17" viewBox="0 0 17 17" fill="none" xmlns="http://www.w3.org/2000/svg">
<mask id="mask0_910_32588" style="mask-type:alpha" maskUnits="userSpaceOnUse" x="0" y="0" width="17" height="17">
<rect width="17" height="17" fill="#D9D9D9"/>
</mask>
<g mask="url(#mask0_910_32588)">
<path d="M0.878333 13.5031L0 12.625L4.2725 8.3525C4.72125 7.90917 5.26208 7.68618 5.895 7.68354C6.52806 7.6809 7.06896 7.90389 7.51771 8.3525L8.47604 9.31083C8.68549 9.52028 8.93278 9.62368 9.21792 9.62104C9.5032 9.6184 9.75056 9.515 9.96 9.31083L14.029 5.25H11.5867V4H16.17V8.58333H14.92V6.14104L10.8381 10.2019C10.3895 10.6452 9.84736 10.8683 9.21167 10.871C8.57597 10.8737 8.03646 10.6533 7.59313 10.21L6.61396 9.23083C6.41299 9.02986 6.1691 8.93076 5.88229 8.93354C5.59535 8.93618 5.35146 9.03528 5.15063 9.23083L0.878333 13.5031Z" fill="#00AC5E"/>
</g>
</svg>
