<svg width="16" height="16" viewBox="0 0 16 16" fill="none" xmlns="http://www.w3.org/2000/svg">
<path d="M14.0733 15.0202L12.386 13.3335H3.07732C2.77866 13.3335 2.52444 13.2286 2.31466 13.0188C2.10488 12.809 1.99999 12.555 1.99999 12.2568V5.07683C1.99999 4.77905 2.10488 4.52505 2.31466 4.31483C2.52444 4.10505 2.77866 4.00016 3.07732 4.00016H4.00399V4.95149L1.25732 2.20483L1.73332 1.72949L14.5487 14.5448L14.0733 15.0202ZM14 12.1228L10.4707 8.58949C10.4662 8.2766 10.4018 7.97327 10.2773 7.67949C10.1529 7.38616 9.97955 7.12838 9.75732 6.90616C9.53777 6.68616 9.28132 6.51416 8.98799 6.39016C8.69466 6.26571 8.39132 6.20127 8.07799 6.19683L5.44866 3.57083L6.28199 2.66683H9.71799L10.9513 4.00016H12.9233C13.2211 4.00016 13.4751 4.10505 13.6853 4.31483C13.8951 4.5246 14 4.77883 14 5.07749V12.1228ZM7.99999 11.1548C8.29821 11.1548 8.58399 11.1035 8.85732 11.0008C9.13021 10.8986 9.37777 10.7477 9.59999 10.5482L6.11932 7.06683C5.92021 7.28905 5.76932 7.53683 5.66666 7.81016C5.56443 8.08305 5.51332 8.3686 5.51332 8.66683C5.51332 9.35483 5.75555 9.94149 6.23999 10.4268C6.72532 10.9113 7.31199 11.1535 7.99999 11.1535M7.99999 10.4868C7.49066 10.4868 7.05977 10.3108 6.70732 9.95883C6.35488 9.60683 6.1791 9.17616 6.17999 8.66683C6.17999 8.41883 6.22599 8.18571 6.31799 7.96749C6.40999 7.74883 6.54221 7.55327 6.71466 7.38083L9.28666 9.95283C9.11377 10.1253 8.91821 10.2575 8.69999 10.3495C8.48177 10.4415 8.24844 10.4875 7.99999 10.4875" fill="#3EBCC8"/>
</svg>
