<svg width="16" height="16" viewBox="0 0 16 16" fill="none" xmlns="http://www.w3.org/2000/svg">
<mask id="mask0_910_32534" style="mask-type:alpha" maskUnits="userSpaceOnUse" x="0" y="0" width="16" height="16">
<rect width="16" height="16" fill="#D9D9D9"/>
</mask>
<g mask="url(#mask0_910_32534)">
<path d="M5.33317 12.0002H10.6665V10.6668H5.33317V12.0002ZM5.33317 9.3335H10.6665V8.00016H5.33317V9.3335ZM3.99984 14.6668C3.63317 14.6668 3.31928 14.5363 3.05817 14.2752C2.79706 14.0141 2.6665 13.7002 2.6665 13.3335V2.66683C2.6665 2.30016 2.79706 1.98627 3.05817 1.72516C3.31928 1.46405 3.63317 1.3335 3.99984 1.3335H9.33317L13.3332 5.3335V13.3335C13.3332 13.7002 13.2026 14.0141 12.9415 14.2752C12.6804 14.5363 12.3665 14.6668 11.9998 14.6668H3.99984ZM8.6665 6.00016H11.9998L8.6665 2.66683V6.00016Z" fill="#CD8362"/>
</g>
</svg>
