<svg width="24" height="24" viewBox="0 0 24 24" fill="none" xmlns="http://www.w3.org/2000/svg">
<circle cx="12" cy="12" r="12" fill="#FDA758"/>
<path d="M7.86202 17.18C6.99802 17.18 6.26202 16.992 5.65402 16.616C5.04602 16.236 4.58002 15.708 4.25602 15.032C3.93602 14.356 3.77602 13.572 3.77602 12.68C3.77602 11.788 3.93602 11.004 4.25602 10.328C4.58002 9.652 5.04602 9.126 5.65402 8.75C6.26202 8.37 6.99802 8.18 7.86202 8.18C8.72202 8.18 9.45602 8.37 10.064 8.75C10.676 9.126 11.142 9.652 11.462 10.328C11.782 11.004 11.942 11.788 11.942 12.68C11.942 13.572 11.782 14.356 11.462 15.032C11.142 15.708 10.676 16.236 10.064 16.616C9.45602 16.992 8.72202 17.18 7.86202 17.18ZM7.86202 15.986C8.47402 15.994 8.98202 15.86 9.38602 15.584C9.79402 15.304 10.1 14.916 10.304 14.42C10.508 13.92 10.61 13.34 10.61 12.68C10.61 12.02 10.508 11.444 10.304 10.952C10.1 10.456 9.79402 10.07 9.38602 9.794C8.98202 9.518 8.47402 9.378 7.86202 9.374C7.25002 9.366 6.74002 9.5 6.33202 9.776C5.92802 10.052 5.62402 10.44 5.42002 10.94C5.21602 11.44 5.11202 12.02 5.10802 12.68C5.10402 13.34 5.20402 13.918 5.40802 14.414C5.61202 14.906 5.91802 15.29 6.32602 15.566C6.73802 15.842 7.25002 15.982 7.86202 15.986ZM13.1388 17V8.36H15.8448C15.9248 8.36 16.0728 8.362 16.2888 8.366C16.5088 8.37 16.7188 8.386 16.9188 8.414C17.5948 8.498 18.1628 8.74 18.6228 9.14C19.0868 9.54 19.4368 10.048 19.6728 10.664C19.9088 11.276 20.0268 11.948 20.0268 12.68C20.0268 13.416 19.9088 14.092 19.6728 14.708C19.4368 15.32 19.0868 15.826 18.6228 16.226C18.1628 16.622 17.5948 16.862 16.9188 16.946C16.7188 16.974 16.5088 16.99 16.2888 16.994C16.0728 16.998 15.9248 17 15.8448 17H13.1388ZM14.4228 15.806H15.8448C15.9808 15.806 16.1428 15.802 16.3308 15.794C16.5188 15.786 16.6848 15.77 16.8288 15.746C17.2688 15.662 17.6248 15.472 17.8968 15.176C18.1728 14.876 18.3748 14.508 18.5028 14.072C18.6308 13.636 18.6948 13.172 18.6948 12.68C18.6948 12.172 18.6288 11.702 18.4968 11.27C18.3648 10.834 18.1608 10.47 17.8848 10.178C17.6128 9.882 17.2608 9.694 16.8288 9.614C16.6848 9.586 16.5168 9.57 16.3248 9.566C16.1368 9.558 15.9768 9.554 15.8448 9.554H14.4228V15.806Z" fill="white"/>
</svg>
