<svg width="24" height="24" viewBox="0 0 24 24" fill="none" xmlns="http://www.w3.org/2000/svg">
<mask id="mask0_910_32722" style="mask-type:alpha" maskUnits="userSpaceOnUse" x="0" y="0" width="24" height="24">
<rect width="24" height="24" fill="#D9D9D9"/>
</mask>
<g mask="url(#mask0_910_32722)">
<path fill-rule="evenodd" clip-rule="evenodd" d="M11.8228 0.394531C5.55396 0.394531 0.477539 5.48231 0.477539 11.7512C0.477539 18.02 5.55396 23.1078 11.8228 23.1078C18.103 23.1078 23.1908 18.02 23.1908 11.7512C23.1908 5.48231 18.103 0.394531 11.8228 0.394531ZM11.834 20.8365C6.81439 20.8365 2.74871 16.7708 2.74871 11.7512C2.74871 6.73155 6.81439 2.66588 11.834 2.66588C16.8537 2.66588 20.9193 6.73155 20.9193 11.7512C20.9193 16.7708 16.8537 20.8365 11.834 20.8365ZM11.5847 6.07281H11.5165C11.0623 6.07281 10.6989 6.43622 10.6989 6.89049V12.2508C10.6989 12.6483 10.9033 13.0231 11.2553 13.2275L15.9683 16.0553C16.3545 16.2824 16.8542 16.1689 17.0813 15.7827C17.3198 15.3966 17.1949 14.8856 16.7974 14.6584L12.4023 12.0464V6.89049C12.4023 6.43622 12.0389 6.07281 11.5847 6.07281V6.07281Z" fill="#573353"/>
</g>
</svg>
