<svg width="509" height="207" viewBox="0 0 509 207" fill="none" xmlns="http://www.w3.org/2000/svg">
<g opacity="0.6">
<rect width="509" height="207" rx="12" fill="#B1AFE9" fill-opacity="0.1"/>
<path d="M382.719 149.264C382.628 153.709 382.283 158.141 381.848 162.563C381.834 162.658 381.857 162.739 381.893 162.806C348.625 162.816 315.362 162.825 282.099 162.84C248.863 162.849 215.632 162.864 182.4 162.873C163.802 162.877 145.204 162.887 126.602 162.892C124.007 156.597 125.073 148.964 129.06 143.565C133.415 137.671 141.213 136.67 145.363 130.523C149.214 124.834 149.768 117.434 150.434 110.705C151.092 104.049 152.258 96.3483 157.098 91.5074C162.85 85.7511 171.246 87.605 178.427 86.9568C185.204 86.3421 190.724 82.7541 194.72 77.0314C204.174 63.4748 201.311 45.4869 207.29 30.5342C210.107 23.4819 214.924 17.5637 221.91 14.9241C228.705 12.3508 236.239 12.8226 243.188 14.4193C250.877 16.187 258.108 19.5609 265.529 22.2245C269.448 23.6302 273.444 24.8595 277.536 25.5694C281.609 26.2698 285.642 26.2748 289.747 25.984C293.825 25.6982 297.903 25.4075 301.926 26.3174C305.21 27.0559 308.349 28.4235 311.198 30.2915C317.041 34.1177 321.622 40.0454 323.709 46.9643C327.659 60.0727 323.622 76.2929 332.604 87.5433C341.095 98.1791 356.096 97.9359 366.416 105.679C379.48 115.484 383.045 133.391 382.719 149.264Z" fill="#F1F4FF"/>
<path d="M383.892 162.342L383.878 162.425H268.077C268.98 159.386 271.506 156.929 274.38 155.471C277.618 153.836 281.279 153.281 284.872 152.747C281.882 149.352 279.712 145.239 278.603 140.852C277.747 137.499 277.816 133.31 280.663 131.353C282.552 130.052 285.077 130.189 287.308 130.703C291.346 131.627 295.138 133.598 298.204 136.383C297.362 130.354 297.663 124.174 299.073 118.254C299.935 114.667 301.701 110.684 305.274 109.76C308.504 108.918 311.783 111.019 314.082 113.442C317.449 116.994 319.811 121.49 320.83 126.281C324.444 119.862 328.201 113.271 333.991 108.72C337.05 106.317 341.314 104.538 344.764 106.344C347.207 107.624 348.542 110.431 348.788 113.182C349.028 115.926 348.357 118.664 347.686 121.333C346.789 124.919 345.893 128.506 344.996 132.085C349.363 129.347 354.27 127.479 359.348 126.617C361.408 126.268 363.653 126.117 365.474 127.144C367.992 128.567 368.889 131.907 368.328 134.741C367.774 137.581 366.076 140.038 364.42 142.406C362.86 144.638 361.299 146.862 359.739 149.093C364.639 147.67 370.087 148.265 374.557 150.715C379.033 153.171 382.462 157.449 383.892 162.342Z" fill="#99ACFB"/>
<path d="M308.018 127.988V162.131C308.018 162.572 308.702 162.569 308.702 162.128V127.984C308.702 127.544 308.018 127.547 308.018 127.988Z" fill="#5978F7"/>
<path d="M341.45 145.843C339.354 148.476 337.359 151.186 335.463 153.966V143.485C335.492 143.428 335.504 143.366 335.501 143.304C337.069 140.775 338.74 138.313 340.512 135.923C340.774 135.571 340.179 135.231 339.919 135.581C338.353 137.693 336.87 139.865 335.463 142.086V126.139C335.463 125.699 334.778 125.701 334.778 126.143V142.782C332.348 141.613 329.723 140.89 327.351 139.592C326.965 139.381 326.622 139.973 327.009 140.185C329.493 141.544 332.255 142.27 334.778 143.541V153.9C332.605 152.669 330.464 151.383 328.368 150.025C327.998 149.785 327.657 150.379 328.026 150.618C330.233 152.047 332.487 153.403 334.778 154.692V161.67C334.778 162.11 335.463 162.108 335.463 161.666V155.15C335.478 155.134 335.496 155.123 335.509 155.103C337.531 152.094 339.672 149.167 341.93 146.331C342.202 145.99 341.724 145.5 341.45 145.843Z" fill="#5978F7"/>
<path d="M314.216 131.992C312.007 134.696 309.956 137.524 308.075 140.465C307.837 140.836 308.431 141.177 308.668 140.807C310.516 137.917 312.527 135.136 314.696 132.479C314.972 132.141 314.494 131.651 314.216 131.992Z" fill="#5978F7"/>
<path d="M314.877 148.249C312.479 150.872 310.231 153.629 308.14 156.504C307.882 156.859 308.476 157.199 308.733 156.846C310.788 154.02 313.001 151.314 315.358 148.736C315.655 148.412 315.175 147.924 314.877 148.249Z" fill="#5978F7"/>
<path d="M308.416 148.743C307.712 147.623 306.686 146.691 305.789 145.728C304.834 144.702 303.88 143.675 302.925 142.65C302.624 142.327 302.138 142.809 302.437 143.131C303.365 144.128 304.293 145.125 305.221 146.122C305.678 146.613 306.135 147.104 306.593 147.596C307.032 148.067 307.477 148.534 307.821 149.082C308.056 149.454 308.651 149.116 308.416 148.743Z" fill="#5978F7"/>
<path d="M308.576 133.953C306.917 132.08 305.171 130.286 303.343 128.578C303.021 128.277 302.533 128.757 302.855 129.058C304.683 130.767 306.429 132.56 308.089 134.433C308.382 134.764 308.868 134.282 308.576 133.953Z" fill="#5978F7"/>
<path d="M233.873 162.408H125.066H125.059C124.539 159.253 127.537 156.399 130.534 155.037C135.188 152.916 140.588 152.477 145.523 153.812C142.737 150.739 140.089 147.378 138.905 143.402C137.721 139.426 138.296 134.69 141.28 131.808C143.983 129.2 148.199 128.592 151.827 129.577C155.461 130.563 158.568 132.931 161.189 135.627C158.705 129.365 158.678 122.165 161.114 115.882C162.243 112.967 164.413 109.907 167.541 109.791C169.115 109.736 170.621 110.462 171.907 111.379C175.309 113.795 177.581 117.545 178.936 121.494C180.291 125.436 180.811 129.618 181.318 133.759C182.858 130.754 185.096 128.12 187.799 126.107C190.564 124.061 194.376 122.685 197.394 124.335C200.364 125.957 201.281 129.776 201.48 133.164C201.733 137.503 201.329 141.883 200.268 146.099C203.821 143.375 208.03 141.411 212.478 140.911C216.927 140.405 221.608 141.445 225.167 144.162C230.656 148.35 232.654 155.605 233.873 162.408Z" fill="#99ACFB"/>
<path d="M169.349 151.369V142.436C169.396 142.409 169.439 142.373 169.472 142.316C171.429 138.98 173.565 135.752 175.872 132.648C176.134 132.295 175.539 131.956 175.279 132.306C173.153 135.167 171.179 138.138 169.349 141.197V120.19C169.349 119.749 168.665 119.752 168.665 120.194V150.586C166.199 148.044 163.799 145.438 161.485 142.757C161.197 142.423 160.711 142.906 160.997 143.237C163.466 146.097 166.024 148.879 168.665 151.581V161.535C168.665 161.975 169.349 161.973 169.349 161.531V159.124C171.077 156.641 172.995 154.297 175.084 152.109C175.388 151.791 174.908 151.303 174.604 151.622C172.706 153.61 170.957 155.734 169.35 157.963V151.519C169.361 151.47 169.363 151.42 169.349 151.369Z" fill="#5978F7"/>
<path d="M195.801 141.17C193.975 143.495 192.283 145.918 190.72 148.427C190.766 146.494 190.807 144.562 190.866 142.629C190.92 140.841 190.981 139.053 191.046 137.266C191.063 136.825 190.378 136.829 190.362 137.269C190.146 143.152 189.996 149.038 189.899 154.925C187.68 153.694 185.553 152.306 183.543 150.757C183.195 150.489 182.857 151.084 183.201 151.35C185.31 152.975 187.545 154.428 189.883 155.702C189.88 155.888 189.874 156.074 189.871 156.26C189.845 158.049 189.823 159.838 189.807 161.627C189.803 162.067 190.488 162.064 190.492 161.623C190.51 159.605 190.538 157.588 190.572 155.57C190.585 155.52 190.587 155.468 190.575 155.417C190.608 153.499 190.646 151.581 190.689 149.664C190.742 149.638 190.791 149.601 190.829 149.538C192.489 146.806 194.307 144.172 196.282 141.657C196.55 141.315 196.072 140.824 195.801 141.17Z" fill="#5978F7"/>
<path d="M155.523 151.268C154.046 153.028 152.659 154.862 151.347 156.748C151.47 154.346 151.575 151.943 151.647 149.538C151.66 149.098 150.976 149.101 150.963 149.542C150.836 153.759 150.631 157.974 150.349 162.184C150.319 162.623 151.004 162.618 151.033 162.18C151.132 160.712 151.208 159.242 151.288 157.772C151.387 157.767 151.486 157.726 151.556 157.623C152.941 155.595 154.425 153.637 156.004 151.755C156.285 151.421 155.806 150.931 155.523 151.268Z" fill="#5978F7"/>
<path d="M180.412 162.411H320.56C320.56 162.411 339.442 107.861 294.921 110.979C294.921 110.979 291.196 73.5557 252.651 73.5557C214.106 73.5557 208.63 114.271 208.63 114.271C208.63 114.271 162.416 101.105 180.412 162.411Z" fill="#FFFEFD"/>
<path d="M320.558 162.411H225.301C269.846 161.07 254.094 129.575 254.094 129.575C301.675 120.333 276.822 80.2417 276.822 80.2417C292.934 90.9999 294.921 110.979 294.921 110.979C339.441 107.861 320.558 162.411 320.558 162.411Z" fill="#E9EDFF"/>
<path d="M281.386 92.9217L277.472 95.5435C277.385 95.4165 276.746 94.5048 275.539 93.2347C274.832 92.4862 273.924 91.6107 272.818 90.7081C272.763 90.6627 272.709 90.6173 272.654 90.572C270.903 89.1567 268.667 87.6734 265.936 86.4487C263.813 85.5006 261.391 84.7068 258.66 84.226C258.615 84.2214 258.565 84.2124 258.506 84.2033C256.819 83.913 255.018 83.7452 253.09 83.7361C253.013 83.7315 252.936 83.7316 252.868 83.7316C251.679 83.7316 250.545 83.7724 249.461 83.8495C247.765 83.9629 246.186 84.167 244.717 84.4392C244.286 84.5163 243.859 84.6025 243.446 84.6977C242.748 84.8474 242.072 85.0198 241.419 85.2012C239.854 85.6458 238.43 86.1584 237.146 86.7254C235.957 87.247 234.887 87.805 233.925 88.381C233.771 88.4718 233.621 88.5625 233.476 88.6532C232.564 89.2248 231.752 89.8099 231.036 90.3769C230.31 90.9575 229.688 91.5245 229.153 92.0553C229.031 92.1732 228.913 92.2911 228.804 92.4091C227.212 94.0602 226.54 95.294 226.522 95.3349L222.358 93.1303C222.453 92.9307 223.397 91.207 225.515 89.0252C226.051 88.4763 226.658 87.8957 227.352 87.306C228.228 86.553 229.235 85.7773 230.387 85.0243C230.841 84.725 231.312 84.4301 231.811 84.1398C232.338 83.8313 232.891 83.5274 233.467 83.2371C235.658 82.1167 238.23 81.1142 241.219 80.3703C241.419 80.3204 241.623 80.2705 241.836 80.2252C242.358 80.1027 242.893 79.9847 243.437 79.8804C244.857 79.6037 246.359 79.386 247.955 79.2408C248.763 79.1637 249.606 79.1093 250.464 79.073C250.695 79.0639 250.926 79.0548 251.167 79.0458C251.72 79.0276 252.283 79.0186 252.868 79.0186C253.067 79.0186 253.276 79.0186 253.476 79.0231C254.17 79.0367 254.846 79.0639 255.503 79.1093C255.957 79.141 256.406 79.1773 256.846 79.2227C256.928 79.2272 257.014 79.2363 257.096 79.2454C264.63 80.0709 270.345 82.9967 274.342 85.9361C274.954 86.3897 275.53 86.8388 276.061 87.2878C277.131 88.1769 278.039 89.0433 278.783 89.8144C280.411 91.5019 281.273 92.7538 281.386 92.9217Z" fill="#272742"/>
<path d="M203.389 119.832C202.194 119.311 200.854 119.285 199.565 119.321C198.394 119.354 197.218 119.498 196.071 119.736C193.727 120.224 191.445 121.158 189.434 122.456C185.341 125.097 182.406 129.22 181.192 133.935C180.513 136.577 180.408 139.309 180.834 141.999C180.93 142.605 181.675 142.948 182.223 142.801C182.866 142.629 183.121 142.019 183.025 141.412C182.372 137.287 183.35 132.961 185.575 129.445C187.801 125.929 191.359 123.383 195.349 122.249C196.467 121.931 197.611 121.714 198.77 121.63C199.367 121.586 199.967 121.573 200.565 121.59C201.098 121.605 201.755 121.578 202.255 121.796C202.817 122.04 203.473 121.954 203.804 121.381C204.084 120.896 203.954 120.078 203.389 119.832Z" fill="#E4F4F4"/>
<path d="M184.599 155.861C183.819 153.365 183.396 150.795 183.348 148.18C183.338 147.568 182.826 147.048 182.208 147.052C181.6 147.055 181.069 147.578 181.08 148.192C181.13 150.988 181.574 153.778 182.408 156.448C182.59 157.032 183.188 157.413 183.797 157.25C184.371 157.096 184.782 156.447 184.599 155.861Z" fill="#E4F4F4"/>
<path d="M220.328 98.9517C216.341 103.371 213.708 108.952 212.942 114.862C212.864 115.469 213.108 116.077 213.754 116.246C214.289 116.385 215.058 116.045 215.138 115.434C215.852 109.924 218.193 104.699 221.92 100.567C222.896 99.4865 221.307 97.8667 220.328 98.9517Z" fill="#E4F4F4"/>
<path d="M258.85 125.44H255.706V136.727C255.706 138.283 254.445 139.544 252.89 139.544H250.556C249.001 139.544 247.74 138.283 247.74 136.727V125.44H244.6C243.363 125.44 242.616 124.071 243.285 123.031L250.408 111.952C251.023 110.995 252.423 110.995 253.038 111.952L260.164 123.03C260.835 124.071 260.087 125.44 258.85 125.44Z" fill="#93A8FF"/>
<path d="M281.329 149.006H222.411V135.776C222.411 134.75 223.243 133.919 224.269 133.919H225.996C227.023 133.919 227.854 134.751 227.854 135.776V143.563H275.884V135.776C275.884 134.75 276.716 133.919 277.742 133.919H279.47C280.496 133.919 281.327 134.751 281.327 135.776V149.006H281.329Z" fill="#93A8FF"/>
<path d="M258.85 126.393H255.706V137.68C255.706 139.235 254.445 140.496 252.89 140.496H250.556C249.001 140.496 247.74 139.235 247.74 137.68V126.393H244.6C243.363 126.393 242.616 125.024 243.285 123.983L250.408 112.905C251.023 111.947 252.423 111.947 253.038 112.904L260.164 123.983C260.835 125.024 260.087 126.393 258.85 126.393Z" fill="#8299F5"/>
<path d="M281.329 149.961H222.411V136.731C222.411 135.705 223.243 134.873 224.269 134.873H225.996C227.023 134.873 227.854 135.705 227.854 136.731V144.517H275.884V136.731C275.884 135.705 276.716 134.873 277.742 134.873H279.47C280.496 134.873 281.327 135.705 281.327 136.731V149.961H281.329Z" fill="#8299F5"/>
<path d="M245.905 41.1099L223.701 64.5342C227.661 63.8901 231.739 63.9491 235.667 64.7021C237.59 65.065 239.573 65.6456 240.938 67.0382C242.757 68.8934 243.075 71.6922 243.224 74.2868C243.333 76.1512 243.406 78.0155 243.437 79.8798C243.451 80.5512 243.456 81.2225 243.456 81.8938L243.728 81.8848C245.996 81.8077 248.268 81.7169 250.532 81.6353C253.748 81.5219 257.009 81.413 260.071 82.3384C262.403 83.046 264.612 84.4658 265.936 86.4481C268.667 87.6728 270.903 89.1561 272.654 90.5714C272.709 90.6167 272.763 90.6621 272.818 90.7075L276.061 87.2873L284.838 78.0246L245.905 41.1099ZM244.907 54.2555C247.76 51.248 252.487 51.121 255.485 53.9606C258.493 56.8138 258.62 61.5404 255.767 64.5478C252.922 67.5462 248.196 67.6732 245.188 64.82C242.19 61.9804 242.063 57.2538 244.907 54.2555Z" fill="#FFC533"/>
<path d="M247.779 39.1366L245.475 36.9502L214.33 69.796L230.388 85.0237L233.926 88.3804C234.887 87.8043 235.958 87.2464 237.146 86.7247L233.468 83.2365L218.984 69.5057L223.701 64.5342L245.906 41.1098L284.839 78.0245L276.061 87.2872L272.818 90.7074C273.925 91.6101 274.832 92.4855 275.54 93.234L278.783 89.8138L289.411 78.6051L247.779 39.1366Z" fill="#F6FAFD"/>
<path d="M265.937 86.4481C263.814 85.5001 261.392 84.7062 258.661 84.2254C258.616 84.2209 258.566 84.2118 258.507 84.2027C256.82 83.9124 255.019 83.7446 253.091 83.7355C253.014 83.731 252.937 83.731 252.869 83.731C251.68 83.731 250.546 83.7718 249.462 83.8489C247.766 83.9623 246.187 84.1665 244.717 84.4386C244.286 84.5157 243.86 84.6019 243.447 84.6972C243.461 83.7627 243.465 82.8283 243.456 81.8939L243.729 81.8848C245.997 81.8077 248.269 81.717 250.533 81.6353C253.749 81.5219 257.01 81.413 260.072 82.3384C262.404 83.046 264.613 84.4658 265.937 86.4481Z" fill="#8299F5"/>
<path d="M243.456 81.8944C243.465 82.8288 243.46 83.7632 243.447 84.6977C242.748 84.8474 242.072 85.0197 241.419 85.2012C239.854 85.6457 238.43 86.1583 237.146 86.7253L233.467 83.2371L218.983 69.5063L223.701 64.5348C227.661 63.8906 231.739 63.9496 235.667 64.7026C237.59 65.0655 239.573 65.6461 240.938 67.0387C242.757 68.8939 243.075 71.6927 243.224 74.2874C243.333 76.1517 243.406 78.016 243.437 79.8804C243.451 80.5517 243.456 81.223 243.456 81.8944Z" fill="#5978F7"/>
<path d="M255.485 53.9631C258.493 56.8149 258.619 61.542 255.767 64.5498C252.925 67.5477 248.198 67.6738 245.19 64.822C242.192 61.9797 242.066 57.2526 244.908 54.2547C247.76 51.2464 252.487 51.1207 255.485 53.9631Z" fill="#FF5331"/>
<path d="M334.876 96.5518L336.817 98.4978L335.234 100.081L333.288 98.1394L331.351 100.081L329.764 98.4978L331.705 96.5518L329.75 94.5968L331.333 93.0137L333.288 94.9687L335.234 93.0273L336.817 94.6149L334.876 96.5518Z" fill="#FFFEFD"/>
<path d="M359.688 102.269L370.306 110.949L361.625 121.567L351.007 112.887L359.688 102.269ZM369.255 111.055L359.794 103.32L352.059 112.781L361.52 120.516L369.255 111.055ZM365.605 111.421L360.16 106.97L355.708 112.414L361.154 116.866L365.605 111.421Z" fill="#FFFEFD"/>
<path d="M360.061 105.912L354.663 112.513L361.264 117.911L366.662 111.31L360.061 105.912Z" fill="#FFFEFD"/>
<path d="M372.414 84.4553C368.34 84.4553 365.031 81.1462 365.031 77.0787C365.031 73.0112 368.34 69.6953 372.414 69.6953C376.482 69.6953 379.791 73.0112 379.791 77.0787C379.791 81.1462 376.482 84.4553 372.414 84.4553ZM367.789 77.0787C367.789 79.6294 369.864 81.6978 372.415 81.6978C374.958 81.6978 377.034 79.6298 377.034 77.0787C377.034 74.5281 374.958 72.4528 372.415 72.4528C369.864 72.4528 367.789 74.5281 367.789 77.0787Z" fill="#FFAC33"/>
<path d="M347.44 89.8098C345.046 89.8098 343.102 87.8656 343.102 85.4756C343.102 83.0859 345.046 81.1377 347.44 81.1377C349.829 81.1377 351.773 83.0859 351.773 85.4756C351.773 87.8656 349.829 89.8098 347.44 89.8098ZM344.722 85.4756C344.722 86.9743 345.941 88.1895 347.44 88.1895C348.934 88.1895 350.154 86.9743 350.154 85.4756C350.154 83.9768 348.934 82.7575 347.44 82.7575C345.941 82.758 344.722 83.9773 344.722 85.4756Z" fill="#FFAC33"/>
<path d="M375.597 95.9412L380.568 99.3735L384 94.4026L379.029 90.9703L375.597 95.9412Z" fill="#D3DBFE"/>
<path d="M354.489 72.6443C356.524 72.6443 358.173 70.9948 358.173 68.9601C358.173 66.9254 356.524 65.2759 354.489 65.2759C352.454 65.2759 350.805 66.9254 350.805 68.9601C350.805 70.9948 352.454 72.6443 354.489 72.6443Z" fill="#D3DBFE"/>
<path d="M143.523 79.9586L139.786 83.6963L143.493 87.41L140.466 90.4374L136.758 86.7237L133.045 90.4369L130.018 87.4096L133.731 83.6963L130.018 79.989L133.045 76.9616L136.758 80.6689L140.496 76.9316L143.523 79.9586ZM133.045 77.969L131.026 79.9881L134.739 83.6954L131.026 87.4091L133.045 89.4286L136.759 85.7149L140.466 89.4286L142.486 87.4091L138.778 83.6954L142.515 79.9586L140.496 77.9391L136.759 81.6764L133.045 77.969Z" fill="#FFBE55"/>
<path d="M195.912 102.124L185.785 110.404L177.505 100.275L187.633 91.9961L195.912 102.124ZM185.885 109.401L194.91 102.024L187.532 92.9995L178.508 100.377L185.885 109.401ZM192.431 101.775L186.135 106.923L180.987 100.625L187.283 95.4771L192.431 101.775ZM186.235 105.92L191.429 101.673L187.183 96.48L181.989 100.726L186.235 105.92Z" fill="#FFFEFD"/>
<path d="M146.866 86.7629C146.866 83.5273 149.498 80.8892 152.734 80.8892C155.975 80.8892 158.608 83.5269 158.608 86.7629C158.608 89.9985 155.976 92.6313 152.734 92.6313C149.498 92.6313 146.866 89.999 146.866 86.7629ZM152.734 83.0833C150.711 83.0833 149.059 84.7339 149.059 86.7634C149.059 88.7924 150.71 90.4381 152.734 90.4381C154.763 90.4381 156.414 88.7928 156.414 86.7634C156.414 84.7339 154.763 83.0833 152.734 83.0833Z" fill="#FF5331"/>
<path d="M125.883 118.9C125.883 116.62 127.737 114.762 130.017 114.762C132.3 114.762 134.155 116.62 134.155 118.9C134.155 121.179 132.3 123.033 130.017 123.033C127.737 123.034 125.883 121.179 125.883 118.9ZM130.017 116.307C128.591 116.307 127.429 117.47 127.429 118.9C127.429 120.329 128.592 121.488 130.017 121.488C131.446 121.488 132.609 120.329 132.609 118.9C132.609 117.47 131.446 116.307 130.017 116.307Z" fill="#5978F7"/>
<path d="M140.422 97.6778L135.681 100.952L138.955 105.693L143.696 102.419L140.422 97.6778Z" fill="#FFBE55"/>
<path d="M166.504 104.905C167.527 104.905 168.356 104.076 168.356 103.053C168.356 102.03 167.527 101.201 166.504 101.201C165.481 101.201 164.652 102.03 164.652 103.053C164.652 104.076 165.481 104.905 166.504 104.905Z" fill="#FFBE55"/>
<path d="M142.864 120.6C144.308 120.6 145.479 119.429 145.479 117.984C145.479 116.54 144.308 115.369 142.864 115.369C141.419 115.369 140.248 116.54 140.248 117.984C140.248 119.429 141.419 120.6 142.864 120.6Z" fill="#FF5331"/>
<path d="M365.03 63.1785C366.421 63.1785 367.548 62.0512 367.548 60.6606C367.548 59.2699 366.421 58.1426 365.03 58.1426C363.64 58.1426 362.512 59.2699 362.512 60.6606C362.512 62.0512 363.64 63.1785 365.03 63.1785Z" fill="#FF5331"/>
<path d="M334.425 70.3439C335.753 70.3439 336.829 69.2675 336.829 67.9398C336.829 66.612 335.753 65.5356 334.425 65.5356C333.097 65.5356 332.021 66.612 332.021 67.9398C332.021 69.2675 333.097 70.3439 334.425 70.3439Z" fill="#8299F5"/>
<path d="M280.756 37.1874L274.951 61.8252C274.231 60.6621 273.525 59.5018 272.805 58.3387C272.154 57.2483 271.475 56.1514 270.545 55.2796C268.226 53.0723 264.651 52.6414 261.524 53.3812C258.411 54.1238 255.646 55.857 252.928 57.573C251.01 58.7819 249.09 60.0044 247.172 61.2137L246.94 61.3575C245.667 59.1698 244.314 57.0196 242.911 54.9004C241.477 52.7312 239.794 50.4754 237.288 49.7855C235.408 49.2715 233.404 49.7646 231.559 50.4228C227.783 51.7473 224.231 53.7496 221.132 56.2984L228.535 24.8828L280.756 37.1874ZM248.851 40.174C249.802 36.1396 247.314 32.1179 243.28 31.1671C239.258 30.2195 235.237 32.7071 234.286 36.742C233.339 40.7632 235.826 44.7844 239.848 45.732C243.882 46.6828 247.904 44.1952 248.851 40.174Z" fill="#DAE1FF"/>
<path d="M274.95 61.8248L280.756 37.187L228.535 24.8819L221.132 56.2975L219.561 62.9678L251.447 70.4814L271.781 75.2729L274.95 61.8248ZM284.998 35.3902L274.616 79.4475L215.685 65.5611L226.066 21.5039L284.998 35.3902Z" fill="#F6FAFD"/>
<path d="M274.951 61.8246L271.782 75.2732L251.448 70.4817L251.584 69.9034C250.137 67.0071 248.597 64.1462 246.94 61.3565L247.173 61.2127C249.09 60.0038 251.011 58.7814 252.928 57.572C255.646 55.856 258.412 54.1228 261.525 53.3802C264.651 52.6409 268.227 53.0713 270.546 55.2786C271.475 56.1509 272.154 57.2477 272.806 58.3377C273.525 59.5017 274.232 60.6616 274.951 61.8246Z" fill="#8299F5"/>
<path d="M251.584 69.9039L251.448 70.4823L219.561 62.9687L221.133 56.2984C224.232 53.7495 227.784 51.7473 231.56 50.4228C233.404 49.7641 235.408 49.2715 237.289 49.7855C239.795 50.4754 241.478 52.7316 242.911 54.9003C244.314 57.0196 245.667 59.1697 246.94 61.3575C248.597 64.1467 250.137 67.0081 251.584 69.9039Z" fill="#5978F7"/>
<path d="M243.279 31.1666C247.314 32.1174 249.802 36.1386 248.851 40.1735C247.903 44.1947 243.882 46.6823 239.847 45.7316C235.826 44.784 233.338 40.7627 234.286 36.7415C235.237 32.7066 239.259 30.219 243.279 31.1666Z" fill="#FFC533"/>
</g>
</svg>
