<svg width="24" height="24" viewBox="0 0 24 24" fill="none" xmlns="http://www.w3.org/2000/svg">
<path fill-rule="evenodd" clip-rule="evenodd" d="M5 22C4.45 22 3.97917 21.8042 3.5875 21.4125C3.19583 21.0208 3 20.55 3 20V6C3 5.45 3.19583 4.97917 3.5875 4.5875C3.97917 4.19583 4.45 4 5 4H6V2H8V4H16V2H18V4H19C19.55 4 20.0208 4.19583 20.4125 4.5875C20.8042 4.97917 21 5.45 21 6V20C21 20.55 20.8042 21.0208 20.4125 21.4125C20.0208 21.8042 19.55 22 19 22H5ZM7.225 17.275C7.70833 17.7583 8.3 18 9 18C9.7 18 10.2917 17.7583 10.775 17.275C11.2583 16.7917 11.5 16.2 11.5 15.5C11.5 14.8 11.2583 14.2083 10.775 13.725C10.2917 13.2417 9.7 13 9 13C8.3 13 7.70833 13.2417 7.225 13.725C6.74167 14.2083 6.5 14.8 6.5 15.5C6.5 16.2 6.74167 16.7917 7.225 17.275ZM19 8H5V10H19V8Z" fill="white"/>
</svg>
