<svg width="24" height="24" viewBox="0 0 24 24" fill="none" xmlns="http://www.w3.org/2000/svg">
<g clip-path="url(#clip0_701_9530)">
<path d="M4 1V21.4256L6.10897 23.3029L7.99976 21.4256L10.036 23.3029L12.0722 21.4256L13.963 23.3029L16.2175 21.4256L18.0355 23.3029L20.0718 21.4256V1H4Z" fill="white"/>
<path d="M8.36338 17.5958H15.7084M4 21.4256V1H20.0718V21.4256L18.0355 23.3029L16.2175 21.4256L13.963 23.3029L12.0722 21.4256L10.036 23.3029L7.99976 21.4256L6.10897 23.3029L4 21.4256Z" stroke="#465CB3" stroke-linecap="round"/>
<path d="M11.7975 14.1413V5.13007H12.3469V14.1413H11.7975ZM13.6469 7.83345C13.6067 7.47675 13.4436 7.19985 13.1577 7.00272C12.8718 6.8056 12.5211 6.70704 12.1057 6.70704C11.8019 6.70704 11.5361 6.75867 11.3083 6.86192C11.0827 6.96518 10.9063 7.10715 10.7789 7.28785C10.6539 7.46854 10.5913 7.67388 10.5913 7.90385C10.5913 8.09628 10.6349 8.26172 10.722 8.40018C10.8113 8.53628 10.9252 8.6501 11.0637 8.74162C11.2022 8.83079 11.3474 8.90471 11.4993 8.96338C11.6512 9.0197 11.7908 9.06546 11.9181 9.10066L12.615 9.29778C12.7936 9.34706 12.9924 9.41512 13.2113 9.50195C13.4324 9.58877 13.6435 9.70728 13.8445 9.85747C14.0478 10.0053 14.2153 10.1954 14.3471 10.4277C14.4789 10.66 14.5448 10.9452 14.5448 11.2831C14.5448 11.6726 14.4476 12.0246 14.2533 12.3391C14.0612 12.6535 13.7798 12.9035 13.409 13.0889C13.0405 13.2742 12.5926 13.3669 12.0655 13.3669C11.5741 13.3669 11.1486 13.2836 10.789 13.117C10.4316 12.9504 10.1502 12.7181 9.9447 12.4201C9.74144 12.122 9.62641 11.7759 9.59961 11.3816H10.4573C10.4796 11.6539 10.5668 11.8791 10.7186 12.0575C10.8728 12.2335 11.0671 12.3649 11.3016 12.4517C11.5384 12.5362 11.793 12.5785 12.0655 12.5785C12.3827 12.5785 12.6674 12.5245 12.9198 12.4165C13.1722 12.3062 13.3721 12.1537 13.5196 11.9589C13.667 11.7618 13.7407 11.5318 13.7407 11.269C13.7407 11.0296 13.677 10.8349 13.5497 10.6847C13.4224 10.5345 13.2549 10.4125 13.0472 10.3186C12.8394 10.2247 12.615 10.1426 12.3737 10.0722L11.5294 9.81875C10.9934 9.65683 10.569 9.42568 10.2563 9.1253C9.94358 8.82493 9.78723 8.43186 9.78723 7.94609C9.78723 7.54246 9.89109 7.19046 10.0988 6.89008C10.3088 6.58736 10.5902 6.35269 10.9431 6.18608C11.2983 6.01711 11.6947 5.93263 12.1325 5.93263C12.5747 5.93263 12.9679 6.01594 13.3118 6.18256C13.6558 6.34682 13.9283 6.57211 14.1293 6.8584C14.3326 7.1447 14.4398 7.46971 14.451 7.83345H13.6469Z" fill="#465CB3"/>
</g>
<defs>
<clipPath id="clip0_701_9530">
<rect width="24" height="24" fill="white"/>
</clipPath>
</defs>
</svg>
