<svg width="24" height="24" viewBox="0 0 24 24" fill="none" xmlns="http://www.w3.org/2000/svg">
<path d="M1.10324 10.1944C2.65442 13.7434 1.74956 16.1363 1.10324 16.8891C2.79543 18.1152 4.86368 17.2387 5.68628 16.6472C16.0863 19.3089 17.7608 11.3237 17.4964 8.33928C17.232 5.35489 12.2964 0.112054 6.12696 2.69314C1.19137 4.75802 0.721316 8.55437 1.10324 10.1944Z" fill="white"/>
<path d="M18.3778 21.3254C13.8653 22.874 10.3868 21.2716 9.2117 20.2768C15.3654 19.7118 19.8892 16.8891 21.1981 9.62982C22.9608 11.5656 23.4896 13.6628 22.5202 16.7278C21.7446 19.1799 22.3733 21.1372 22.7846 21.8093C20.9513 22.7773 19.0829 21.89 18.3778 21.3254Z" fill="white"/>
<ellipse cx="5.24537" cy="9.71055" rx="0.616948" ry="0.564613" fill="#465CB3"/>
<ellipse cx="9.30005" cy="9.71055" rx="0.616948" ry="0.564613" fill="#465CB3"/>
<ellipse cx="13.3543" cy="9.71055" rx="0.616948" ry="0.564613" fill="#465CB3"/>
</svg>
