<svg width="24" height="24" viewBox="0 0 24 24" fill="none" xmlns="http://www.w3.org/2000/svg">
<path d="M21.4469 6.51562C21.2026 6.0052 20.8585 5.5489 20.4349 5.1737L17.1351 2.18187C16.4088 1.51614 15.4866 1.10326 14.5063 1.00494H7.73067C7.00203 0.97404 6.27452 1.08837 5.59047 1.34128C4.90643 1.59419 4.27952 1.98062 3.74623 2.47808C3.21294 2.97555 2.78391 3.57412 2.48412 4.23895C2.18433 4.90378 2.01977 5.6216 2 6.35063V17.68C2.03891 18.7794 2.40664 19.8419 3.05567 20.7301C3.70469 21.6184 4.60519 22.2916 5.64079 22.6627C6.31408 22.9186 7.03341 23.031 7.75267 22.9927H16.0682C16.7968 23.0236 17.5243 22.9092 18.2084 22.6563C18.8924 22.4034 19.5193 22.017 20.0526 21.5195C20.5859 21.0221 21.015 20.4235 21.3147 19.7587C21.6145 19.0938 21.7791 18.376 21.7989 17.647V8.22052C21.8042 7.63365 21.6842 7.05241 21.4469 6.51562ZM7.1477 6.07565H10.7335C11.0252 6.07565 11.305 6.19153 11.5113 6.39781C11.7175 6.60409 11.8334 6.88386 11.8334 7.17558C11.8334 7.46731 11.7175 7.74708 11.5113 7.95336C11.305 8.15964 11.0252 8.27552 10.7335 8.27552H7.1477C6.85598 8.27552 6.57621 8.15964 6.36993 7.95336C6.16365 7.74708 6.04777 7.46731 6.04777 7.17558C6.04777 6.88386 6.16365 6.60409 6.36993 6.39781C6.57621 6.19153 6.85598 6.07565 7.1477 6.07565ZM16.7172 17.856H7.1477C6.85598 17.856 6.57621 17.7401 6.36993 17.5338C6.16365 17.3275 6.04777 17.0478 6.04777 16.756C6.04777 16.4643 6.16365 16.1845 6.36993 15.9783C6.57621 15.772 6.85598 15.6561 7.1477 15.6561H16.7172C16.9793 15.6935 17.2193 15.8242 17.3928 16.0242C17.5664 16.2242 17.6619 16.4802 17.6619 16.745C17.6619 17.0099 17.5664 17.2658 17.3928 17.4659C17.2193 17.6659 16.9793 17.7966 16.7172 17.834V17.856ZM16.7172 13.0712H7.1477C6.85598 13.0712 6.57621 12.9554 6.36993 12.7491C6.16365 12.5428 6.04777 12.263 6.04777 11.9713C6.04777 11.6796 6.16365 11.3998 6.36993 11.1935C6.57621 10.9873 6.85598 10.8714 7.1477 10.8714H16.7172C17.0089 10.8714 17.2886 10.9873 17.4949 11.1935C17.7012 11.3998 17.8171 11.6796 17.8171 11.9713C17.8171 12.263 17.7012 12.5428 17.4949 12.7491C17.2886 12.9554 17.0089 13.0712 16.7172 13.0712ZM16.3652 6.9446C16.2083 6.94605 16.0526 6.9164 15.9072 6.85735C15.7618 6.7983 15.6295 6.71103 15.5181 6.60057C15.4066 6.49012 15.3181 6.35867 15.2577 6.21382C15.1973 6.06897 15.1662 5.9136 15.1662 5.75667V2.84183C15.8922 3.01782 18.719 5.92166 19.335 6.40563C19.5172 6.55909 19.6732 6.74112 19.797 6.9446H16.3652Z" fill="white"/>
</svg>
