<svg width="24" height="24" viewBox="0 0 24 24" fill="none" xmlns="http://www.w3.org/2000/svg">
<path d="M1 4.125V7.5H23V4.125C23 1.725 21.1667 1.04167 20.25 1H3.875C1.675 1 1.04167 3.08333 1 4.125Z" fill="white"/>
<path d="M1 20.125V9.875H23V20.125C23 22.125 21.0833 22.875 20.125 23H3.875C1.875 23 1.125 21.0833 1 20.125Z" fill="white"/>
<path d="M6.33594 13.748C6.95726 13.748 7.46094 14.2517 7.46094 14.873L7.46094 17.873C7.46094 18.4944 6.95726 18.998 6.33594 18.998C5.71462 18.998 5.21094 18.4944 5.21094 17.873L5.21094 14.873C5.21094 14.2517 5.71462 13.748 6.33594 13.748Z" fill="#465CB3"/>
<path d="M11.0469 12.4961C11.6682 12.4961 12.1719 12.9998 12.1719 13.6211L12.1719 18.8711C12.1719 19.4924 11.6682 19.9961 11.0469 19.9961C10.4256 19.9961 9.92187 19.4924 9.92187 18.8711L9.92187 13.6211C9.92187 12.9998 10.4256 12.4961 11.0469 12.4961Z" fill="#465CB3"/>
<path d="M15.5469 14.2461C16.1682 14.2461 16.6719 14.7498 16.6719 15.3711L16.6719 18.3711C16.6719 18.9924 16.1682 19.4961 15.5469 19.4961C14.9256 19.4961 14.4219 18.9924 14.4219 18.3711L14.4219 15.3711C14.4219 14.7498 14.9256 14.2461 15.5469 14.2461Z" fill="#465CB3"/>
<path d="M18.75 4.87305C18.75 5.49437 18.2463 5.99805 17.625 5.99805L14.625 5.99805C14.0037 5.99805 13.5 5.49437 13.5 4.87305C13.5 4.25173 14.0037 3.74805 14.625 3.74805L17.625 3.74805C18.2463 3.74805 18.75 4.25173 18.75 4.87305Z" fill="#465CB3"/>
</svg>
