<svg width="24" height="25" viewBox="0 0 24 25" fill="none" xmlns="http://www.w3.org/2000/svg">
<path fill-rule="evenodd" clip-rule="evenodd" d="M2.10505 6.49716L9.76893 1.07349C9.90739 0.975503 10.0926 0.975503 10.2311 1.07349L17.8949 6.49716C17.9608 6.54379 18 6.61949 18 6.7002C18 6.83758 17.8886 6.94894 17.7513 6.94894H2.24874C2.11136 6.94894 2 6.83758 2 6.7002C2 6.61949 2.03916 6.54379 2.10505 6.49716ZM17.6 7.70381H2.4C2.17909 7.70381 2 7.8829 2 8.10381V22.4012C2 22.6222 2.17909 22.8012 2.4 22.8012H5.28223V18.7623C5.28223 17.6578 6.17766 16.7623 7.28223 16.7623H9.02582C10.1304 16.7623 11.0258 17.6578 11.0258 18.7623V22.8012H11.9487H13.8974H14V17.6462C14 17.094 14.4477 16.6462 15 16.6462H18V8.10381C18 7.8829 17.8209 7.70381 17.6 7.70381ZM4.98686 13.9104C5.31821 13.9104 5.48389 13.7645 5.48389 13.4727V12.6431C5.48389 12.4646 5.53359 12.3405 5.633 12.2708C5.73714 12.2011 5.89335 12.1663 6.10163 12.1663C6.24364 12.1663 6.36671 12.1401 6.47085 12.0879C6.57973 12.0356 6.67913 11.9725 6.76907 11.8984V13.4727C6.76907 13.6165 6.81641 13.7253 6.91108 13.7994C7.00575 13.8734 7.13356 13.9104 7.29451 13.9104C7.62586 13.9104 7.79154 13.7645 7.79154 13.4727V10.8859C7.79154 10.2936 7.65426 9.86685 7.37971 9.60555C7.10516 9.34426 6.67913 9.21361 6.10163 9.21361C5.53833 9.21361 5.12413 9.34208 4.85905 9.59902C4.59397 9.85596 4.46143 10.2849 4.46143 10.8859V13.4727C4.46143 13.6165 4.50876 13.7253 4.60343 13.7994C4.69811 13.8734 4.82592 13.9104 4.98686 13.9104ZM5.7111 11.3954C5.60696 11.4346 5.51703 11.4891 5.44129 11.5587C5.45549 11.4891 5.46496 11.3954 5.46969 11.2779C5.47442 11.1603 5.47679 11.0166 5.47679 10.8467C5.47679 10.5157 5.51939 10.2893 5.6046 10.1673C5.69454 10.041 5.85785 9.9779 6.09453 9.9779C6.35015 9.9779 6.52766 10.0389 6.62706 10.1608C6.72647 10.2784 6.77617 10.4983 6.77617 10.8206C6.77617 10.9643 6.75724 11.0732 6.71937 11.1472C6.6815 11.2212 6.61286 11.2713 6.51346 11.2974C6.41878 11.3236 6.28151 11.3366 6.10163 11.3366C5.95015 11.3366 5.81998 11.3562 5.7111 11.3954ZM12.986 13.8582C12.8961 13.8582 12.8203 13.8255 12.7588 13.7602C12.6973 13.6948 12.6665 13.6121 12.6665 13.5119V10.5723C12.6665 10.4286 12.6878 10.2784 12.7304 10.1216C12.7777 9.96484 12.8629 9.81894 12.986 9.68394C13.1138 9.54458 13.2937 9.43135 13.5257 9.34426C13.7576 9.25716 14.0606 9.21361 14.4345 9.21361C14.9315 9.21361 15.3173 9.32684 15.5919 9.55329C15.8664 9.77975 16.0037 10.1194 16.0037 10.5723C16.0037 10.7553 15.9658 10.9229 15.8901 11.0753C15.8191 11.2278 15.7102 11.3432 15.5635 11.4216C15.7954 11.5174 15.9611 11.6502 16.0605 11.82C16.1647 11.9899 16.2167 12.225 16.2167 12.5255C16.2167 12.961 16.07 13.292 15.7765 13.5185C15.4877 13.7449 15.0404 13.8582 14.4345 13.8582H12.986ZM13.6393 11.304C13.7008 11.2343 13.8002 11.1799 13.9375 11.1407C14.0795 11.1015 14.2452 11.0819 14.4345 11.0819C14.657 11.0819 14.8085 11.0449 14.8889 10.9708C14.9741 10.8924 15.0168 10.7596 15.0168 10.5723C15.0168 10.3546 14.967 10.2 14.8676 10.1085C14.773 10.0127 14.6286 9.96484 14.4345 9.96484C14.16 9.96484 13.9659 10.0106 13.8523 10.102C13.7434 10.1935 13.689 10.3502 13.689 10.5723C13.689 10.7074 13.6866 10.8162 13.6819 10.899C13.6819 10.9774 13.6771 11.047 13.6677 11.108C13.6629 11.169 13.6535 11.2343 13.6393 11.304ZM13.689 13.1004H14.4345C14.7185 13.1004 14.915 13.0547 15.0239 12.9632C15.1375 12.8718 15.1943 12.7259 15.1943 12.5255C15.1943 12.2425 15.1351 12.04 15.0168 11.918C14.9031 11.7961 14.7091 11.7351 14.4345 11.7351C14.2404 11.7351 14.089 11.7591 13.9801 11.807C13.8712 11.8505 13.7955 11.9289 13.7529 12.0421C13.7103 12.1554 13.689 12.3165 13.689 12.5255V13.1004Z" fill="white"/>
<path fill-rule="evenodd" clip-rule="evenodd" d="M16 18C15.4477 18 15 18.4477 15 19V23.44C15 23.9923 15.4477 24.44 16 24.44H20C20.5523 24.44 21 23.9923 21 23.44V19C21 18.4477 20.5523 18 20 18H16ZM17.5853 22.3476C17.4573 22.1255 17.3933 21.7603 17.3933 21.252C17.3933 20.7438 17.4418 20.37 17.539 20.1308C17.6405 19.8874 17.8458 19.7657 18.1549 19.7657C18.3138 19.7657 18.4529 19.7785 18.5721 19.8041C18.6913 19.8255 18.7995 19.8361 18.8966 19.8361C19.0732 19.8361 19.2012 19.7998 19.2807 19.7272C19.3602 19.6546 19.3999 19.5649 19.3999 19.4581C19.3999 19.3129 19.3447 19.2019 19.2343 19.125C19.1284 19.0481 18.9915 18.9947 18.8237 18.9648C18.6604 18.9349 18.4926 18.92 18.3204 18.92C17.8436 18.92 17.4639 19.0097 17.1814 19.1891C16.9032 19.3685 16.7023 19.6333 16.5787 19.9835C16.4595 20.3295 16.3999 20.7523 16.3999 21.252C16.3999 21.7517 16.4595 22.1703 16.5787 22.5077C16.7023 22.8409 16.9032 23.0929 17.1814 23.2637C17.4639 23.4346 17.8436 23.52 18.3204 23.52C18.4926 23.52 18.6604 23.505 18.8237 23.4751C18.9915 23.4452 19.1284 23.3918 19.2343 23.315C19.3447 23.2381 19.3999 23.127 19.3999 22.9818C19.3999 22.8708 19.3602 22.7811 19.2807 22.7127C19.2012 22.6401 19.0732 22.6038 18.8966 22.6038C18.7995 22.6038 18.6913 22.6166 18.5721 22.6423C18.4529 22.6636 18.3138 22.6743 18.1549 22.6743C17.9032 22.6743 17.7134 22.5654 17.5853 22.3476Z" fill="white"/>
</svg>
