<svg width="24" height="24" viewBox="0 0 24 24" fill="none" xmlns="http://www.w3.org/2000/svg">
<g clip-path="url(#clip0_639_9992)">
<path d="M6.66667 6.66659C6.84348 6.66659 7.01305 6.59635 7.13807 6.47132C7.2631 6.3463 7.33333 6.17673 7.33333 5.99992V1.99992C7.33333 1.82311 7.2631 1.65354 7.13807 1.52851C7.01305 1.40349 6.84348 1.33325 6.66667 1.33325C6.48986 1.33325 6.32029 1.40349 6.19526 1.52851C6.07024 1.65354 6 1.82311 6 1.99992V5.99992C6 6.17673 6.07024 6.3463 6.19526 6.47132C6.32029 6.59635 6.48986 6.66659 6.66667 6.66659Z" fill="white"/>
<path d="M17.3327 6.66659C17.5095 6.66659 17.6791 6.59635 17.8041 6.47132C17.9291 6.3463 17.9993 6.17673 17.9993 5.99992V1.99992C17.9993 1.82311 17.9291 1.65354 17.8041 1.52851C17.6791 1.40349 17.5095 1.33325 17.3327 1.33325C17.1559 1.33325 16.9863 1.40349 16.8613 1.52851C16.7363 1.65354 16.666 1.82311 16.666 1.99992V5.99992C16.666 6.17673 16.7363 6.3463 16.8613 6.47132C16.9863 6.59635 17.1559 6.66659 17.3327 6.66659Z" fill="white"/>
<path d="M21.7966 3.00008H19.0466V5.06255C19.0466 5.46368 18.8873 5.84838 18.6036 6.13203C18.32 6.41567 17.9353 6.57502 17.5342 6.57502C17.133 6.57502 16.7483 6.41567 16.4647 6.13203C16.181 5.84838 16.0217 5.46368 16.0217 5.06255V3.00008H8.01244V5.06255C8.01244 5.46368 7.85309 5.84838 7.56945 6.13203C7.2858 6.41567 6.9011 6.57502 6.49997 6.57502C6.09883 6.57502 5.71413 6.41567 5.43048 6.13203C5.14684 5.84838 4.98749 5.46368 4.98749 5.06255V3.00008H2.23753C2.07393 2.99822 1.91161 3.02918 1.76018 3.09115C1.60875 3.15311 1.47128 3.24481 1.35591 3.36082C1.24053 3.47684 1.1496 3.61481 1.08847 3.76658C1.02735 3.91835 0.997286 4.08084 1.00005 4.24443V19.6304C0.997323 19.7911 1.02628 19.9508 1.08527 20.1003C1.14425 20.2498 1.23212 20.3863 1.34384 20.5018C1.45556 20.6174 1.58896 20.7098 1.7364 20.7738C1.88384 20.8378 2.04245 20.8721 2.20316 20.8748H21.7966C21.9573 20.8721 22.1159 20.8378 22.2634 20.7738C22.4108 20.7098 22.5442 20.6174 22.6559 20.5018C22.7676 20.3863 22.8555 20.2498 22.9145 20.1003C22.9735 19.9508 23.0024 19.7911 22.9997 19.6304V4.24443C23.0024 4.08373 22.9735 3.92405 22.9145 3.77454C22.8555 3.62502 22.7676 3.48859 22.6559 3.37304C22.5442 3.25748 22.4108 3.16507 22.2634 3.10108C22.1159 3.03708 21.9573 3.00276 21.7966 3.00008ZM17.4585 10.2737L10.8105 16.9217L7.18746 13.2712C7.02694 13.0946 6.93999 12.8634 6.94442 12.6248C6.94885 12.3863 7.04431 12.1584 7.21126 11.988C7.37821 11.8175 7.60402 11.7173 7.84243 11.7079C8.08085 11.6985 8.31384 11.7806 8.49368 11.9374L10.8174 14.2611L16.1248 8.95373C16.2119 8.86661 16.3154 8.7975 16.4292 8.75035C16.543 8.7032 16.665 8.67893 16.7882 8.67893C16.9114 8.67893 17.0335 8.7032 17.1473 8.75035C17.2611 8.7975 17.3645 8.86661 17.4517 8.95373C17.5388 9.04086 17.6079 9.14429 17.655 9.25812C17.7022 9.37195 17.7265 9.49395 17.7265 9.61716C17.7265 9.74037 17.7022 9.86237 17.655 9.9762C17.6079 10.09 17.5388 10.1935 17.4517 10.2806L17.4585 10.2737Z" fill="white"/>
</g>
<defs>
<clipPath id="clip0_639_9992">
<rect width="24" height="24" fill="white"/>
</clipPath>
</defs>
</svg>
