<svg width="24" height="24" viewBox="0 0 24 24" fill="none" xmlns="http://www.w3.org/2000/svg">
<path d="M4.3 23C3.695 23 3.17727 22.7848 2.7468 22.3543C2.31633 21.9238 2.10073 21.4057 2.1 20.8V8.3975C1.77 8.19583 1.50417 7.93477 1.3025 7.6143C1.10083 7.29383 1 6.9224 1 6.5V3.2C1 2.595 1.2156 2.07727 1.6468 1.6468C2.078 1.21633 2.59573 1.00073 3.2 1H20.8C21.405 1 21.9231 1.2156 22.3543 1.6468C22.7855 2.078 23.0007 2.59573 23 3.2V6.5C23 6.92167 22.8992 7.2931 22.6975 7.6143C22.4958 7.9355 22.23 8.1962 21.9 8.3964V20.8C21.9 21.405 21.6848 21.9231 21.2543 22.3543C20.8238 22.7855 20.3057 23.0007 19.7 23H4.3ZM3.2 6.5H20.8V3.2H3.2V6.5ZM8.7 14.2H15.3V12H8.7V14.2Z" fill="white"/>
</svg>
