<svg width="24" height="24" viewBox="0 0 24 24" fill="none" xmlns="http://www.w3.org/2000/svg">
<path d="M14 17.5C14 17.9125 13.8531 18.2656 13.5592 18.5592C13.2656 18.8531 12.9125 19 12.5 19C12.0875 19 11.7344 18.8531 11.4408 18.5592C11.1469 18.2656 11 17.9125 11 17.5C11 17.0875 11.1469 16.7343 11.4408 16.4405C11.7344 16.1468 12.0875 16 12.5 16C12.9125 16 13.2656 16.1468 13.5592 16.4405C13.8531 16.7343 14 17.0875 14 17.5ZM14 11.7307C14 12.1432 13.8531 12.4963 13.5592 12.79C13.2656 13.0838 12.9125 13.2307 12.5 13.2307C12.0875 13.2307 11.7344 13.0838 11.4408 12.79C11.1469 12.4963 11 12.1432 11 11.7307C11 11.3182 11.1469 10.9652 11.4408 10.6715C11.7344 10.3777 12.0875 10.2307 12.5 10.2307C12.9125 10.2307 13.2656 10.3777 13.5592 10.6715C13.8531 10.9652 14 11.3182 14 11.7307ZM14 5.9615C14 6.374 13.8531 6.72717 13.5592 7.021C13.2656 7.31467 12.9125 7.4615 12.5 7.4615C12.0875 7.4615 11.7344 7.31467 11.4408 7.021C11.1469 6.72717 11 6.374 11 5.9615C11 5.549 11.1469 5.19592 11.4408 4.90225C11.7344 4.60842 12.0875 4.4615 12.5 4.4615C12.9125 4.4615 13.2656 4.60842 13.5592 4.90225C13.8531 5.19592 14 5.549 14 5.9615Z" fill="white"/>
</svg>
