<svg width="24" height="24" viewBox="0 0 24 24" fill="none" xmlns="http://www.w3.org/2000/svg">
<path d="M4 22V2C4 1.44772 4.44772 1 5 1H16.0628L20 5.96624V11.0717V15.6203V22C20 22.5523 19.5523 23 19 23H5C4.44772 23 4 22.5523 4 22Z" fill="white"/>
<path d="M16.0628 1H5C4.44772 1 4 1.44772 4 2V22C4 22.5523 4.44772 23 5 23H19C19.5523 23 20 22.5523 20 22V15.6203V11.0717C20 9.55556 20 6.30042 20 5.96624M16.0628 1V4.96625C16.0628 5.51853 16.5105 5.96624 17.0628 5.96624H20M16.0628 1L20 5.96624M6.59686 8.98312H15.9372M6.59686 11.8608C6.99895 11.7122 12.9913 11.7989 15.9372 11.8608M6.59686 14.7384H11.2461M6.59686 17.7089H11.2461" stroke="#465CB3" stroke-linecap="round"/>
</svg>
