<svg width="24" height="24" viewBox="0 0 24 24" fill="none" xmlns="http://www.w3.org/2000/svg">
<path d="M13.1858 1C13.5092 1 13.7985 1.2013 13.9074 1.5027L14.6839 3.65538C14.9619 3.72431 15.2016 3.79471 15.4033 3.86657C15.6233 3.94504 15.9093 4.06604 16.2613 4.22957L18.0696 3.27258C18.2171 3.19402 18.3862 3.16559 18.5513 3.19158C18.7164 3.21758 18.8685 3.29659 18.9848 3.41668L20.5753 5.06116C20.7865 5.28006 20.8459 5.60016 20.7271 5.87955L19.8791 7.86724C20.0191 8.12537 20.132 8.34683 20.2178 8.53163C20.3102 8.73183 20.4246 9.01049 20.561 9.36762L22.5377 10.2146C22.8346 10.3411 23.0183 10.6381 22.9985 10.956L22.8533 13.2385C22.8434 13.3868 22.7902 13.5289 22.7002 13.6472C22.6103 13.7655 22.4876 13.8548 22.3474 13.904L20.4752 14.5695C20.4217 14.8276 20.3652 15.0498 20.3058 15.2361C20.2097 15.5248 20.1003 15.8088 19.978 16.0875L20.9185 18.1664C20.9854 18.3124 21.0036 18.476 20.9703 18.6331C20.937 18.7902 20.8541 18.9324 20.7337 19.0387L18.9452 20.6359C18.8276 20.7411 18.6806 20.8076 18.524 20.8265C18.3674 20.8454 18.2088 20.8157 18.0696 20.7415L16.2261 19.7647C15.9379 19.918 15.6404 20.0529 15.3351 20.1684L14.5299 20.4698L13.815 22.4498C13.7615 22.5945 13.6658 22.7197 13.5402 22.8094C13.4147 22.899 13.2652 22.9489 13.111 22.9525L11.0211 22.9998C10.8627 23.0035 10.7071 22.9582 10.5754 22.8702C10.4437 22.7822 10.3424 22.6558 10.2852 22.5081L9.44261 20.2784C9.15521 20.18 8.87057 20.0736 8.58904 19.9594C8.35884 19.8598 8.13212 19.7523 7.90927 19.6371L5.81934 20.5303C5.68168 20.5893 5.5298 20.607 5.38229 20.581C5.23479 20.555 5.09806 20.4865 4.98887 20.384L3.44232 18.9331C3.32675 18.8259 3.24803 18.6848 3.21741 18.5301C3.18679 18.3755 3.20584 18.2151 3.27183 18.0718L4.17049 16.1139C4.0514 15.8817 3.9406 15.6455 3.83831 15.4055C3.71915 15.1116 3.6091 14.8141 3.50832 14.5134L1.53939 13.9139C1.37934 13.8655 1.23975 13.7656 1.14229 13.6298C1.04483 13.4939 0.99495 13.3297 1.0004 13.1626L1.0774 11.0495C1.08312 10.9117 1.12629 10.778 1.20226 10.6629C1.27823 10.5478 1.38413 10.4556 1.50859 10.3961L3.57431 9.40392C3.66965 9.05339 3.75398 8.77913 3.82731 8.58113C3.93109 8.31521 4.04633 8.0539 4.17269 7.79794L3.27733 5.90595C3.20886 5.76238 3.18794 5.60072 3.21762 5.44446C3.24729 5.28819 3.326 5.14545 3.44232 5.03696L4.98667 3.57838C5.09478 3.47603 5.23025 3.40721 5.37667 3.38027C5.52308 3.35333 5.67417 3.36941 5.81164 3.42658L7.89937 4.28897C8.12962 4.1357 8.33935 4.00957 8.52854 3.91057C8.75367 3.79177 9.05579 3.66491 9.43491 3.52998L10.1609 1.5049C10.2151 1.35705 10.3133 1.22938 10.4424 1.1391C10.5714 1.04882 10.725 1.00027 10.8825 1H13.1858ZM12.0264 8.72083C10.1928 8.72083 8.70674 10.1893 8.70674 12.0021C8.70674 13.8149 10.1928 15.2845 12.0264 15.2845C13.8601 15.2845 15.345 13.8149 15.345 12.0021C15.345 10.1893 13.8601 8.72083 12.0264 8.72083Z" fill="white"/>
</svg>
