<svg width="24" height="24" viewBox="0 0 24 24" fill="none" xmlns="http://www.w3.org/2000/svg">
<path d="M13.1861 1C13.5095 1 13.7988 1.2013 13.9077 1.5027L14.6843 3.65538C14.9622 3.72431 15.202 3.79471 15.4037 3.86657C15.6237 3.94504 15.9097 4.06604 16.2617 4.22957L18.07 3.27258C18.2176 3.19402 18.3866 3.16559 18.5517 3.19158C18.7168 3.21758 18.869 3.29659 18.9852 3.41668L20.5758 5.06116C20.787 5.28006 20.8464 5.60016 20.7276 5.87955L19.8795 7.86724C20.0196 8.12537 20.1325 8.34683 20.2183 8.53163C20.3107 8.73183 20.4251 9.01049 20.5615 9.36762L22.5382 10.2146C22.8352 10.3411 23.0189 10.6381 22.9991 10.956L22.8539 13.2385C22.844 13.3868 22.7907 13.5289 22.7008 13.6472C22.6108 13.7655 22.4881 13.8548 22.3479 13.904L20.4757 14.5695C20.4222 14.8276 20.3657 15.0498 20.3063 15.2361C20.2102 15.5248 20.1008 15.8088 19.9785 16.0875L20.919 18.1664C20.9859 18.3124 21.0041 18.476 20.9708 18.6331C20.9375 18.7902 20.8546 18.9324 20.7342 19.0387L18.9456 20.6359C18.8281 20.7411 18.6811 20.8076 18.5245 20.8265C18.3679 20.8454 18.2092 20.8157 18.07 20.7415L16.2265 19.7647C15.9383 19.918 15.6407 20.0529 15.3355 20.1684L14.5303 20.4698L13.8153 22.4498C13.7618 22.5945 13.6661 22.7197 13.5406 22.8094C13.415 22.899 13.2655 22.9488 13.1113 22.9525L11.0213 22.9998C10.863 23.0035 10.7073 22.9582 10.5757 22.8702C10.444 22.7822 10.3426 22.6558 10.2854 22.5081L9.44282 20.2784C9.15541 20.18 8.87077 20.0736 8.58923 19.9594C8.35903 19.8598 8.1323 19.7523 7.90944 19.6371L5.81946 20.5303C5.6818 20.5893 5.52991 20.6069 5.3824 20.581C5.23489 20.555 5.09817 20.4865 4.98897 20.384L3.44238 18.9331C3.32681 18.8259 3.24808 18.6848 3.21746 18.5301C3.18684 18.3755 3.20589 18.215 3.27188 18.0718L4.17057 16.1139C4.05148 15.8817 3.94067 15.6455 3.83838 15.4055C3.71922 15.1116 3.60917 14.8141 3.50838 14.5134L1.5394 13.9139C1.37935 13.8655 1.23976 13.7656 1.14229 13.6298C1.04483 13.4939 0.99495 13.3297 1.0004 13.1626L1.0774 11.0495C1.08312 10.9117 1.12629 10.778 1.20226 10.6629C1.27823 10.5478 1.38414 10.4556 1.5086 10.3961L3.57438 9.40392C3.66971 9.05339 3.75404 8.77913 3.82738 8.58113C3.93116 8.31521 4.0464 8.0539 4.17277 7.79794L3.27738 5.90595C3.20892 5.76238 3.188 5.60072 3.21767 5.44446C3.24734 5.28819 3.32606 5.14545 3.44238 5.03696L4.98677 3.57838C5.09488 3.47603 5.23036 3.40721 5.37678 3.38027C5.5232 3.35333 5.67429 3.36941 5.81176 3.42658L7.89954 4.28897C8.1298 4.1357 8.33953 4.00957 8.52873 3.91057C8.75386 3.79177 9.05599 3.66491 9.43512 3.52998L10.1611 1.5049C10.2153 1.35705 10.3136 1.22938 10.4426 1.1391C10.5716 1.04882 10.7252 1.00027 10.8827 1H13.1861ZM12.0267 8.72083C10.193 8.72083 8.70693 10.1893 8.70693 12.0021C8.70693 13.8149 10.193 15.2845 12.0267 15.2845C13.8604 15.2845 15.3454 13.8149 15.3454 12.0021C15.3454 10.1893 13.8604 8.72083 12.0267 8.72083Z" fill="white"/>
</svg>
