<svg width="24" height="24" viewBox="0 0 24 24" fill="none" xmlns="http://www.w3.org/2000/svg">
<path d="M1 15.8357L3.84483 17.0852H7.79004L8.68104 12.0872C8.15 10.4515 6.05747 10.2698 5.07759 10.3834C2.11897 10.0199 1.12644 12.2766 1 13.4503V15.8357Z" fill="white" stroke="#465CB3"/>
<path d="M7.23222 7.31645C7.23222 8.88519 6.18658 9.99697 5.07705 9.99697C3.96751 9.99697 2.92188 8.88519 2.92188 7.31645C2.92188 5.7477 3.96751 4.63593 5.07705 4.63593C6.18658 4.63593 7.23222 5.7477 7.23222 7.31645Z" fill="white" stroke="#465CB3"/>
<path d="M23 15.8357L20.1552 17.0852H17.29L15.319 12.0872C15.85 10.4515 17.9425 10.2698 18.9224 10.3834C21.881 10.0199 22.8736 12.2766 23 13.4503V15.8357Z" fill="white" stroke="#465CB3"/>
<path d="M16.7678 7.31645C16.7678 8.88519 17.8134 9.99697 18.923 9.99697C20.0325 9.99697 21.0781 8.88519 21.0781 7.31645C21.0781 5.7477 20.0325 4.63593 18.923 4.63593C17.8134 4.63593 16.7678 5.7477 16.7678 7.31645Z" fill="white" stroke="#465CB3"/>
<path d="M6.59375 15.7221C6.8972 11.6329 10.2604 11.0649 11.9041 11.2921C16.0006 10.7469 17.2777 14.0183 17.4041 15.7221V18.6755C12.3213 21.6742 8.07938 19.925 6.59375 18.6755V15.7221Z" fill="white" stroke="#465CB3"/>
<path d="M15.007 7.20283C15.007 9.33618 13.5792 10.9057 11.9984 10.9057C10.4175 10.9057 8.98975 9.33618 8.98975 7.20283C8.98975 5.06948 10.4175 3.5 11.9984 3.5C13.5792 3.5 15.007 5.06948 15.007 7.20283Z" fill="white" stroke="#465CB3"/>
</svg>
