<svg width="24" height="24" viewBox="0 0 24 24" fill="none" xmlns="http://www.w3.org/2000/svg">
<path d="M15.63 17.17L17.17 15.63L13.1 11.56V6.5H10.9V12.44L15.63 17.17ZM12 23C10.4783 23 9.04833 22.7111 7.71 22.1332C6.37167 21.5553 5.2075 20.7718 4.2175 19.7825C3.2275 18.7932 2.44393 17.6291 1.8668 16.29C1.28967 14.9509 1.00073 13.5209 1 12C0.999268 10.4791 1.2882 9.04906 1.8668 7.71C2.4454 6.37093 3.22897 5.20677 4.2175 4.2175C5.20603 3.22823 6.3702 2.44467 7.71 1.8668C9.0498 1.28893 10.4798 1 12 1C13.5202 1 14.9502 1.28893 16.29 1.8668C17.6298 2.44467 18.794 3.22823 19.7825 4.2175C20.771 5.20677 21.555 6.37093 22.1343 7.71C22.7136 9.04906 23.0022 10.4791 23 12C22.9978 13.5209 22.7089 14.9509 22.1332 16.29C21.5575 17.6291 20.774 18.7932 19.7825 19.7825C18.791 20.7718 17.6269 21.5557 16.29 22.1343C14.9531 22.7129 13.5231 23.0015 12 23Z" fill="white"/>
</svg>
