<svg width="24" height="24" viewBox="0 0 24 24" fill="none" xmlns="http://www.w3.org/2000/svg">
<path d="M1.42359 5.08402L6.59979 7.39437L6.74773 10.2823C6.79702 11.63 7.84212 14.3254 11.6281 14.3254C15.4142 14.3254 16.4593 11.63 16.5086 10.2823V7.39437L19.7622 5.95038V11.4375C19.8608 11.6781 20.2058 12.1594 20.7974 12.1594C21.389 12.1594 21.5369 11.6781 21.5369 11.4375V5.08402C22.1284 4.73748 21.7834 4.26577 21.5369 4.07324C19.2692 3.06246 14.4085 0.896504 13.1071 0.318916C11.8056 -0.258672 10.4943 0.0782545 10.0013 0.318916C7.48717 1.42596 2.28136 3.72668 1.57148 4.07324C0.861602 4.41979 1.1771 4.89149 1.42359 5.08402Z" fill="white"/>
<path d="M10.8887 18.0797L8.67032 15.9138C8.31538 15.6827 7.43789 15.8175 7.04351 15.9138C5.90968 16.01 3.31665 16.9245 2.0152 19.8125C0.713758 22.7004 2.85325 23.8075 4.08568 24H19.3185C21.0932 24 22.4242 22.4116 21.2411 19.8125C20.058 17.2133 17.1001 16.0582 16.0649 15.7694C15.2367 15.5383 14.7339 15.7694 14.586 15.9138L12.3676 18.0797C11.776 18.6573 11.1352 18.3204 10.8887 18.0797Z" fill="white"/>
</svg>
