<svg width="24" height="24" viewBox="0 0 24 24" fill="none" xmlns="http://www.w3.org/2000/svg">
<path d="M16.4683 16.8067L21.5767 13.5653C22.7498 12.7951 23.8219 14.4855 22.824 15.3836L13.9736 21.4868C12.6072 22.1193 10.6144 22.6505 8.99875 21.6133C8.13252 21.0757 6.21591 19.9847 5.47937 19.9215V13.8657C10.1867 13.17 9.26605 16.0477 14.8646 15.7631C15.9039 15.7103 16.4683 17.4391 14.8646 17.6288L10.3649 17.7237C9.75609 17.7237 9.84519 18.451 10.3649 18.451H14.9832C15.6514 18.3562 16.3734 17.983 16.4683 16.8067Z" fill="white"/>
<path d="M4.67748 12.838H0.727451V20.9967H4.78143L4.67748 12.838Z" fill="white"/>
<path fill-rule="evenodd" clip-rule="evenodd" d="M14.5895 1.00718C17.6082 1.00718 20.7809 3.81028 20.7809 7.01383C20.9504 9.43189 19.0683 13.8768 14.2506 13.7906C9.59937 13.7073 7.82818 9.38568 8.013 7.01383C8.013 4.71898 10.0183 0.810039 14.5895 1.00718ZM19.9493 7.01383C20.0355 3.85956 16.7611 1.76186 14.5895 1.76186C10.3016 1.61401 8.88061 5.20156 8.70608 7.01383C8.49661 9.93398 10.9085 13.0359 14.2506 13.0359C18.7634 13.0359 20.2111 9.10845 19.9493 7.01383Z" fill="white"/>
<path d="M14.5895 1.76186C16.7611 1.76186 20.0355 3.85956 19.9493 7.01383C20.2111 9.10845 18.7634 13.0359 14.2506 13.0359C10.9085 13.0359 8.49661 9.93398 8.70608 7.01383C8.88061 5.20156 10.3016 1.61401 14.5895 1.76186Z" fill="white"/>
<path d="M12.2411 5.02033C12.2411 5.27669 12.4535 5.48475 12.7152 5.48475H13.6635C14.0428 5.48475 14.3033 5.63336 14.479 5.84823C14.5764 5.96774 14.6522 6.1145 14.7015 6.2755H12.7152C12.5895 6.2755 12.4689 6.32443 12.38 6.41152C12.291 6.49862 12.2411 6.61674 12.2411 6.73992C12.2411 6.86309 12.291 6.98121 12.38 7.06831C12.4689 7.1554 12.5895 7.20433 12.7152 7.20433H14.7015C14.6566 7.36004 14.581 7.50561 14.479 7.63284C14.3033 7.84771 14.0428 7.99632 13.6635 7.99632H12.7152C12.6224 7.99637 12.5316 8.0231 12.4542 8.07321C12.3767 8.12332 12.316 8.1946 12.2795 8.27821C12.243 8.36181 12.2324 8.45407 12.2489 8.54354C12.2655 8.63301 12.3085 8.71575 12.3726 8.7815L15.0593 11.5333C15.1471 11.6185 15.2653 11.6668 15.3888 11.6679C15.5123 11.669 15.6314 11.6228 15.7207 11.5392C15.81 11.4556 15.8625 11.3412 15.8669 11.2203C15.8714 11.0994 15.8275 10.9815 15.7446 10.8918L13.8196 8.91959C14.0907 8.90569 14.3557 8.83551 14.597 8.7137C14.8383 8.59189 15.0504 8.42124 15.2193 8.21305C15.4538 7.91903 15.6104 7.57269 15.6751 7.20495H16.5083C16.634 7.20495 16.7546 7.15602 16.8436 7.06893C16.9325 6.98183 16.9824 6.86371 16.9824 6.74053C16.9824 6.61736 16.9325 6.49924 16.8436 6.41214C16.7546 6.32505 16.634 6.27612 16.5083 6.27612H15.6751C15.6243 5.99671 15.5224 5.7286 15.3742 5.48475H16.5083C16.634 5.48475 16.7546 5.43582 16.8436 5.34872C16.9325 5.26163 16.9824 5.1435 16.9824 5.02033C16.9824 4.89716 16.9325 4.77903 16.8436 4.69193C16.7546 4.60484 16.634 4.55591 16.5083 4.55591H12.7152C12.5895 4.55591 12.4689 4.60484 12.38 4.69193C12.291 4.77903 12.2411 4.89716 12.2411 5.02033Z" fill="#5978F7"/>
</svg>
