<svg width="24" height="24" viewBox="0 0 24 24" fill="none" xmlns="http://www.w3.org/2000/svg">
<path d="M8.94444 23H15.0556V16.8889H8.94444V23ZM16.8889 23H19.0278C20.0813 23 21.0916 22.5815 21.8366 21.8366C22.5815 21.0916 23 20.0813 23 19.0278V16.8889H16.8889V23ZM23 15.0556V8.94444H16.8889V15.0556H23ZM23 7.11111V4.97222C23 3.91872 22.5815 2.90837 21.8366 2.16344C21.0916 1.4185 20.0813 1 19.0278 1H16.8889V7.11111H23ZM15.0556 1H8.94444V7.11111H15.0556V1ZM1 8.94444V15.0556H7.11111V8.94444H1ZM1 16.8889V19.0278C1 20.0813 1.4185 21.0916 2.16344 21.8366C2.90837 22.5815 3.91872 23 4.97222 23H7.11111V16.8889H1ZM15.0556 8.94444V15.0556H8.94444V8.94444H15.0556Z" fill="white"/>
</svg>
