<svg width="24" height="24" viewBox="0 0 24 24" fill="none" xmlns="http://www.w3.org/2000/svg">
<g clip-path="url(#clip0_1339_21740)">
<path d="M6.66667 6.66659C6.84348 6.66659 7.01305 6.59635 7.13807 6.47132C7.2631 6.3463 7.33333 6.17673 7.33333 5.99992V1.99992C7.33333 1.82311 7.2631 1.65354 7.13807 1.52851C7.01305 1.40349 6.84348 1.33325 6.66667 1.33325C6.48986 1.33325 6.32029 1.40349 6.19526 1.52851C6.07024 1.65354 6 1.82311 6 1.99992V5.99992C6 6.17673 6.07024 6.3463 6.19526 6.47132C6.32029 6.59635 6.48986 6.66659 6.66667 6.66659Z" fill="white"/>
<path d="M17.3327 6.66659C17.5095 6.66659 17.6791 6.59635 17.8041 6.47132C17.9291 6.3463 17.9993 6.17673 17.9993 5.99992V1.99992C17.9993 1.82311 17.9291 1.65354 17.8041 1.52851C17.6791 1.40349 17.5095 1.33325 17.3327 1.33325C17.1559 1.33325 16.9863 1.40349 16.8613 1.52851C16.7363 1.65354 16.666 1.82311 16.666 1.99992V5.99992C16.666 6.17673 16.7363 6.3463 16.8613 6.47132C16.9863 6.59635 17.1559 6.66659 17.3327 6.66659Z" fill="white"/>
<path d="M21.7967 3.00008H19.0468V5.06255C19.0468 5.46368 18.8874 5.84838 18.6038 6.13203C18.3201 6.41567 17.9354 6.57502 17.5343 6.57502C17.1332 6.57502 16.7484 6.41567 16.4648 6.13203C16.1812 5.84838 16.0218 5.46368 16.0218 5.06255V3.00008H8.01256V5.06255C8.01256 5.46368 7.85321 5.84838 7.56957 6.13203C7.28593 6.41567 6.90122 6.57502 6.50009 6.57502C6.09895 6.57502 5.71425 6.41567 5.43061 6.13203C5.14696 5.84838 4.98761 5.46368 4.98761 5.06255V3.00008H2.23766C2.07405 2.99822 1.91173 3.02918 1.7603 3.09115C1.60887 3.15311 1.4714 3.24481 1.35603 3.36082C1.24066 3.47684 1.14972 3.61481 1.0886 3.76658C1.02747 3.91835 0.997409 4.08084 1.00018 4.24443V19.6304C0.997445 19.7911 1.0264 19.9508 1.08539 20.1003C1.14438 20.2498 1.23224 20.3863 1.34396 20.5018C1.45569 20.6174 1.58908 20.7098 1.73652 20.7738C1.88397 20.8378 2.04257 20.8721 2.20328 20.8748H21.7967C21.9574 20.8721 22.116 20.8378 22.2635 20.7738C22.4109 20.7098 22.5443 20.6174 22.656 20.5018C22.7678 20.3863 22.8556 20.2498 22.9146 20.1003C22.9736 19.9508 23.0026 19.7911 22.9998 19.6304V4.24443C23.0026 4.08373 22.9736 3.92405 22.9146 3.77454C22.8556 3.62502 22.7678 3.48859 22.656 3.37304C22.5443 3.25748 22.4109 3.16507 22.2635 3.10108C22.116 3.03708 21.9574 3.00276 21.7967 3.00008ZM17.4587 10.2737L10.8106 16.9217L7.18758 13.2712C7.02706 13.0946 6.94012 12.8634 6.94454 12.6248C6.94897 12.3863 7.04443 12.1584 7.21138 11.988C7.37833 11.8175 7.60414 11.7173 7.84255 11.7079C8.08097 11.6985 8.31396 11.7806 8.49381 11.9374L10.8175 14.2611L16.1249 8.95373C16.2121 8.86661 16.3155 8.7975 16.4293 8.75035C16.5431 8.7032 16.6652 8.67893 16.7884 8.67893C16.9116 8.67893 17.0336 8.7032 17.1474 8.75035C17.2612 8.7975 17.3647 8.86661 17.4518 8.95373C17.5389 9.04086 17.608 9.14429 17.6552 9.25812C17.7023 9.37195 17.7266 9.49395 17.7266 9.61716C17.7266 9.74037 17.7023 9.86237 17.6552 9.9762C17.608 10.09 17.5389 10.1935 17.4518 10.2806L17.4587 10.2737Z" fill="white"/>
</g>
<defs>
<clipPath id="clip0_1339_21740">
<rect width="24" height="24" fill="white"/>
</clipPath>
</defs>
</svg>
