<svg width="24" height="24" viewBox="0 0 24 24" fill="none" xmlns="http://www.w3.org/2000/svg">
<path d="M6.5 1.6875C6.5 1.50516 6.42757 1.3303 6.29864 1.20136C6.1697 1.07243 5.99484 1 5.8125 1C5.63016 1 5.4553 1.07243 5.32636 1.20136C5.19743 1.3303 5.125 1.50516 5.125 1.6875V2.375H3.75C3.02065 2.375 2.32118 2.66473 1.80546 3.18046C1.28973 3.69618 1 4.39565 1 5.125L1 6.5H23V5.125C23 4.39565 22.7103 3.69618 22.1945 3.18046C21.6788 2.66473 20.9793 2.375 20.25 2.375H18.875V1.6875C18.875 1.50516 18.8026 1.3303 18.6736 1.20136C18.5447 1.07243 18.3698 1 18.1875 1C18.0052 1 17.8303 1.07243 17.7014 1.20136C17.5724 1.3303 17.5 1.50516 17.5 1.6875V2.375H6.5V1.6875ZM23 20.25V7.875H1V20.25C1 20.9793 1.28973 21.6788 1.80546 22.1945C2.32118 22.7103 3.02065 23 3.75 23H20.25C20.9793 23 21.6788 22.7103 22.1945 22.1945C22.7103 21.6788 23 20.9793 23 20.25ZM10.4242 12.2008L12 13.7779L13.5758 12.2008C13.7048 12.0717 13.8799 11.9991 14.0625 11.9991C14.2451 11.9991 14.4202 12.0717 14.5492 12.2008C14.6783 12.3298 14.7509 12.5049 14.7509 12.6875C14.7509 12.8701 14.6783 13.0452 14.5492 13.1742L12.9721 14.75L14.5492 16.3258C14.6783 16.4548 14.7509 16.6299 14.7509 16.8125C14.7509 16.9951 14.6783 17.1702 14.5492 17.2992C14.4202 17.4283 14.2451 17.5009 14.0625 17.5009C13.8799 17.5009 13.7048 17.4283 13.5758 17.2992L12 15.7221L10.4242 17.2992C10.2952 17.4283 10.1201 17.5009 9.9375 17.5009C9.75493 17.5009 9.57984 17.4283 9.45075 17.2992C9.32166 17.1702 9.24913 16.9951 9.24913 16.8125C9.24913 16.6299 9.32166 16.4548 9.45075 16.3258L11.0279 14.75L9.45075 13.1742C9.38683 13.1103 9.33612 13.0344 9.30153 12.9509C9.26694 12.8674 9.24913 12.7779 9.24913 12.6875C9.24913 12.5971 9.26694 12.5076 9.30153 12.4241C9.33612 12.3406 9.38683 12.2647 9.45075 12.2008C9.51467 12.1368 9.59056 12.0861 9.67407 12.0515C9.75759 12.0169 9.8471 11.9991 9.9375 11.9991C10.0279 11.9991 10.1174 12.0169 10.2009 12.0515C10.2844 12.0861 10.3603 12.1368 10.4242 12.2008Z" fill="white"/>
</svg>
