<svg width="24" height="24" viewBox="0 0 24 24" fill="none" xmlns="http://www.w3.org/2000/svg">
<path d="M20.8 17.3C20.8 17.5917 20.6841 17.8715 20.4778 18.0778C20.2715 18.2841 19.9917 18.4 19.7 18.4C19.4083 18.4 19.1285 18.2841 18.9222 18.0778C18.7159 17.8715 18.6 17.5917 18.6 17.3V4.1C18.6 3.80826 18.4841 3.52847 18.2778 3.32218C18.0715 3.11589 17.7917 3 17.5 3H2.1C1.80826 3 1.52847 3.11589 1.32218 3.32218C1.11589 3.52847 1 3.80826 1 4.1V18.4C1 18.9835 1.23178 19.5431 1.64436 19.9556C2.05695 20.3682 2.61652 20.6 3.2 20.6H19.7C21.5194 20.6 23 19.1194 23 17.3V6.3H20.8V17.3ZM12 6.3H15.3V8.5H12V6.3ZM12 10.7H15.3V12.9H12V10.7ZM4.3 6.3H9.8V12.9H4.3V6.3ZM4.3 17.3V15.1H15.3V17.3H4.3Z" fill="white"/>
</svg>
