<svg width="24" height="24" viewBox="0 0 24 24" fill="none" xmlns="http://www.w3.org/2000/svg">
<path d="M10.8055 8.91239C9.97318 9.53002 8.9649 9.86482 7.92845 9.86771C6.84978 9.86771 5.86015 9.50599 5.05046 8.91239C4.35484 9.49207 3.66108 10.3222 3.09346 11.3452C1.77364 13.7223 1.62803 16.1607 2.76884 16.7933C3.2771 17.0826 3.81319 16.8656 4.36597 16.3332C4.26243 16.9068 4.21059 17.4885 4.21108 18.0713C4.21108 20.7963 5.26841 22.9981 6.56968 22.9981C7.35433 22.9981 7.74295 22.1959 7.92938 20.9688C8.11487 22.1875 8.50442 22.9981 9.28351 22.9981C10.5792 22.9981 11.6449 20.7954 11.6449 18.0713C11.6449 17.4592 11.5874 16.8749 11.4891 16.3341C12.0456 16.8675 12.5798 17.0882 13.0899 16.7951C14.2279 16.1626 14.0805 13.7251 12.7616 11.347C12.1958 10.3231 11.5002 9.49393 10.8046 8.91425L10.8055 8.91239ZM7.92752 8.94022C8.44888 8.94004 8.96511 8.83717 9.44671 8.63748C9.92832 8.4378 10.3659 8.14521 10.7344 7.77642C11.1029 7.40763 11.3952 6.96987 11.5946 6.48812C11.7939 6.00637 11.8964 5.49008 11.8962 4.96872C11.8961 4.44736 11.7932 3.93114 11.5935 3.44953C11.3938 2.96792 11.1012 2.53036 10.7324 2.16183C10.3637 1.79331 9.92589 1.50102 9.44414 1.30167C8.96239 1.10233 8.4461 0.999818 7.92474 1C6.87155 1.00037 5.86165 1.4191 5.1172 2.16407C4.37275 2.90905 3.95472 3.91924 3.95509 4.97243C3.95546 6.02561 4.37419 7.03552 5.11917 7.77997C5.86414 8.52442 6.87434 8.94244 7.92752 8.94207V8.94022ZM17.821 14.0136C19.2197 14.0136 20.3549 12.8783 20.3549 11.4778C20.3549 10.0773 19.2178 8.94022 17.8201 8.94022C17.1472 8.94047 16.5019 9.2079 16.026 9.68374C15.5502 10.1596 15.2827 10.8049 15.2825 11.4778C15.283 12.1508 15.5507 12.796 16.0267 13.2716C16.5027 13.7473 17.1481 14.0136 17.821 14.0136ZM20.9096 15.5504C20.5478 14.8965 20.1045 14.366 19.6593 13.995C19.1399 14.3753 18.5092 14.6072 17.8201 14.6072C17.131 14.6072 16.4975 14.3753 15.9809 13.995C15.5357 14.366 15.0924 14.8965 14.7288 15.5504C13.8848 17.0696 13.792 18.6278 14.521 19.0322C14.8457 19.2177 15.1888 19.0786 15.5413 18.7391C15.4774 19.1057 15.4451 19.4772 15.4448 19.8493C15.4448 21.593 16.12 23 16.952 23C17.4528 23 17.7032 22.4871 17.822 21.7034C17.9407 22.4825 18.1892 22.9991 18.6882 22.9991C19.5165 22.9991 20.1973 21.5911 20.1973 19.8493C20.1973 19.4598 20.1602 19.0851 20.0971 18.7401C20.4523 19.0804 20.7946 19.2223 21.121 19.0341C21.8463 18.6315 21.7517 17.0724 20.9096 15.5532V15.5504Z" fill="white"/>
</svg>
