<svg width="24" height="24" viewBox="0 0 24 24" fill="none" xmlns="http://www.w3.org/2000/svg">
<path fill-rule="evenodd" clip-rule="evenodd" d="M7.1923 3.30006C7.1923 3.15864 7.1923 3.08793 7.14836 3.044C7.10443 3.00006 7.03372 3.00006 6.8923 3.00006H6C4.11438 3.00006 3.17157 3.00006 2.58579 3.58585C2 4.17163 2 5.11444 2 7.00006V19C2 20.8856 2 21.8284 2.58579 22.4142C3.17157 23 4.11438 23 6 23H18.8204C20.7061 23 21.6489 23 22.2347 22.4142C22.8204 21.8284 22.8204 20.8856 22.8204 19V7.00006C22.8204 5.11444 22.8204 4.17163 22.2347 3.58585C21.6489 3.00006 20.7061 3.00006 18.8204 3.00006H17.9282C17.7867 3.00006 17.716 3.00006 17.6721 3.044C17.6282 3.08793 17.6282 3.15864 17.6282 3.30006V4.99993C17.6282 5.82836 16.9566 6.49993 16.1282 6.49993C15.2997 6.49993 14.6282 5.82836 14.6282 4.99993V3.30006C14.6282 3.15864 14.6282 3.08793 14.5842 3.044C14.5403 3.00006 14.4696 3.00006 14.3282 3.00006H10.4923C10.3509 3.00006 10.2802 3.00006 10.2362 3.044C10.1923 3.08793 10.1923 3.15864 10.1923 3.30006V4.99993C10.1923 5.82836 9.52073 6.49993 8.6923 6.49993C7.86387 6.49993 7.1923 5.82836 7.1923 4.99993V3.30006Z" fill="white"/>
<path d="M7.07812 16.0046L8.51048 16.5591H10.4969L10.9455 14.3408C10.6781 13.6148 9.62454 13.5342 9.13117 13.5846C7.64152 13.4232 7.14179 14.4248 7.07812 14.9458V16.0046Z" fill="#5978F7"/>
<ellipse cx="9.12984" cy="12.2234" rx="1.33687" ry="1.41165" fill="#5978F7"/>
<path d="M18.1543 16.0046L16.7219 16.5591H15.2794L14.2869 14.3408C14.5543 13.6148 15.6079 13.5342 16.1012 13.5846C17.5909 13.4232 18.0906 14.4248 18.1543 14.9458V16.0046Z" fill="#5978F7"/>
<ellipse cx="1.33687" cy="1.41165" rx="1.33687" ry="1.41165" transform="matrix(-1 0 0 1 17.4395 10.8117)" fill="#5978F7"/>
<path d="M9.89453 15.9543C10.0473 14.1393 11.7407 13.8872 12.5683 13.9881C14.6309 13.7461 15.2738 15.198 15.3375 15.9543V17.2651C12.7783 18.5961 10.6425 17.8197 9.89453 17.2651V15.9543Z" fill="#5978F7"/>
<ellipse cx="12.6162" cy="12.1731" rx="1.76658" ry="1.8654" fill="#5978F7"/>
<path d="M8.69141 1V4.99999" stroke="white" stroke-linecap="round"/>
<path d="M16.1289 1V4.99999" stroke="white" stroke-linecap="round"/>
</svg>
