<svg width="24" height="24" viewBox="0 0 24 24" fill="none" xmlns="http://www.w3.org/2000/svg">
<path d="M1 18.7155L3.84483 19.7586H7.79004L8.68103 15.5862C8.15 14.2207 6.05747 14.069 5.07759 14.1638C2.11897 13.8603 1.12644 15.7443 1 16.7241V18.7155Z" fill="white" stroke="#5978F7"/>
<circle cx="5.07705" cy="11.6034" r="2.15517" fill="white" stroke="#5978F7"/>
<path d="M23 18.7155L20.1552 19.7586H17.29L15.319 15.5862C15.85 14.2207 17.9425 14.069 18.9224 14.1638C21.881 13.8603 22.8736 15.7443 23 16.7241V18.7155Z" fill="white" stroke="#5978F7"/>
<circle cx="2.65517" cy="2.65517" r="2.15517" transform="matrix(-1 0 0 1 21.5781 8.94824)" fill="white" stroke="#5978F7"/>
<path d="M6.59375 18.6206C6.8972 15.2069 10.2604 14.7327 11.9041 14.9224C16.0006 14.4672 17.2777 17.1982 17.4041 18.6206V21.0862C12.3213 23.5896 8.07938 22.1293 6.59375 21.0862V18.6206Z" fill="white" stroke="#5978F7"/>
<circle cx="12.0008" cy="11.5086" r="3.00862" fill="white" stroke="#5978F7"/>
</svg>
