<svg width="24" height="24" viewBox="0 0 24 24" fill="none" xmlns="http://www.w3.org/2000/svg">
<path fill-rule="evenodd" clip-rule="evenodd" d="M7.1923 3.30006C7.1923 3.15864 7.1923 3.08793 7.14836 3.044C7.10443 3.00006 7.03372 3.00006 6.8923 3.00006H6C4.11438 3.00006 3.17157 3.00006 2.58579 3.58585C2 4.17163 2 5.11444 2 7.00006V19C2 20.8856 2 21.8284 2.58579 22.4142C3.17157 23 4.11438 23 6 23H18.8204C20.7061 23 21.6489 23 22.2347 22.4142C22.8204 21.8284 22.8204 20.8856 22.8204 19V7.00006C22.8204 5.11444 22.8204 4.17163 22.2347 3.58585C21.6489 3.00006 20.7061 3.00006 18.8204 3.00006H17.9282C17.7867 3.00006 17.716 3.00006 17.6721 3.044C17.6282 3.08793 17.6282 3.15864 17.6282 3.30006V4.99993C17.6282 5.82836 16.9566 6.49993 16.1282 6.49993C15.2997 6.49993 14.6282 5.82836 14.6282 4.99993V3.30006C14.6282 3.15864 14.6282 3.08793 14.5842 3.044C14.5403 3.00006 14.4696 3.00006 14.3282 3.00006H10.4923C10.3509 3.00006 10.2802 3.00006 10.2362 3.044C10.1923 3.08793 10.1923 3.15864 10.1923 3.30006V4.99993C10.1923 5.82836 9.52073 6.49993 8.6923 6.49993C7.86387 6.49993 7.1923 5.82836 7.1923 4.99993V3.30006Z" fill="white"/>
<path d="M7.99994 10.4586L10.0746 11.4361L10.1339 12.6579C10.1537 13.2281 10.5725 14.3684 12.09 14.3684C13.6075 14.3684 14.0264 13.2281 14.0461 12.6579V11.4361L15.3502 10.8251V13.1466C15.3897 13.2484 15.528 13.4521 15.7651 13.4521C16.0023 13.4521 16.0615 13.2484 16.0615 13.1466V10.4586C16.2986 10.312 16.1603 10.1124 16.0615 10.031C15.1526 9.60333 13.2044 8.68697 12.6828 8.4426C12.1612 8.19824 11.6356 8.34079 11.438 8.4426C10.4303 8.91097 8.34374 9.88435 8.05922 10.031C7.77469 10.1776 7.90115 10.3772 7.99994 10.4586Z" fill="#5978F7"/>
<path d="M11.7936 15.9568L10.9045 15.0404C10.7622 14.9427 10.4105 14.9997 10.2525 15.0404C9.79801 15.0811 8.7587 15.4681 8.23707 16.6899C7.71543 17.9117 8.57296 18.3801 9.06693 18.4615H15.1724C15.8837 18.4615 16.4172 17.7895 15.943 16.6899C15.4688 15.5902 14.2832 15.1015 13.8683 14.9793C13.5364 14.8816 13.3348 14.9793 13.2755 15.0404L12.3864 15.9568C12.1493 16.2011 11.8924 16.0586 11.7936 15.9568Z" fill="#5978F7"/>
<path d="M8.69141 1V4.99999" stroke="white" stroke-linecap="round"/>
<path d="M16.1289 1V4.99999" stroke="white" stroke-linecap="round"/>
</svg>
