<svg width="24" height="24" viewBox="0 0 24 24" fill="none" xmlns="http://www.w3.org/2000/svg">
<path d="M16.4683 16.8067L21.5767 13.5653C22.7498 12.7951 23.8219 14.4855 22.824 15.3836L13.9736 21.4868C12.6072 22.1193 10.6144 22.6505 8.99875 21.6133C8.13252 21.0757 6.21591 19.9847 5.47937 19.9215V13.8657C10.1867 13.17 9.26605 16.0477 14.8646 15.7631C15.9039 15.7103 16.4683 17.4391 14.8646 17.6288L10.3649 17.7237C9.75609 17.7237 9.84519 18.451 10.3649 18.451H14.9832C15.6514 18.3562 16.3734 17.983 16.4683 16.8067Z" fill="white"/>
<path d="M4.67748 12.838H0.727451V20.9967H4.78143L4.67748 12.838Z" fill="white"/>
<path fill-rule="evenodd" clip-rule="evenodd" d="M14.5891 1.00718C17.6079 1.00718 20.7806 3.81028 20.7806 7.01383C20.95 9.43189 19.0679 13.8768 14.2503 13.7906C9.59901 13.7073 7.82782 9.38568 8.01264 7.01383C8.01264 4.71898 10.0179 0.810039 14.5891 1.00718ZM19.9489 7.01383C20.0352 3.85956 16.7608 1.76186 14.5891 1.76186C10.3013 1.61401 8.88025 5.20156 8.70571 7.01383C8.49625 9.93398 10.9081 13.0359 14.2503 13.0359C18.763 13.0359 20.2107 9.10845 19.9489 7.01383Z" fill="white"/>
<path d="M14.5891 1.76186C16.7608 1.76186 20.0352 3.85956 19.9489 7.01383C20.2107 9.10845 18.763 13.0359 14.2503 13.0359C10.9081 13.0359 8.49625 9.93398 8.70571 7.01383C8.88025 5.20156 10.3013 1.61401 14.5891 1.76186Z" fill="white"/>
<path d="M12.2402 5.02057C12.2402 5.27693 12.4526 5.48499 12.7144 5.48499H13.6626C14.0419 5.48499 14.3024 5.6336 14.4781 5.84848C14.5755 5.96799 14.6514 6.11474 14.7007 6.27574H12.7144C12.5886 6.27574 12.468 6.32467 12.3791 6.41177C12.2902 6.49886 12.2402 6.61699 12.2402 6.74016C12.2402 6.86333 12.2902 6.98146 12.3791 7.06855C12.468 7.15565 12.5886 7.20458 12.7144 7.20458H14.7007C14.6558 7.36028 14.5802 7.50586 14.4781 7.63308C14.3024 7.84795 14.0419 7.99657 13.6626 7.99657H12.7144C12.6215 7.99661 12.5308 8.02335 12.4533 8.07346C12.3759 8.12357 12.3151 8.19484 12.2786 8.27845C12.2421 8.36206 12.2315 8.45431 12.2481 8.54378C12.2646 8.63325 12.3076 8.71599 12.3717 8.78175L15.0585 11.5336C15.1462 11.6188 15.2644 11.667 15.3879 11.6681C15.5115 11.6692 15.6305 11.6231 15.7198 11.5395C15.8091 11.4559 15.8616 11.3414 15.8661 11.2205C15.8705 11.0996 15.8267 10.9818 15.7438 10.8921L13.8188 8.91983C14.0899 8.90593 14.3548 8.83575 14.5961 8.71395C14.8374 8.59214 15.0496 8.42149 15.2184 8.2133C15.453 7.91927 15.6096 7.57293 15.6742 7.2052H16.5074C16.6332 7.2052 16.7538 7.15627 16.8427 7.06917C16.9316 6.98208 16.9816 6.86395 16.9816 6.74078C16.9816 6.61761 16.9316 6.49948 16.8427 6.41239C16.7538 6.32529 16.6332 6.27636 16.5074 6.27636H15.6742C15.6235 5.99695 15.5215 5.72885 15.3733 5.48499H16.5074C16.6332 5.48499 16.7538 5.43606 16.8427 5.34896C16.9316 5.26187 16.9816 5.14374 16.9816 5.02057C16.9816 4.8974 16.9316 4.77927 16.8427 4.69218C16.7538 4.60508 16.6332 4.55615 16.5074 4.55615H12.7144C12.5886 4.55615 12.468 4.60508 12.3791 4.69218C12.2902 4.77927 12.2402 4.8974 12.2402 5.02057Z" fill="#5978F7"/>
</svg>
