<svg width="24" height="24" viewBox="0 0 24 24" fill="none" xmlns="http://www.w3.org/2000/svg">
<path d="M9.02944 1H14.9706C16.2026 1 17.1796 1 17.9659 1.06431C18.7715 1.12974 19.4518 1.26738 20.0746 1.58328C21.0828 2.09757 21.9023 2.91786 22.4156 3.92656C22.7326 4.54708 22.8703 5.22851 22.9357 6.03405C23 6.82041 23 7.79744 23 9.02944V14.9706C23 16.2026 23 17.1796 22.9357 17.9659C22.8703 18.7715 22.7326 19.4518 22.4167 20.0746C21.9027 21.0826 21.0829 21.9021 20.0746 22.4156C19.4518 22.7326 18.7715 22.8703 17.9659 22.9357C17.1796 23 16.2026 23 14.9706 23H9.02944C7.79744 23 6.82041 23 6.03405 22.9357C5.22851 22.8703 4.54821 22.7326 3.92656 22.4167C2.91811 21.9029 2.09821 21.083 1.58441 20.0746C1.26738 19.4518 1.12974 18.7715 1.06431 17.9659C1 17.1796 1 16.2026 1 14.9706V9.02944C1 7.79744 1 6.82041 1.06431 6.03405C1.12974 5.22851 1.26738 4.54821 1.58328 3.92656C2.09738 2.91793 2.91769 2.09802 3.92656 1.58441C4.54708 1.26738 5.22851 1.12974 6.03405 1.06431C6.82041 1 7.79744 1 9.02944 1ZM7.76923 6.92308C7.76923 7.39015 8.14831 7.76923 8.61538 7.76923H10.3077C10.9846 7.76923 11.4494 8.04 11.7631 8.43149C11.9368 8.64923 12.0722 8.91662 12.1602 9.20995H8.61538C8.39097 9.20995 8.17575 9.2991 8.01706 9.45778C7.85838 9.61647 7.76923 9.83169 7.76923 10.0561C7.76923 10.2805 7.85838 10.4957 8.01706 10.6544C8.17575 10.8131 8.39097 10.9023 8.61538 10.9023H12.1602C12.0801 11.1859 11.9452 11.4512 11.7631 11.683C11.4494 12.0745 10.9846 12.3452 10.3077 12.3452H8.61538C8.44972 12.3453 8.28773 12.394 8.1495 12.4853C8.01126 12.5766 7.90287 12.7065 7.83776 12.8588C7.77265 13.0111 7.75368 13.1792 7.78322 13.3422C7.81275 13.5052 7.88948 13.656 8.0039 13.7758L12.7988 18.7895C12.9553 18.9447 13.1663 19.0327 13.3867 19.0347C13.6072 19.0367 13.8197 18.9526 13.9791 18.8003C14.1384 18.648 14.2321 18.4395 14.24 18.2192C14.248 17.9989 14.1697 17.7842 14.0217 17.6207L10.5864 14.0274C11.0702 14.0021 11.543 13.8742 11.9737 13.6523C12.4043 13.4303 12.7828 13.1194 13.0842 12.7401C13.5028 12.2044 13.7823 11.5734 13.8976 10.9034H15.3846C15.609 10.9034 15.8243 10.8142 15.9829 10.6556C16.1416 10.4969 16.2308 10.2816 16.2308 10.0572C16.2308 9.83282 16.1416 9.61759 15.9829 9.45891C15.8243 9.30023 15.609 9.21108 15.3846 9.21108H13.8976C13.807 8.70201 13.6251 8.21353 13.3606 7.76923H15.3846C15.609 7.76923 15.8243 7.68008 15.9829 7.5214C16.1416 7.36271 16.2308 7.14749 16.2308 6.92308C16.2308 6.69866 16.1416 6.48344 15.9829 6.32476C15.8243 6.16607 15.609 6.07692 15.3846 6.07692H8.61538C8.39097 6.07692 8.17575 6.16607 8.01706 6.32476C7.85838 6.48344 7.76923 6.69866 7.76923 6.92308Z" fill="white"/>
</svg>
